{
.appVersion = "3337";
.formatVersion = 3;
axes = (
{
name = Weight;
tag = wght;
}
);
classes = (
{
automatic = 1;

glyphs = (
{
glyphname = A;
kernLeft = A;
kernRight = A;
lastChange = "2025-01-07 14:49:27 +0000";
layers = (
{
anchors = (
{
name = bottom;
pos = (366,0);
},
{
name = ogonek;
pos = (686,6);
},
{
name = top;
pos = (366,660);
}
);
background = {
shapes = (
{
closed = 1;
nodes = (
(14,6,ls),
(12,4,o),
(11,1,o),
(11,-1,cs),
(11,-5,o),
(14,-9,o),
(18,-11,cs),
(26,-16,o),
(33,-14,o),
(37,-6,cs),
(177,258,l),
(355,-7,ls),
(358,-11,o),
(362,-13,o),
(367,-13,cs),
(370,-13,o),
(374,-11,o),
(378,-7,cs),
(555,259,l),
(695,-6,ls),
(697,-11,o),
(701,-14,o),
(705,-14,cs),
(708,-14,o),
(710,-13,o),
(713,-11,cs),
(717,-9,o),
(720,-5,o),
(720,-1,cs),
(720,1,o),
(719,4,o),
(717,6,cs),
(377,653,ls),
(374,658,o),
(369,660,o),
(365,660,cs),
(360,660,o),
(356,658,o),
(352,653,c),
(165,294,l),
(163,293,o),
(162,290,o),
(162,287,c)
);
},
{
closed = 1;
nodes = (
(367,24,l),
(189,285,l),
(366,619,l),
(541,286,l)
);
}
);
};
layerId = "12AF635E-66FE-4C90-B49C-8787585F2B73";
shapes = (
{
closed = 1;
nodes = (
(35,0,o),
(40,3,o),
(41,7,cs),
(365,636,l),
(688,7,ls),
(690,3,o),
(694,0,o),
(700,0,cs),
(707,0,o),
(713,5,o),
(713,13,cs),
(713,15,o),
(712,18,o),
(709,22,cs),
(380,663,ls),
(373,677,o),
(356,677,o),
(349,663,cs),
(18,18,ls),
(18,18,o),
(18,15,o),
(18,13,cs),
(18,5,o),
(23,0,o),
(30,0,cs)
);
},
{
closed = 1;
nodes = (
(358,-3,o),
(371,-3,o),
(377,7,cs),
(564,284,ls),
(565,286,o),
(566,288,o),
(566,291,cs),
(566,298,o),
(560,304,o),
(553,304,cs),
(549,304,o),
(545,301,o),
(542,298,cs),
(365,34,l),
(188,296,ls),
(185,300,o),
(182,302,o),
(178,302,cs),
(171,302,o),
(164,296,o),
(164,289,cs),
(164,287,o),
(165,284,o),
(166,282,cs),
(352,7,ls)
);
}
);
width = 730;
},
{
anchors = (
{
name = bottom;
pos = (365,0);
},
{
name = ogonek;
pos = (636,54);
},
{
name = top;
pos = (365,660);
}
);
background = {
shapes = (
{
closed = 1;
nodes = (
(13,6,ls),
(11,4,o),
(11,1,o),
(11,-1,cs),
(11,-5,o),
(13,-9,o),
(18,-11,cs),
(25,-16,o),
(32,-14,o),
(36,-6,cs),
(176,258,l),
(354,-7,ls),
(357,-11,o),
(361,-13,o),
(366,-13,cs),
(369,-13,o),
(374,-11,o),
(377,-7,cs),
(554,259,l),
(694,-6,ls),
(696,-11,o),
(700,-14,o),
(704,-14,cs),
(707,-14,o),
(709,-13,o),
(712,-11,cs),
(716,-9,o),
(719,-5,o),
(719,-1,cs),
(719,1,o),
(718,4,o),
(716,6,cs),
(376,653,ls),
(374,658,o),
(368,660,o),
(364,660,cs),
(360,660,o),
(355,658,o),
(352,653,c),
(164,294,l),
(163,293,o),
(161,290,o),
(161,287,c)
);
},
{
closed = 1;
nodes = (
(366,24,l),
(188,285,l),
(365,619,l),
(541,286,l)
);
}
);
};
layerId = m004;
shapes = (
{
closed = 1;
nodes = (
(100,0,o),
(120,13,o),
(130,33,cs),
(364,487,l),
(597,32,ls),
(607,12,o),
(627,0,o),
(650,0,cs),
(683,0,o),
(710,27,o),
(710,60,cs),
(710,70,o),
(708,80,o),
(703,89,cs),
(424,633,ls),
(396,686,o),
(331,686,o),
(303,633,cs),
(24,90,ls),
(19,81,o),
(18,71,o),
(18,61,cs),
(18,27,o),
(44,0,o),
(77,0,cs)
);
},
{
closed = 1;
nodes = (
(339,-10,o),
(388,-10,o),
(414,29,cs),
(569,260,ls),
(576,270,o),
(580,281,o),
(580,294,cs),
(580,328,o),
(553,354,o),
(519,354,cs),
(499,354,o),
(481,345,o),
(470,329,cs),
(364,170,l),
(261,321,ls),
(251,337,o),
(233,347,o),
(212,347,cs),
(179,347,o),
(152,320,o),
(152,287,cs),
(152,274,o),
(156,262,o),
(163,253,cs),
(313,29,ls)
);
}
);
width = 727;
}
);
note = A;
unicode = 65;
},
{
glyphname = B;
kernLeft = H;
kernRight = B;
lastChange = "2025-01-07 14:49:27 +0000";
layers = (
{
anchors = (
{
name = bottom;
pos = (283,0);
},
{
name = center;
pos = (283,330);
},
{
name = top;
pos = (283,660);
}
);
background = {
hints = (
{
horizontal = 1;
place = (-13,26);
type = Stem;
},
{
horizontal = 1;
place = (226,26);
type = Stem;
},
{
horizontal = 1;
place = (496,26);
type = Stem;
},
{
horizontal = 1;
place = (634,26);
type = Stem;
},
{
place = (75,26);
type = Stem;
},
{
place = (534,26);
type = Stem;
}
);
shapes = (
{
closed = 1;
nodes = (
(48,0,ls),
(48,-9,o),
(53,-13,o),
(62,-13,cs),
(267,-13,ls),
(341,-13,o),
(404,13,o),
(456,65,cs),
(509,117,o),
(534,180,o),
(534,254,cs),
(534,332,o),
(501,403,o),
(446,454,c),
(443,511,o),
(421,560,o),
(379,599,cs),
(337,640,o),
(287,660,o),
(229,660,cs),
(62,660,ls),
(53,660,o),
(48,656,o),
(48,647,cs)
);
},
{
closed = 1;
nodes = (
(75,522,l),
(75,634,l),
(229,634,ls),
(275,634,o),
(316,619,o),
(352,589,cs),
(387,559,o),
(409,521,o),
(417,476,c),
(372,507,o),
(322,522,o),
(267,522,cs)
);
},
{
closed = 1;
nodes = (
(75,252,l),
(75,496,l),
(267,496,ls),
(324,496,o),
(374,477,o),
(419,441,c),
(419,389,o),
(400,345,o),
(363,308,cs),
(325,271,o),
(280,252,o),
(229,252,cs)
);
},
{
closed = 1;
nodes = (
(75,13,l),
(75,226,l),
(229,226,ls),
(284,226,o),
(331,244,o),
(374,281,cs),
(415,318,o),
(439,364,o),
(444,418,c),
(487,372,o),
(508,317,o),
(508,254,cs),
(508,187,o),
(484,131,o),
(438,84,cs),
(390,37,o),
(333,13,o),
(267,13,cs)
);
}
);
};
layerId = "12AF635E-66FE-4C90-B49C-8787585F2B73";
name = Light;
shapes = (
{
closed = 1;
nodes = (
(272,0,ls),
(417,0,o),
(534,117,o),
(534,261,cs),
(534,405,o),
(417,523,o),
(272,523,cs),
(82,523,ls),
(74,523,o),
(69,517,o),
(69,510,cs),
(69,503,o),
(74,497,o),
(82,497,cs),
(272,497,ls),
(406,497,o),
(508,395,o),
(508,261,cs),
(508,127,o),
(406,25,o),
(272,25,cs),
(87,25,l),
(87,635,l),
(229,635,ls),
(338,635,o),
(420,552,o),
(420,443,cs),
(420,334,o),
(338,252,o),
(229,252,cs),
(82,252,ls),
(74,252,o),
(69,246,o),
(69,239,cs),
(69,232,o),
(74,226,o),
(82,226,cs),
(229,226,ls),
(349,226,o),
(446,323,o),
(446,443,cs),
(446,563,o),
(349,660,o),
(229,660,cs),
(75,660,ls),
(68,660,o),
(62,654,o),
(62,646,cs),
(62,14,ls),
(62,6,o),
(68,0,o),
(75,0,cs)
);
}
);
width = 577;
},
{
anchors = (
{
name = bottom;
pos = (311,0);
},
{
name = center;
pos = (311,330);
},
{
name = top;
pos = (311,660);
}
);
background = {
hints = (
{
horizontal = 1;
place = (-13,26);
type = Stem;
},
{
horizontal = 1;
place = (226,26);
type = Stem;
},
{
horizontal = 1;
place = (496,26);
type = Stem;
},
{
horizontal = 1;
place = (634,26);
type = Stem;
},
{
place = (75,26);
type = Stem;
},
{
place = (534,26);
type = Stem;
}
);
shapes = (
{
closed = 1;
nodes = (
(77,0,ls),
(77,-9,o),
(82,-13,o),
(91,-13,cs),
(296,-13,ls),
(370,-13,o),
(433,13,o),
(485,65,cs),
(537,117,o),
(563,180,o),
(563,254,cs),
(563,332,o),
(530,403,o),
(475,454,c),
(472,511,o),
(449,560,o),
(407,599,cs),
(366,640,o),
(316,660,o),
(258,660,cs),
(91,660,ls),
(82,660,o),
(77,656,o),
(77,647,cs)
);
},
{
closed = 1;
nodes = (
(104,522,l),
(104,634,l),
(258,634,ls),
(304,634,o),
(345,619,o),
(381,589,cs),
(416,559,o),
(438,521,o),
(446,476,c),
(401,507,o),
(351,522,o),
(296,522,cs)
);
},
{
closed = 1;
nodes = (
(104,252,l),
(104,496,l),
(296,496,ls),
(352,496,o),
(403,477,o),
(448,441,c),
(447,389,o),
(429,345,o),
(391,308,cs),
(354,271,o),
(309,252,o),
(258,252,cs)
);
},
{
closed = 1;
nodes = (
(104,13,l),
(104,226,l),
(258,226,ls),
(312,226,o),
(360,244,o),
(403,281,cs),
(444,318,o),
(468,364,o),
(473,418,c),
(515,372,o),
(537,317,o),
(537,254,cs),
(537,187,o),
(513,131,o),
(466,84,cs),
(419,37,o),
(362,13,o),
(296,13,cs)
);
}
);
};
layerId = m004;
name = Bold;
shapes = (
{
closed = 1;
nodes = (
(323,0,ls),
(459,0,o),
(570,110,o),
(570,246,cs),
(570,382,o),
(459,492,o),
(323,492,cs),
(144,492,ls),
(111,492,o),
(84,465,o),
(84,432,cs),
(84,399,o),
(111,372,o),
(144,372,cs),
(323,372,ls),
(380,372,o),
(449,332,o),
(449,246,cs),
(449,160,o),
(380,120,o),
(323,120,cs),
(180,120,l),
(180,540,l),
(258,540,ls),
(314,540,o),
(354,513,o),
(354,443,cs),
(354,373,o),
(314,346,o),
(258,346,cs),
(144,346,ls),
(111,346,o),
(84,319,o),
(84,287,cs),
(84,253,o),
(111,226,o),
(144,226,cs),
(258,226,ls),
(378,226,o),
(475,323,o),
(475,443,cs),
(475,563,o),
(378,660,o),
(258,660,cs),
(113,660,ls),
(82,660,o),
(60,638,o),
(60,607,cs),
(60,53,ls),
(60,22,o),
(82,0,o),
(113,0,cs)
);
}
);
width = 613;
}
);
note = B;
unicode = 66;
},
{
glyphname = C;
kernLeft = O;
kernRight = C;
lastChange = "2025-01-07 14:49:27 +0000";
layers = (
{
anchors = (
{
name = bottom;
pos = (354,-4);
},
{
name = top;
pos = (386,662);
}
);
background = {
hints = (
{
horizontal = 1;
place = (-14,26);
type = Stem;
},
{
horizontal = 1;
place = (636,26);
type = Stem;
},
{
place = (33,26);
type = Stem;
}
);
shapes = (
{
closed = 1;
nodes = (
(63,441,o),
(47,385,o),
(47,323,cs),
(47,263,o),
(63,206,o),
(94,154,cs),
(124,102,o),
(164,62,o),
(215,32,cs),
(268,1,o),
(325,-14,o),
(386,-14,cs),
(427,-14,o),
(469,-6,o),
(507,9,cs),
(546,24,o),
(580,44,o),
(610,71,cs),
(614,74,o),
(615,77,o),
(615,81,cs),
(615,84,o),
(614,87,o),
(611,90,cs),
(606,96,o),
(599,96,o),
(592,91,cs),
(564,66,o),
(533,47,o),
(498,33,cs),
(461,19,o),
(425,12,o),
(386,12,cs),
(330,12,o),
(277,26,o),
(229,54,cs),
(182,82,o),
(145,120,o),
(117,167,cs),
(89,215,o),
(74,267,o),
(74,323,cs),
(74,380,o),
(89,432,o),
(117,481,cs),
(145,527,o),
(182,565,o),
(229,592,cs),
(277,621,o),
(330,636,o),
(386,636,cs),
(425,636,o),
(461,628,o),
(498,614,cs),
(532,601,o),
(564,582,o),
(592,557,cs),
(599,551,o),
(605,552,o),
(610,559,cs),
(613,562,o),
(614,565,o),
(614,568,cs),
(614,571,o),
(613,575,o),
(609,578,cs),
(578,604,o),
(545,624,o),
(507,639,cs),
(468,654,o),
(427,662,o),
(386,662,cs),
(325,662,o),
(268,647,o),
(215,615,cs),
(164,585,o),
(124,545,o),
(94,494,cs)
);
}
);
};
layerId = "12AF635E-66FE-4C90-B49C-8787585F2B73";
shapes = (
{
closed = 1;
nodes = (
(473,-13,o),
(552,18,o),
(612,72,cs),
(615,74,o),
(616,77,o),
(616,82,cs),
(616,89,o),
(611,94,o),
(604,94,cs),
(600,94,o),
(598,93,o),
(595,91,cs),
(539,41,o),
(468,13,o),
(386,13,cs),
(207,13,o),
(69,150,o),
(69,330,cs),
(69,508,o),
(207,647,o),
(386,647,cs),
(472,647,o),
(546,615,o),
(604,561,cs),
(606,559,o),
(608,557,o),
(612,557,cs),
(620,557,o),
(625,563,o),
(625,570,cs),
(625,574,o),
(623,578,o),
(621,580,cs),
(560,637,o),
(477,673,o),
(386,673,cs),
(196,673,o),
(43,519,o),
(43,330,cs),
(43,140,o),
(196,-13,o),
(386,-13,cs)
);
}
);
width = 664;
},
{
anchors = (
{
name = bottom;
pos = (337,-13);
},
{
name = top;
pos = (386,660);
}
);
background = {
hints = (
{
horizontal = 1;
place = (-14,26);
type = Stem;
},
{
horizontal = 1;
place = (636,26);
type = Stem;
},
{
place = (33,26);
type = Stem;
}
);
shapes = (
{
closed = 1;
nodes = (
(63,441,o),
(47,385,o),
(47,323,cs),
(47,263,o),
(63,206,o),
(94,154,cs),
(124,102,o),
(164,62,o),
(215,32,cs),
(268,1,o),
(325,-14,o),
(386,-14,cs),
(427,-14,o),
(469,-6,o),
(507,9,cs),
(546,24,o),
(580,44,o),
(610,71,cs),
(614,74,o),
(615,77,o),
(615,81,cs),
(615,84,o),
(614,87,o),
(611,90,cs),
(606,96,o),
(599,96,o),
(592,91,cs),
(564,66,o),
(533,47,o),
(498,33,cs),
(461,19,o),
(425,12,o),
(386,12,cs),
(330,12,o),
(277,26,o),
(229,54,cs),
(182,82,o),
(145,120,o),
(117,167,cs),
(89,215,o),
(74,267,o),
(74,323,cs),
(74,380,o),
(89,432,o),
(117,481,cs),
(145,527,o),
(182,565,o),
(229,592,cs),
(277,621,o),
(330,636,o),
(386,636,cs),
(425,636,o),
(461,628,o),
(498,614,cs),
(532,601,o),
(564,582,o),
(592,557,cs),
(599,551,o),
(605,552,o),
(610,559,cs),
(613,562,o),
(614,565,o),
(614,568,cs),
(614,571,o),
(613,575,o),
(609,578,cs),
(578,604,o),
(545,624,o),
(507,639,cs),
(468,654,o),
(427,662,o),
(386,662,cs),
(325,662,o),
(268,647,o),
(215,615,cs),
(164,585,o),
(124,545,o),
(94,494,cs)
);
}
);
};
layerId = m004;
shapes = (
{
closed = 1;
nodes = (
(477,-13,o),
(560,22,o),
(621,80,cs),
(633,91,o),
(640,106,o),
(640,124,cs),
(640,156,o),
(614,184,o),
(580,184,cs),
(564,184,o),
(549,178,o),
(539,167,cs),
(493,125,o),
(453,107,o),
(386,107,cs),
(246,107,o),
(163,189,o),
(163,330,cs),
(163,469,o),
(246,553,o),
(386,553,cs),
(456,553,o),
(498,534,o),
(544,487,cs),
(555,476,o),
(570,469,o),
(586,469,cs),
(621,469,o),
(647,496,o),
(647,529,cs),
(647,546,o),
(641,561,o),
(629,571,cs),
(568,634,o),
(482,673,o),
(386,673,cs),
(196,673,o),
(43,519,o),
(43,330,cs),
(43,140,o),
(196,-13,o),
(386,-13,cs)
);
}
);
width = 672;
}
);
note = C;
unicode = 67;
},
{
glyphname = D;
kernLeft = H;
kernRight = O;
lastChange = "2025-01-07 14:49:27 +0000";
layers = (
{
anchors = (
{
name = bottom;
pos = (271,0);
},
{
name = center;
pos = (271,330);
},
{
name = top;
pos = (242,660);
}
);
background = {
hints = (
{
horizontal = 1;
place = (-13,26);
type = Stem;
},
{
horizontal = 1;
place = (634,26);
type = Stem;
},
{
place = (82,26);
type = Stem;
},
{
place = (535,26);
type = Stem;
}
);
shapes = (
{
closed = 1;
nodes = (
(54,0,ls),
(54,-9,o),
(58,-13,o),
(68,-13,cs),
(199,-13,ls),
(312,-13,o),
(402,23,o),
(454,85,cs),
(507,147,o),
(534,229,o),
(534,323,cs),
(534,420,o),
(509,499,o),
(456,562,cs),
(404,623,o),
(315,660,o),
(199,660,cs),
(68,660,ls),
(59,660,o),
(54,655,o),
(54,647,cs)
);
},
{
closed = 1;
nodes = (
(81,13,l),
(81,634,l),
(199,634,ls),
(308,634,o),
(390,600,o),
(438,541,cs),
(485,483,o),
(508,411,o),
(508,323,cs),
(508,236,o),
(484,163,o),
(436,105,cs),
(388,47,o),
(305,13,o),
(199,13,cs)
);
}
);
};
layerId = "12AF635E-66FE-4C90-B49C-8787585F2B73";
shapes = (
{
closed = 1;
nodes = (
(232,0,ls),
(412,0,o),
(535,130,o),
(535,330,cs),
(535,529,o),
(412,660,o),
(232,660,cs),
(74,660,ls),
(66,660,o),
(60,654,o),
(60,646,cs),
(60,14,ls),
(60,6,o),
(66,0,o),
(74,0,cs)
);
},
{
closed = 1;
nodes = (
(86,635,l),
(232,635,ls),
(401,635,o),
(510,519,o),
(510,330,cs),
(510,141,o),
(401,25,o),
(232,25,cs),
(86,25,l)
);
}
);
width = 578;
},
{
anchors = (
{
name = bottom;
pos = (331,0);
},
{
name = center;
pos = (331,330);
},
{
name = top;
pos = (289,660);
}
);
background = {
hints = (
{
horizontal = 1;
place = (-13,26);
type = Stem;
},
{
horizontal = 1;
place = (634,26);
type = Stem;
},
{
place = (82,26);
type = Stem;
},
{
place = (535,26);
type = Stem;
}
);
shapes = (
{
closed = 1;
nodes = (
(54,0,ls),
(54,-9,o),
(58,-13,o),
(68,-13,cs),
(199,-13,ls),
(312,-13,o),
(402,23,o),
(454,85,cs),
(507,147,o),
(534,229,o),
(534,323,cs),
(534,420,o),
(509,499,o),
(456,562,cs),
(404,623,o),
(315,660,o),
(199,660,cs),
(68,660,ls),
(59,660,o),
(54,655,o),
(54,647,cs)
);
},
{
closed = 1;
nodes = (
(81,13,l),
(81,634,l),
(199,634,ls),
(308,634,o),
(390,600,o),
(438,541,cs),
(485,483,o),
(508,411,o),
(508,323,cs),
(508,236,o),
(484,163,o),
(436,105,cs),
(388,47,o),
(305,13,o),
(199,13,cs)
);
}
);
};
layerId = m004;
shapes = (
{
closed = 1;
nodes = (
(316,0,ls),
(496,0,o),
(619,130,o),
(619,330,cs),
(619,529,o),
(496,660,o),
(316,660,cs),
(113,660,ls),
(82,660,o),
(60,638,o),
(60,607,cs),
(60,53,ls),
(60,22,o),
(82,0,o),
(113,0,cs)
);
},
{
closed = 1;
nodes = (
(180,540,l),
(316,540,ls),
(444,540,o),
(498,482,o),
(498,330,cs),
(498,178,o),
(444,120,o),
(316,120,cs),
(180,120,l)
);
}
);
width = 662;
}
);
note = D;
unicode = 68;
},
{
glyphname = Eth;
kernRight = O;
lastChange = "2025-01-07 14:49:27 +0000";
layers = (
{
layerId = "12AF635E-66FE-4C90-B49C-8787585F2B73";
shapes = (
{
closed = 1;
nodes = (
(262,338,ls),
(269,338,o),
(275,344,o),
(275,351,cs),
(275,359,o),
(269,364,o),
(262,364,cs),
(30,364,ls),
(23,364,o),
(18,359,o),
(18,351,cs),
(18,344,o),
(23,338,o),
(30,338,cs)
);
},
{
pos = (3,0);
ref = D;
}
);
width = 581;
},
{
layerId = m004;
shapes = (
{
closed = 1;
nodes = (
(309,301,ls),
(342,301,o),
(369,328,o),
(369,360,cs),
(369,394,o),
(342,421,o),
(309,421,cs),
(77,421,ls),
(44,421,o),
(18,394,o),
(18,360,cs),
(18,328,o),
(44,301,o),
(77,301,cs)
);
},
{
pos = (12,0);
ref = D;
}
);
width = 674;
}
);
metricRight = D;
unicode = 208;
},
{
glyphname = E;
kernLeft = H;
kernRight = E;
lastChange = "2025-01-07 14:49:27 +0000";
layers = (
{
anchors = (
{
name = bottom;
pos = (251,0);
},
{
name = ogonek;
pos = (435,4);
},
{
name = top;
pos = (284,660);
},
{
name = topleft;
pos = (9,660);
}
);
background = {
hints = (
{
horizontal = 1;
place = (-13,26);
type = Stem;
},
{
horizontal = 1;
place = (238,26);
type = Stem;
},
{
horizontal = 1;
place = (634,26);
type = Stem;
},
{
place = (74,26);
type = Stem;
}
);
shapes = (
{
closed = 1;
nodes = (
(59,0,ls),
(59,-9,o),
(63,-13,o),
(73,-13,cs),
(468,-13,ls),
(476,-13,o),
(481,-9,o),
(481,0,cs),
(481,9,o),
(476,13,o),
(468,13,cs),
(85,13,l),
(85,238,l),
(468,238,ls),
(476,238,o),
(481,243,o),
(481,251,cs),
(481,260,o),
(476,265,o),
(468,265,cs),
(104,265,l),
(477,637,ls),
(480,640,o),
(482,643,o),
(482,646,cs),
(482,648,o),
(481,650,o),
(480,652,cs),
(477,657,o),
(474,660,o),
(468,660,cs),
(73,660,ls),
(63,660,o),
(59,656,o),
(59,647,cs)
);
},
{
closed = 1;
nodes = (
(437,634,l),
(85,283,l),
(85,634,l)
);
}
);
};
layerId = "12AF635E-66FE-4C90-B49C-8787585F2B73";
shapes = (
{
closed = 1;
nodes = (
(486,0,ls),
(494,0,o),
(499,5,o),
(499,13,cs),
(499,20,o),
(494,25,o),
(486,25,cs),
(86,25,l),
(86,635,l),
(450,635,l),
(62,246,l),
(62,247,l),
(469,247,ls),
(476,247,o),
(482,252,o),
(482,259,cs),
(482,267,o),
(476,272,o),
(469,272,cs),
(124,272,l),
(479,628,ls),
(492,641,o),
(483,660,o),
(465,660,cs),
(74,660,ls),
(66,660,o),
(60,654,o),
(60,646,cs),
(60,14,ls),
(60,6,o),
(66,0,o),
(74,0,cs)
);
}
);
width = 550;
},
{
anchors = (
{
name = bottom;
pos = (303,0);
},
{
name = ogonek;
pos = (459,46);
},
{
name = top;
pos = (306,660);
},
{
name = topleft;
pos = (9,660);
}
);
background = {
hints = (
{
horizontal = 1;
place = (-13,26);
type = Stem;
},
{
horizontal = 1;
place = (238,26);
type = Stem;
},
{
horizontal = 1;
place = (634,26);
type = Stem;
},
{
place = (74,26);
type = Stem;
}
);
shapes = (
{
closed = 1;
nodes = (
(106,0,ls),
(106,-9,o),
(111,-13,o),
(120,-13,cs),
(515,-13,ls),
(524,-13,o),
(528,-9,o),
(528,0,cs),
(528,9,o),
(524,13,o),
(515,13,cs),
(133,13,l),
(133,238,l),
(515,238,ls),
(524,238,o),
(528,243,o),
(528,251,cs),
(528,260,o),
(524,265,o),
(515,265,cs),
(151,265,l),
(525,637,ls),
(527,640,o),
(529,643,o),
(529,646,cs),
(529,648,o),
(528,650,o),
(527,652,cs),
(525,657,o),
(520,660,o),
(515,660,cs),
(120,660,ls),
(111,660,o),
(106,656,o),
(106,647,cs)
);
},
{
closed = 1;
nodes = (
(483,634,l),
(133,283,l),
(133,634,l)
);
}
);
};
layerId = m004;
shapes = (
{
closed = 1;
nodes = (
(519,0,ls),
(552,0,o),
(579,27,o),
(579,60,cs),
(579,93,o),
(552,120,o),
(519,120,cs),
(180,120,l),
(180,540,l),
(383,540,l),
(62,215,l),
(62,244,l),
(512,243,ls),
(544,243,o),
(571,270,o),
(571,302,cs),
(571,336,o),
(544,362,o),
(512,363,cs),
(382,365,l),
(549,534,ls),
(600,586,o),
(569,660,o),
(497,660,cs),
(113,660,ls),
(82,660,o),
(60,638,o),
(60,607,cs),
(60,53,ls),
(60,22,o),
(82,0,o),
(113,0,cs)
);
}
);
width = 631;
}
);
note = E;
unicode = 69;
},
{
glyphname = F;
kernLeft = H;
kernRight = F;
lastChange = "2025-01-07 14:49:27 +0000";
layers = (
{
anchors = (
{
name = bottom;
pos = (265,0);
},
{
name = top;
pos = (265,660);
}
);
background = {
hints = (
{
horizontal = 1;
place = (-13,21);
target = up;
type = BottomGhost;
},
{
horizontal = 1;
place = (238,26);
type = Stem;
},
{
horizontal = 1;
place = (634,26);
type = Stem;
},
{
place = (74,26);
type = Stem;
}
);
shapes = (
{
closed = 1;
nodes = (
(59,0,ls),
(59,-9,o),
(63,-13,o),
(72,-13,cs),
(81,-13,o),
(85,-9,o),
(85,0,cs),
(85,238,l),
(468,238,ls),
(476,238,o),
(481,243,o),
(481,251,cs),
(481,260,o),
(476,265,o),
(468,265,cs),
(104,265,l),
(477,637,ls),
(480,640,o),
(482,643,o),
(482,646,cs),
(482,648,o),
(481,650,o),
(480,652,cs),
(477,657,o),
(474,660,o),
(468,660,cs),
(73,660,ls),
(63,660,o),
(59,656,o),
(59,647,cs)
);
},
{
closed = 1;
nodes = (
(437,634,l),
(85,283,l),
(85,634,l)
);
}
);
};
layerId = "12AF635E-66FE-4C90-B49C-8787585F2B73";
shapes = (
{
closed = 1;
nodes = (
(80,-1,o),
(86,4,o),
(86,11,cs),
(86,635,l),
(450,635,l),
(62,246,l),
(62,248,l),
(470,248,ls),
(477,248,o),
(483,254,o),
(483,261,cs),
(483,268,o),
(477,274,o),
(470,274,cs),
(126,274,l),
(479,628,ls),
(492,641,o),
(483,660,o),
(465,660,cs),
(74,660,ls),
(66,660,o),
(60,654,o),
(60,646,cs),
(60,11,ls),
(60,4,o),
(66,-1,o),
(73,-1,cs)
);
}
);
width = 537;
},
{
anchors = (
{
name = bottom;
pos = (308,0);
},
{
name = top;
pos = (308,660);
}
);
background = {
hints = (
{
horizontal = 1;
place = (-13,21);
target = up;
type = BottomGhost;
},
{
horizontal = 1;
place = (238,26);
type = Stem;
},
{
horizontal = 1;
place = (634,26);
type = Stem;
},
{
place = (74,26);
type = Stem;
}
);
shapes = (
{
closed = 1;
nodes = (
(106,0,ls),
(106,-9,o),
(111,-13,o),
(120,-13,cs),
(128,-13,o),
(133,-9,o),
(133,0,cs),
(133,238,l),
(515,238,ls),
(524,238,o),
(528,243,o),
(528,251,cs),
(528,260,o),
(524,265,o),
(515,265,cs),
(151,265,l),
(525,637,ls),
(527,640,o),
(529,643,o),
(529,646,cs),
(529,648,o),
(528,650,o),
(527,652,cs),
(525,657,o),
(520,660,o),
(515,660,cs),
(120,660,ls),
(111,660,o),
(106,656,o),
(106,647,cs)
);
},
{
closed = 1;
nodes = (
(483,634,l),
(133,283,l),
(133,634,l)
);
}
);
};
layerId = m004;
shapes = (
{
closed = 1;
nodes = (
(153,0,o),
(180,27,o),
(180,60,cs),
(180,540,l),
(383,540,l),
(75,232,l),
(75,246,l),
(484,248,ls),
(531,248,o),
(558,268,o),
(558,306,cs),
(558,339,o),
(531,367,o),
(498,367,cs),
(379,367,l),
(547,534,ls),
(598,585,o),
(566,660,o),
(494,660,cs),
(113,660,ls),
(82,660,o),
(60,638,o),
(60,607,cs),
(60,60,ls),
(60,27,o),
(87,0,o),
(120,0,cs)
);
}
);
width = 623;
}
);
note = F;
unicode = 70;
},
{
glyphname = G;
kernLeft = O;
kernRight = G;
lastChange = "2025-01-07 14:49:27 +0000";
layers = (
{
anchors = (
{
name = bottom;
pos = (386,0);
},
{
name = top;
pos = (386,660);
}
);
background = {
hints = (
{
horizontal = 1;
place = (-14,26);
type = Stem;
},
{
horizontal = 1;
place = (310,26);
type = Stem;
},
{
horizontal = 1;
place = (636,26);
type = Stem;
},
{
place = (54,26);
type = Stem;
},
{
place = (696,26);
type = Stem;
}
);
shapes = (
{
closed = 1;
nodes = (
(679,-10,ls),
(686,-16,o),
(692,-16,o),
(697,-9,cs),
(704,-3,o),
(703,4,o),
(697,10,cs),
(622,83,l),
(636,96,o),
(648,111,o),
(659,127,cs),
(701,185,o),
(723,251,o),
(723,323,cs),
(723,331,o),
(717,337,o),
(709,337,cs),
(354,337,ls),
(348,337,o),
(345,334,o),
(342,329,cs),
(340,323,o),
(341,318,o),
(345,315,c),
(584,83,l),
(528,36,o),
(465,12,o),
(393,12,cs),
(336,12,o),
(284,26,o),
(236,54,cs),
(188,82,o),
(150,120,o),
(122,167,cs),
(94,215,o),
(81,267,o),
(81,323,cs),
(81,381,o),
(94,432,o),
(122,480,cs),
(150,528,o),
(188,566,o),
(236,593,cs),
(283,621,o),
(336,636,o),
(393,636,cs),
(432,636,o),
(469,628,o),
(505,614,cs),
(541,599,o),
(572,581,o),
(599,557,cs),
(605,551,o),
(611,551,o),
(617,558,cs),
(623,564,o),
(622,570,o),
(616,577,cs),
(587,603,o),
(553,624,o),
(514,639,cs),
(476,654,o),
(435,662,o),
(393,662,cs),
(331,662,o),
(275,647,o),
(222,616,cs),
(171,586,o),
(130,546,o),
(99,494,cs),
(69,441,o),
(54,385,o),
(54,324,cs),
(54,263,o),
(69,206,o),
(99,154,cs),
(130,102,o),
(171,62,o),
(222,31,cs),
(275,1,o),
(331,-14,o),
(393,-14,cs),
(473,-14,o),
(542,12,o),
(603,64,c)
);
},
{
closed = 1;
nodes = (
(387,310,l),
(696,310,l),
(694,249,o),
(674,193,o),
(638,142,cs),
(627,127,o),
(615,113,o),
(603,101,c)
);
}
);
};
layerId = m004;
shapes = (
{
closed = 1;
nodes = (
(574,-13,o),
(727,137,o),
(730,324,cs),
(730,356,o),
(704,385,o),
(669,385,cs),
(636,385,o),
(609,359,o),
(609,326,cs),
(607,188,o),
(525,107,o),
(386,107,cs),
(246,107,o),
(163,189,o),
(163,330,cs),
(163,469,o),
(246,553,o),
(386,553,cs),
(456,553,o),
(498,534,o),
(544,487,cs),
(555,476,o),
(570,469,o),
(586,469,cs),
(621,469,o),
(647,496,o),
(647,529,cs),
(647,546,o),
(641,561,o),
(629,571,cs),
(568,634,o),
(482,673,o),
(386,673,cs),
(196,673,o),
(43,519,o),
(43,330,cs),
(43,140,o),
(196,-13,o),
(386,-13,cs)
);
},
{
closed = 1;
nodes = (
(672,-23,o),
(699,4,o),
(699,37,cs),
(699,54,o),
(692,71,o),
(679,82,cs),
(474,265,l),
(669,265,ls),
(702,265,o),
(730,293,o),
(730,325,cs),
(730,359,o),
(702,385,o),
(669,385,cs),
(361,385,ls),
(284,385,o),
(252,303,o),
(310,251,cs),
(599,-8,ls),
(609,-18,o),
(623,-23,o),
(639,-23,cs)
);
}
);
width = 772;
},
{
anchors = (
{
name = bottom;
pos = (386,0);
},
{
name = top;
pos = (386,660);
}
);
background = {
hints = (
{
horizontal = 1;
place = (-14,26);
type = Stem;
},
{
horizontal = 1;
place = (310,26);
type = Stem;
},
{
horizontal = 1;
place = (636,26);
type = Stem;
},
{
place = (54,26);
type = Stem;
},
{
place = (696,26);
type = Stem;
}
);
shapes = (
{
closed = 1;
nodes = (
(679,-10,ls),
(686,-16,o),
(692,-16,o),
(697,-9,cs),
(704,-3,o),
(703,4,o),
(697,10,cs),
(622,83,l),
(636,96,o),
(648,111,o),
(659,127,cs),
(701,185,o),
(723,251,o),
(723,323,cs),
(723,331,o),
(717,337,o),
(709,337,cs),
(354,337,ls),
(348,337,o),
(345,334,o),
(342,329,cs),
(340,323,o),
(341,318,o),
(345,315,c),
(584,83,l),
(528,36,o),
(465,12,o),
(393,12,cs),
(336,12,o),
(284,26,o),
(236,54,cs),
(188,82,o),
(150,120,o),
(122,167,cs),
(94,215,o),
(81,267,o),
(81,323,cs),
(81,381,o),
(94,432,o),
(122,480,cs),
(150,528,o),
(188,566,o),
(236,593,cs),
(283,621,o),
(336,636,o),
(393,636,cs),
(432,636,o),
(469,628,o),
(505,614,cs),
(541,599,o),
(572,581,o),
(599,557,cs),
(605,551,o),
(611,551,o),
(617,558,cs),
(623,564,o),
(622,570,o),
(616,577,cs),
(587,603,o),
(553,624,o),
(514,639,cs),
(476,654,o),
(435,662,o),
(393,662,cs),
(331,662,o),
(275,647,o),
(222,616,cs),
(171,586,o),
(130,546,o),
(99,494,cs),
(69,441,o),
(54,385,o),
(54,324,cs),
(54,263,o),
(69,206,o),
(99,154,cs),
(130,102,o),
(171,62,o),
(222,31,cs),
(275,1,o),
(331,-14,o),
(393,-14,cs),
(473,-14,o),
(542,12,o),
(603,64,c)
);
},
{
closed = 1;
nodes = (
(387,310,l),
(696,310,l),
(694,249,o),
(674,193,o),
(638,142,cs),
(627,127,o),
(615,113,o),
(603,101,c)
);
}
);
};
layerId = "12AF635E-66FE-4C90-B49C-8787585F2B73";
name = Light;
shapes = (
{
closed = 1;
nodes = (
(570,-13,o),
(720,130,o),
(729,312,cs),
(730,320,o),
(723,326,o),
(716,326,cs),
(709,326,o),
(703,321,o),
(703,314,cs),
(695,142,o),
(560,13,o),
(386,13,cs),
(207,13,o),
(69,150,o),
(69,330,cs),
(69,508,o),
(207,647,o),
(386,647,cs),
(472,647,o),
(546,615,o),
(604,561,cs),
(606,559,o),
(608,557,o),
(612,557,cs),
(620,557,o),
(625,563,o),
(625,570,cs),
(625,574,o),
(623,578,o),
(621,580,cs),
(560,637,o),
(477,673,o),
(386,673,cs),
(196,673,o),
(43,519,o),
(43,330,cs),
(43,140,o),
(196,-13,o),
(386,-13,cs)
);
},
{
closed = 1;
nodes = (
(686,5,o),
(692,11,o),
(692,18,cs),
(692,22,o),
(690,25,o),
(687,28,cs),
(416,300,l),
(716,300,ls),
(723,300,o),
(729,306,o),
(729,313,cs),
(729,320,o),
(723,326,o),
(716,326,cs),
(400,326,ls),
(381,326,o),
(373,307,o),
(386,293,cs),
(670,10,ls),
(672,7,o),
(675,5,o),
(679,5,cs)
);
}
);
width = 772;
}
);
note = G;
unicode = 71;
},
{
glyphname = H;
kernLeft = H;
kernRight = H;
lastChange = "2025-01-07 14:49:27 +0000";
layers = (
{
anchors = (
{
name = bottom;
pos = (294,0);
},
{
name = center;
pos = (294,330);
},
{
name = top;
pos = (294,660);
},
{
name = topleft;
pos = (9,660);
}
);
background = {
hints = (
{
horizontal = 1;
place = (-13,21);
target = up;
type = BottomGhost;
},
{
horizontal = 1;
place = (240,26);
type = Stem;
},
{
place = (105,26);
type = Stem;
},
{
place = (518,26);
type = Stem;
}
);
shapes = (
{
closed = 1;
nodes = (
(91,0,ls),
(91,-7,o),
(96,-13,o),
(103,-13,cs),
(110,-13,o),
(116,-7,o),
(116,0,cs),
(116,240,l),
(503,240,l),
(503,0,ls),
(503,-9,o),
(507,-13,o),
(516,-13,cs),
(526,-13,o),
(530,-9,o),
(530,0,cs),
(530,647,ls),
(530,656,o),
(526,660,o),
(516,660,cs),
(507,660,o),
(503,656,o),
(503,647,cs),
(503,286,l),
(320,471,l),
(314,476,o),
(308,476,o),
(301,471,cs),
(116,286,l),
(116,647,l),
(117,665,o),
(90,664,o),
(91,647,c)
);
},
{
closed = 1;
nodes = (
(484,266,l),
(134,266,l),
(311,443,l)
);
}
);
};
layerId = "12AF635E-66FE-4C90-B49C-8787585F2B73";
shapes = (
{
closed = 1;
nodes = (
(518,241,l),
(518,270,l),
(304,484,ls),
(298,490,o),
(291,490,o),
(285,484,cs),
(69,268,l),
(69,241,l)
);
},
{
closed = 1;
nodes = (
(80,-1,o),
(86,4,o),
(86,11,cs),
(86,649,ls),
(86,656,o),
(80,661,o),
(73,661,cs),
(66,661,o),
(60,656,o),
(60,649,cs),
(60,11,ls),
(60,4,o),
(66,-1,o),
(73,-1,cs)
);
},
{
closed = 1;
nodes = (
(294,458,l),
(484,267,l),
(104,267,l)
);
},
{
closed = 1;
nodes = (
(523,-1,o),
(528,4,o),
(528,11,cs),
(528,649,ls),
(528,656,o),
(523,661,o),
(515,661,cs),
(508,661,o),
(503,656,o),
(503,649,cs),
(503,11,ls),
(503,4,o),
(508,-1,o),
(515,-1,cs)
);
}
);
width = 588;
},
{
anchors = (
{
name = bottom;
pos = (342,0);
},
{
name = center;
pos = (342,330);
},
{
name = top;
pos = (342,660);
},
{
name = topleft;
pos = (9,660);
}
);
background = {
hints = (
{
horizontal = 1;
place = (-13,21);
target = up;
type = BottomGhost;
},
{
horizontal = 1;
place = (240,26);
type = Stem;
},
{
place = (105,26);
type = Stem;
},
{
place = (518,26);
type = Stem;
}
);
shapes = (
{
closed = 1;
nodes = (
(137,0,ls),
(137,-7,o),
(143,-13,o),
(150,-13,cs),
(157,-13,o),
(163,-7,o),
(163,0,cs),
(163,240,l),
(550,240,l),
(550,0,ls),
(550,-9,o),
(555,-13,o),
(563,-13,cs),
(572,-13,o),
(577,-9,o),
(577,0,cs),
(577,647,ls),
(577,656,o),
(572,660,o),
(563,660,cs),
(555,660,o),
(550,656,o),
(550,647,cs),
(550,286,l),
(367,471,l),
(361,476,o),
(354,476,o),
(349,471,cs),
(163,286,l),
(163,647,l),
(164,665,o),
(136,664,o),
(137,647,c)
);
},
{
closed = 1;
nodes = (
(532,266,l),
(182,266,l),
(358,443,l)
);
}
);
};
layerId = m004;
shapes = (
{
closed = 1;
nodes = (
(581,194,l),
(581,321,l),
(379,523,ls),
(358,545,o),
(326,545,o),
(304,523,cs),
(102,321,l),
(102,194,l)
);
},
{
closed = 1;
nodes = (
(153,0,o),
(180,27,o),
(180,60,cs),
(180,600,ls),
(180,633,o),
(153,660,o),
(120,660,cs),
(87,660,o),
(60,633,o),
(60,600,cs),
(60,60,ls),
(60,27,o),
(87,0,o),
(120,0,cs)
);
},
{
closed = 1;
nodes = (
(342,390,l),
(418,314,l),
(265,314,l)
);
},
{
closed = 1;
nodes = (
(596,0,o),
(622,27,o),
(622,60,cs),
(622,600,ls),
(622,633,o),
(596,660,o),
(563,660,cs),
(530,660,o),
(503,633,o),
(503,600,cs),
(503,60,ls),
(503,27,o),
(530,0,o),
(563,0,cs)
);
}
);
width = 683;
}
);
note = H;
unicode = 72;
},
{
glyphname = Hbar;
lastChange = "2025-01-07 14:49:27 +0000";
layers = (
{
layerId = "12AF635E-66FE-4C90-B49C-8787585F2B73";
shapes = (
{
closed = 1;
nodes = (
(582,466,ls),
(589,466,o),
(594,472,o),
(594,479,cs),
(594,486,o),
(589,492,o),
(582,492,cs),
(18,492,ls),
(10,492,o),
(4,486,o),
(4,479,cs),
(4,472,o),
(10,466,o),
(18,466,cs)
);
},
{
pos = (5,0);
ref = H;
}
);
width = 599;
},
{
layerId = m004;
shapes = (
{
closed = 1;
nodes = (
(723,428,ls),
(756,428,o),
(783,455,o),
(783,489,cs),
(783,521,o),
(756,548,o),
(723,548,cs),
(64,548,ls),
(32,548,o),
(4,521,o),
(4,489,cs),
(4,455,o),
(32,428,o),
(64,428,cs)
);
},
{
pos = (53,0);
ref = H;
}
);
width = 788;
}
);
unicode = 294;
},
{
glyphname = I;
kernLeft = I;
kernRight = I;
lastChange = "2025-01-07 14:49:27 +0000";
layers = (
{
anchors = (
{
name = bottom;
pos = (178,0);
},
{
name = ogonek;
pos = (266,8);
},
{
name = top;
pos = (178,660);
},
{
name = topleft;
pos = (11,660);
}
);
background = {
hints = (
{
horizontal = 1;
place = (-13,26);
type = Stem;
},
{
horizontal = 1;
place = (634,26);
type = Stem;
},
{
place = (161,26);
type = Stem;
}
);
shapes = (
{
closed = 1;
nodes = (
(164,13,l),
(74,13,ls),
(65,13,o),
(61,9,o),
(61,0,cs),
(61,-9,o),
(65,-13,o),
(74,-13,cs),
(280,-13,ls),
(289,-13,o),
(293,-9,o),
(293,0,cs),
(293,9,o),
(289,13,o),
(280,13,cs),
(190,13,l),
(190,634,l),
(280,634,ls),
(289,634,o),
(293,638,o),
(293,647,cs),
(293,656,o),
(289,660,o),
(280,660,cs),
(74,660,ls),
(65,660,o),
(61,656,o),
(61,647,cs),
(61,638,o),
(65,634,o),
(74,634,cs),
(164,634,l)
);
}
);
};
layerId = "12AF635E-66FE-4C90-B49C-8787585F2B73";
shapes = (
{
closed = 1;
nodes = (
(185,11,o),
(190,18,o),
(190,25,cs),
(190,636,ls),
(190,643,o),
(185,649,o),
(178,649,cs),
(170,649,o),
(164,643,o),
(164,636,cs),
(164,25,ls),
(164,18,o),
(170,11,o),
(178,11,cs)
);
},
{
closed = 1;
nodes = (
(282,0,ls),
(289,0,o),
(294,5,o),
(294,13,cs),
(294,20,o),
(289,25,o),
(282,25,cs),
(73,25,ls),
(66,25,o),
(60,20,o),
(60,13,cs),
(60,5,o),
(66,0,o),
(73,0,cs)
);
},
{
closed = 1;
nodes = (
(282,635,ls),
(289,635,o),
(294,640,o),
(294,647,cs),
(294,655,o),
(289,660,o),
(282,660,cs),
(73,660,ls),
(66,660,o),
(60,655,o),
(60,647,cs),
(60,640,o),
(66,635,o),
(73,635,cs)
);
}
);
width = 355;
},
{
anchors = (
{
name = bottom;
pos = (236,0);
},
{
name = ogonek;
pos = (335,52);
},
{
name = top;
pos = (236,660);
},
{
name = topleft;
pos = (70,660);
}
);
background = {
hints = (
{
horizontal = 1;
place = (-13,26);
type = Stem;
},
{
horizontal = 1;
place = (634,26);
type = Stem;
},
{
place = (161,26);
type = Stem;
}
);
shapes = (
{
closed = 1;
nodes = (
(222,13,l),
(133,13,ls),
(124,13,o),
(120,9,o),
(120,0,cs),
(120,-9,o),
(124,-13,o),
(133,-13,cs),
(338,-13,ls),
(348,-13,o),
(352,-9,o),
(352,0,cs),
(352,9,o),
(348,13,o),
(338,13,cs),
(249,13,l),
(249,634,l),
(338,634,ls),
(348,634,o),
(352,638,o),
(352,647,cs),
(352,656,o),
(348,660,o),
(338,660,cs),
(133,660,ls),
(124,660,o),
(120,656,o),
(120,647,cs),
(120,638,o),
(124,634,o),
(133,634,cs),
(222,634,l)
);
}
);
};
layerId = m004;
shapes = (
{
closed = 1;
nodes = (
(269,0,o),
(296,27,o),
(296,60,cs),
(296,600,ls),
(296,633,o),
(269,660,o),
(236,660,cs),
(203,660,o),
(176,633,o),
(176,600,cs),
(176,60,ls),
(176,27,o),
(203,0,o),
(236,0,cs)
);
},
{
closed = 1;
nodes = (
(352,0,ls),
(385,0,o),
(412,27,o),
(412,60,cs),
(412,93,o),
(385,120,o),
(352,120,cs),
(120,120,ls),
(87,120,o),
(60,93,o),
(60,60,cs),
(60,27,o),
(87,0,o),
(120,0,cs)
);
},
{
closed = 1;
nodes = (
(352,540,ls),
(385,540,o),
(412,567,o),
(412,600,cs),
(412,633,o),
(385,660,o),
(352,660,cs),
(120,660,ls),
(87,660,o),
(60,633,o),
(60,600,cs),
(60,567,o),
(87,540,o),
(120,540,cs)
);
}
);
width = 473;
}
);
note = I;
unicode = 73;
},
{
glyphname = J;
kernLeft = J;
kernRight = H;
lastChange = "2025-01-07 14:49:27 +0000";
layers = (
{
anchors = (
{
name = bottom;
pos = (222,0);
},
{
name = top;
pos = (240,660);
}
);
background = {
hints = (
{
horizontal = 1;
place = (-13,26);
type = Stem;
},
{
horizontal = 1;
place = (634,26);
type = Stem;
},
{
place = (94,26);
type = Stem;
},
{
place = (419,26);
type = Stem;
}
);
shapes = (
{
closed = 1;
nodes = (
(407,647,ls),
(408,656,o),
(403,660,o),
(395,660,cs),
(70,660,ls),
(64,660,o),
(60,657,o),
(57,651,cs),
(55,646,o),
(56,641,o),
(60,637,cs),
(381,317,l),
(381,162,ls),
(381,115,o),
(367,78,o),
(338,53,cs),
(310,26,o),
(275,13,o),
(232,13,cs),
(191,13,o),
(156,28,o),
(127,56,cs),
(97,86,o),
(83,121,o),
(83,162,cs),
(83,179,o),
(55,179,o),
(55,162,cs),
(55,113,o),
(73,73,o),
(107,38,cs),
(142,4,o),
(183,-13,o),
(232,-13,cs),
(282,-13,o),
(324,3,o),
(357,34,cs),
(390,65,o),
(407,108,o),
(407,162,cs)
);
},
{
closed = 1;
nodes = (
(381,354,l),
(102,634,l),
(381,634,l)
);
}
);
};
layerId = "12AF635E-66FE-4C90-B49C-8787585F2B73";
shapes = (
{
closed = 1;
nodes = (
(399,143,o),
(404,149,o),
(404,156,cs),
(404,646,ls),
(404,654,o),
(399,660,o),
(391,660,cs),
(75,660,ls),
(56,660,o),
(47,641,o),
(61,628,cs),
(381,308,ls),
(384,305,o),
(387,303,o),
(390,303,cs),
(397,303,o),
(403,309,o),
(403,316,cs),
(403,320,o),
(403,323,o),
(400,325,cs),
(91,635,l),
(379,635,l),
(379,156,ls),
(379,148,o),
(385,143,o),
(392,143,cs)
);
},
{
closed = 1;
nodes = (
(319,-13,o),
(398,62,o),
(404,156,cs),
(405,163,o),
(399,170,o),
(392,170,cs),
(385,170,o),
(380,165,o),
(379,158,cs),
(374,76,o),
(308,13,o),
(223,13,cs),
(141,13,o),
(74,76,o),
(69,157,cs),
(69,164,o),
(62,170,o),
(55,170,cs),
(48,170,o),
(42,163,o),
(43,156,cs),
(49,62,o),
(128,-13,o),
(223,-13,cs)
);
}
);
width = 465;
},
{
anchors = (
{
name = bottom;
pos = (271,0);
},
{
name = top;
pos = (287,660);
}
);
background = {
hints = (
{
horizontal = 1;
place = (-13,26);
type = Stem;
},
{
horizontal = 1;
place = (634,26);
type = Stem;
},
{
place = (94,26);
type = Stem;
},
{
place = (419,26);
type = Stem;
}
);
shapes = (
{
closed = 1;
nodes = (
(455,647,ls),
(455,656,o),
(451,660,o),
(442,660,cs),
(118,660,ls),
(112,660,o),
(107,657,o),
(105,651,cs),
(103,646,o),
(104,641,o),
(108,637,cs),
(429,317,l),
(429,162,ls),
(429,115,o),
(415,78,o),
(386,53,cs),
(358,26,o),
(323,13,o),
(280,13,cs),
(238,13,o),
(203,28,o),
(174,56,cs),
(145,86,o),
(130,121,o),
(130,162,cs),
(130,179,o),
(104,179,o),
(104,162,cs),
(104,113,o),
(120,73,o),
(155,38,cs),
(189,4,o),
(231,-13,o),
(280,-13,cs),
(330,-13,o),
(372,3,o),
(404,34,cs),
(439,65,o),
(455,108,o),
(455,162,cs)
);
},
{
closed = 1;
nodes = (
(429,354,l),
(149,634,l),
(429,634,l)
);
}
);
};
layerId = m004;
shapes = (
{
closed = 1;
nodes = (
(473,156,o),
(499,183,o),
(499,216,cs),
(499,607,ls),
(499,638,o),
(477,660,o),
(447,660,cs),
(142,660,ls),
(69,660,o),
(37,585,o),
(89,534,cs),
(389,233,ls),
(400,222,o),
(415,215,o),
(432,215,cs),
(464,215,o),
(491,243,o),
(491,275,cs),
(491,293,o),
(484,308,o),
(474,318,cs),
(252,540,l),
(380,540,l),
(380,216,ls),
(380,183,o),
(406,156,o),
(440,156,cs)
);
},
{
closed = 1;
nodes = (
(397,-13,o),
(499,90,o),
(499,215,cs),
(499,249,o),
(473,275,o),
(440,275,cs),
(406,275,o),
(380,249,o),
(380,215,cs),
(380,148,o),
(339,107,o),
(272,107,cs),
(204,107,o),
(163,148,o),
(163,215,cs),
(163,249,o),
(136,275,o),
(103,275,cs),
(70,275,o),
(43,249,o),
(43,215,cs),
(43,90,o),
(146,-13,o),
(272,-13,cs)
);
}
);
width = 560;
}
);
note = J;
unicode = 74;
},
{
glyphname = K;
kernLeft = H;
kernRight = K;
lastChange = "2025-01-07 14:49:27 +0000";
layers = (
{
anchors = (
{
name = bottom;
pos = (321,0);
},
{
name = top;
pos = (321,660);
}
);
background = {
hints = (
{
horizontal = 1;
place = (-13,21);
target = up;
type = BottomGhost;
},
{
place = (119,26);
type = Stem;
},
{
horizontal = 1;
place = (-14,21);
target = up;
type = BottomGhost;
}
);
shapes = (
{
closed = 1;
nodes = (
(91,0,ls),
(91,-9,o),
(95,-13,o),
(105,-13,cs),
(113,-13,o),
(118,-9,o),
(118,0,cs),
(118,187,l),
(288,386,l),
(590,-8,ls),
(592,-11,o),
(596,-14,o),
(599,-14,cs),
(602,-14,o),
(605,-13,o),
(608,-11,cs),
(612,-8,o),
(614,-4,o),
(614,-1,cs),
(614,2,o),
(613,4,o),
(611,8,cs),
(306,406,l),
(505,638,ls),
(511,645,o),
(510,651,o),
(503,657,cs),
(500,659,o),
(497,661,o),
(494,661,cs),
(491,661,o),
(488,659,o),
(485,656,cs),
(289,428,l),
(115,655,ls),
(112,659,o),
(109,660,o),
(105,660,cs),
(104,660,o),
(102,660,o),
(100,659,cs),
(94,657,o),
(91,653,o),
(91,647,cs)
);
},
{
closed = 1;
nodes = (
(272,407,l),
(118,228,l),
(118,608,l)
);
}
);
};
layerId = "12AF635E-66FE-4C90-B49C-8787585F2B73";
shapes = (
{
closed = 1;
nodes = (
(80,0,o),
(86,5,o),
(86,13,cs),
(86,624,l),
(592,4,ls),
(594,2,o),
(598,0,o),
(602,0,cs),
(609,0,o),
(615,5,o),
(615,13,cs),
(615,16,o),
(614,18,o),
(612,21,cs),
(97,651,ls),
(91,657,o),
(86,660,o),
(80,660,cs),
(69,660,o),
(60,652,o),
(60,639,cs),
(60,13,ls),
(60,5,o),
(66,0,o),
(73,0,cs)
);
},
{
closed = 1;
nodes = (
(77,185,o),
(81,186,o),
(83,188,cs),
(485,639,ls),
(488,641,o),
(489,643,o),
(489,647,cs),
(489,654,o),
(483,660,o),
(476,660,cs),
(473,660,o),
(469,659,o),
(467,657,cs),
(64,207,ls),
(62,204,o),
(62,201,o),
(62,198,cs),
(62,191,o),
(67,185,o),
(74,185,cs)
);
}
);
width = 645;
},
{
anchors = (
{
name = bottom;
pos = (381,0);
},
{
name = top;
pos = (381,660);
}
);
background = {
hints = (
{
horizontal = 1;
place = (-13,21);
target = up;
type = BottomGhost;
},
{
place = (119,26);
type = Stem;
},
{
horizontal = 1;
place = (-14,21);
target = up;
type = BottomGhost;
}
);
shapes = (
{
closed = 1;
nodes = (
(151,0,ls),
(151,-9,o),
(156,-13,o),
(164,-13,cs),
(173,-13,o),
(178,-9,o),
(178,0,cs),
(178,187,l),
(348,386,l),
(650,-8,ls),
(653,-11,o),
(656,-14,o),
(659,-14,cs),
(662,-14,o),
(665,-13,o),
(668,-11,cs),
(672,-8,o),
(674,-4,o),
(674,-1,cs),
(674,2,o),
(673,4,o),
(671,8,cs),
(366,406,l),
(564,638,ls),
(570,645,o),
(570,651,o),
(563,657,cs),
(560,659,o),
(557,661,o),
(554,661,cs),
(551,661,o),
(548,659,o),
(545,656,cs),
(349,428,l),
(175,655,ls),
(172,659,o),
(169,660,o),
(165,660,cs),
(163,660,o),
(162,660,o),
(160,659,cs),
(154,657,o),
(151,653,o),
(151,647,cs)
);
},
{
closed = 1;
nodes = (
(331,407,l),
(178,228,l),
(178,608,l)
);
}
);
};
layerId = m004;
shapes = (
{
closed = 1;
nodes = (
(153,0,o),
(180,27,o),
(180,60,cs),
(180,461,l),
(542,21,ls),
(553,8,o),
(570,0,o),
(588,0,cs),
(621,0,o),
(648,26,o),
(648,60,cs),
(648,74,o),
(643,88,o),
(635,98,cs),
(201,627,ls),
(183,650,o),
(159,660,o),
(136,660,cs),
(97,660,o),
(60,628,o),
(60,577,cs),
(60,60,ls),
(60,27,o),
(87,0,o),
(120,0,cs)
);
},
{
closed = 1;
nodes = (
(149,120,o),
(165,127,o),
(177,140,cs),
(557,560,ls),
(567,570,o),
(573,585,o),
(573,600,cs),
(573,633,o),
(546,660,o),
(512,660,cs),
(495,660,o),
(479,652,o),
(469,641,cs),
(88,220,ls),
(78,209,o),
(72,195,o),
(72,180,cs),
(72,147,o),
(99,120,o),
(132,120,cs)
);
}
);
width = 678;
}
);
note = K;
unicode = 75;
},
{
glyphname = L;
kernLeft = H;
kernRight = L;
lastChange = "2025-01-07 14:49:27 +0000";
layers = (
{
anchors = (
{
name = bottom;
pos = (265,0);
},
{
name = center;
pos = (222,330);
},
{
name = top;
pos = (222,660);
},
{
name = topright;
pos = (481,660);
}
);
background = {
hints = (
{
horizontal = 1;
place = (-13,26);
type = Stem;
},
{
place = (119,26);
type = Stem;
}
);
shapes = (
{
closed = 1;
nodes = (
(72,0,ls),
(72,-9,o),
(76,-13,o),
(85,-13,cs),
(394,-13,l),
(400,-13,o),
(404,-11,o),
(406,-4,cs),
(407,-3,o),
(408,-1,o),
(408,1,cs),
(408,4,o),
(406,7,o),
(403,10,cs),
(98,314,l),
(98,647,ls),
(98,656,o),
(94,660,o),
(85,660,cs),
(76,660,o),
(72,656,o),
(72,647,cs)
);
},
{
closed = 1;
nodes = (
(362,13,l),
(98,13,l),
(98,277,l)
);
}
);
};
layerId = "12AF635E-66FE-4C90-B49C-8787585F2B73";
shapes = (
{
closed = 1;
nodes = (
(450,0,ls),
(469,0,o),
(477,19,o),
(464,33,cs),
(85,410,ls),
(83,412,o),
(80,413,o),
(76,413,cs),
(69,413,o),
(63,407,o),
(63,401,cs),
(63,397,o),
(65,394,o),
(68,391,cs),
(435,25,l),
(86,25,l),
(86,647,ls),
(86,655,o),
(80,660,o),
(73,660,cs),
(66,660,o),
(60,655,o),
(60,647,cs),
(60,14,ls),
(60,6,o),
(66,0,o),
(74,0,cs)
);
}
);
width = 488;
},
{
anchors = (
{
name = bottom;
pos = (281,0);
},
{
name = center;
pos = (281,330);
},
{
name = top;
pos = (281,660);
},
{
name = topright;
pos = (541,660);
}
);
background = {
hints = (
{
horizontal = 1;
place = (-13,26);
type = Stem;
},
{
place = (119,26);
type = Stem;
}
);
shapes = (
{
closed = 1;
nodes = (
(131,0,ls),
(131,-9,o),
(135,-13,o),
(145,-13,cs),
(454,-13,l),
(459,-13,o),
(463,-11,o),
(466,-4,cs),
(467,-3,o),
(467,-1,o),
(467,1,cs),
(467,4,o),
(466,7,o),
(463,10,cs),
(158,314,l),
(158,647,ls),
(158,656,o),
(154,660,o),
(145,660,cs),
(135,660,o),
(131,656,o),
(131,647,cs)
);
},
{
closed = 1;
nodes = (
(421,13,l),
(158,13,l),
(158,277,l)
);
}
);
};
layerId = m004;
name = Bold;
shapes = (
{
closed = 1;
nodes = (
(448,0,ls),
(521,0,o),
(553,75,o),
(501,127,cs),
(180,447,ls),
(170,458,o),
(155,465,o),
(138,465,cs),
(105,465,o),
(77,439,o),
(77,405,cs),
(77,389,o),
(84,374,o),
(95,363,cs),
(338,120,l),
(180,120,l),
(180,600,ls),
(180,633,o),
(153,660,o),
(120,660,cs),
(87,660,o),
(60,633,o),
(60,600,cs),
(60,53,ls),
(60,22,o),
(82,0,o),
(113,0,cs)
);
}
);
width = 544;
}
);
note = L;
unicode = 76;
},
{
glyphname = Lslash;
kernRight = L;
lastChange = "2025-01-07 14:49:27 +0000";
layers = (
{
layerId = "12AF635E-66FE-4C90-B49C-8787585F2B73";
shapes = (
{
closed = 1;
nodes = (
(49,360,o),
(51,360,o),
(52,361,cs),
(366,468,ls),
(370,469,o),
(374,474,o),
(374,479,cs),
(374,488,o),
(367,493,o),
(361,493,cs),
(360,493,o),
(358,492,o),
(357,492,cs),
(43,385,ls),
(38,384,o),
(35,379,o),
(35,373,cs),
(35,366,o),
(41,360,o),
(47,360,cs)
);
},
{
ref = L;
}
);
width = 536;
},
{
layerId = m004;
shapes = (
{
closed = 1;
nodes = (
(20,292,o),
(27,293,o),
(33,294,cs),
(383,414,ls),
(407,422,o),
(424,444,o),
(424,470,cs),
(424,504,o),
(397,531,o),
(364,531,cs),
(357,531,o),
(351,530,o),
(345,527,cs),
(-5,409,ls),
(-29,401,o),
(-47,378,o),
(-47,352,cs),
(-47,318,o),
(-19,292,o),
(14,292,cs)
);
},
{
ref = L;
}
);
width = 536;
}
);
unicode = 321;
},
{
glyphname = M;
kernLeft = H;
kernRight = H;
lastChange = "2025-01-07 14:49:27 +0000";
layers = (
{
anchors = (
{
name = bottom;
pos = (334,0);
},
{
name = top;
pos = (334,660);
}
);
background = {
hints = (
{
horizontal = 1;
place = (-13,21);
target = up;
type = BottomGhost;
},
{
place = (84,26);
type = Stem;
},
{
place = (621,26);
type = Stem;
}
);
shapes = (
{
closed = 1;
nodes = (
(57,0,ls),
(57,-7,o),
(63,-13,o),
(70,-13,cs),
(77,-13,o),
(84,-7,o),
(84,0,cs),
(84,186,l),
(338,403,l),
(593,186,l),
(593,0,ls),
(593,-7,o),
(599,-13,o),
(606,-13,cs),
(614,-13,o),
(620,-7,o),
(620,0,cs),
(620,647,ls),
(620,653,o),
(617,657,o),
(612,659,cs),
(609,660,o),
(607,660,o),
(606,660,cs),
(603,660,o),
(600,659,o),
(598,657,cs),
(338,437,l),
(79,657,ls),
(76,659,o),
(73,660,o),
(70,660,cs),
(68,660,o),
(66,660,o),
(64,659,cs),
(60,657,o),
(57,652,o),
(57,647,cs)
);
},
{
closed = 1;
nodes = (
(318,420,l),
(84,221,l),
(84,619,l)
);
},
{
closed = 1;
nodes = (
(593,221,l),
(359,420,l),
(593,619,l)
);
}
);
};
layerId = "12AF635E-66FE-4C90-B49C-8787585F2B73";
shapes = (
{
closed = 1;
nodes = (
(603,0,o),
(608,5,o),
(608,13,cs),
(608,641,ls),
(608,652,o),
(600,660,o),
(591,660,cs),
(586,660,o),
(583,659,o),
(578,655,cs),
(68,218,ls),
(65,215,o),
(63,212,o),
(63,208,cs),
(63,201,o),
(69,195,o),
(76,195,cs),
(79,195,o),
(83,196,o),
(85,199,cs),
(582,625,l),
(582,13,ls),
(582,5,o),
(587,0,o),
(595,0,cs)
);
},
{
closed = 1;
nodes = (
(80,0,o),
(86,5,o),
(86,13,cs),
(86,625,l),
(583,199,l),
(585,197,o),
(588,195,o),
(592,195,cs),
(599,195,o),
(605,201,o),
(605,208,cs),
(605,212,o),
(603,215,o),
(600,218,cs),
(91,655,ls),
(86,659,o),
(82,660,o),
(77,660,cs),
(69,660,o),
(60,652,o),
(60,641,cs),
(60,13,ls),
(60,5,o),
(66,0,o),
(73,0,cs)
);
}
);
width = 668;
},
{
anchors = (
{
name = bottom;
pos = (381,0);
},
{
name = top;
pos = (381,660);
}
);
background = {
hints = (
{
horizontal = 1;
place = (-13,21);
target = up;
type = BottomGhost;
},
{
place = (84,26);
type = Stem;
},
{
place = (621,26);
type = Stem;
}
);
shapes = (
{
closed = 1;
nodes = (
(91,0,ls),
(91,-7,o),
(98,-13,o),
(105,-13,cs),
(112,-13,o),
(118,-7,o),
(118,0,cs),
(118,186,l),
(373,403,l),
(628,186,l),
(628,0,ls),
(628,-7,o),
(634,-13,o),
(641,-13,cs),
(648,-13,o),
(654,-7,o),
(654,0,cs),
(654,647,ls),
(654,653,o),
(651,657,o),
(646,659,cs),
(643,660,o),
(642,660,o),
(641,660,cs),
(637,660,o),
(635,659,o),
(632,657,cs),
(373,437,l),
(113,657,ls),
(110,659,o),
(107,660,o),
(105,660,cs),
(102,660,o),
(100,660,o),
(98,659,cs),
(94,657,o),
(91,652,o),
(91,647,cs)
);
},
{
closed = 1;
nodes = (
(352,420,l),
(118,221,l),
(118,619,l)
);
},
{
closed = 1;
nodes = (
(628,221,l),
(393,420,l),
(628,619,l)
);
}
);
};
layerId = m004;
shapes = (
{
closed = 1;
nodes = (
(676,0,o),
(703,27,o),
(703,60,cs),
(703,586,ls),
(703,631,o),
(672,660,o),
(636,660,cs),
(620,660,o),
(603,655,o),
(586,640,cs),
(96,220,ls),
(84,209,o),
(76,193,o),
(76,175,cs),
(76,142,o),
(102,114,o),
(135,114,cs),
(150,114,o),
(164,120,o),
(175,129,cs),
(583,479,l),
(583,60,ls),
(583,26,o),
(610,0,o),
(643,0,cs)
);
},
{
closed = 1;
nodes = (
(153,0,o),
(180,26,o),
(180,60,cs),
(180,479,l),
(588,129,ls),
(599,120,o),
(613,114,o),
(628,114,cs),
(661,114,o),
(687,142,o),
(687,175,cs),
(687,193,o),
(679,209,o),
(667,220,cs),
(178,640,ls),
(161,655,o),
(143,660,o),
(127,660,cs),
(91,660,o),
(60,631,o),
(60,586,cs),
(60,60,ls),
(60,27,o),
(87,0,o),
(120,0,cs)
);
}
);
width = 763;
}
);
note = M;
unicode = 77;
},
{
glyphname = N;
kernLeft = H;
kernRight = H;
lastChange = "2025-01-07 14:49:27 +0000";
layers = (
{
anchors = (
{
name = bottom;
pos = (298,0);
},
{
name = top;
pos = (298,660);
}
);
background = {
hints = (
{
horizontal = 1;
place = (-13,26);
type = Stem;
},
{
place = (84,26);
type = Stem;
},
{
place = (527,26);
type = Stem;
}
);
shapes = (
{
closed = 1;
nodes = (
(70,0,ls),
(70,-8,o),
(75,-13,o),
(83,-13,cs),
(524,-13,ls),
(534,-13,o),
(539,-9,o),
(539,0,cs),
(539,647,ls),
(539,656,o),
(534,660,o),
(526,660,cs),
(517,660,o),
(512,656,o),
(512,647,cs),
(512,42,l),
(93,654,ls),
(91,658,o),
(88,660,o),
(84,660,cs),
(83,660,o),
(81,660,o),
(79,659,cs),
(73,657,o),
(70,653,o),
(70,647,cs)
);
},
{
closed = 1;
nodes = (
(501,13,l),
(96,13,l),
(96,605,l)
);
}
);
};
layerId = "12AF635E-66FE-4C90-B49C-8787585F2B73";
shapes = (
{
closed = 1;
nodes = (
(522,0,l),
(532,27,l),
(100,650,ls),
(87,669,o),
(60,660,o),
(60,638,cs),
(60,14,ls),
(60,6,o),
(66,0,o),
(74,0,cs)
);
},
{
closed = 1;
nodes = (
(86,625,l),
(501,25,l),
(86,25,l)
);
},
{
closed = 1;
nodes = (
(530,0,o),
(535,5,o),
(535,13,cs),
(535,647,ls),
(535,655,o),
(530,660,o),
(522,660,cs),
(515,660,o),
(510,655,o),
(510,647,cs),
(510,13,ls),
(510,5,o),
(515,0,o),
(522,0,cs)
);
}
);
width = 595;
},
{
anchors = (
{
name = bottom;
pos = (347,0);
},
{
name = top;
pos = (347,660);
}
);
background = {
hints = (
{
horizontal = 1;
place = (-13,26);
type = Stem;
},
{
place = (84,26);
type = Stem;
},
{
place = (527,26);
type = Stem;
}
);
shapes = (
{
closed = 1;
nodes = (
(117,0,ls),
(117,-8,o),
(122,-13,o),
(130,-13,cs),
(571,-13,ls),
(581,-13,o),
(586,-9,o),
(586,0,cs),
(586,647,ls),
(586,656,o),
(582,660,o),
(573,660,cs),
(564,660,o),
(560,656,o),
(560,647,cs),
(560,42,l),
(141,654,ls),
(138,658,o),
(134,660,o),
(131,660,cs),
(129,660,o),
(128,660,o),
(127,659,cs),
(120,657,o),
(117,653,o),
(117,647,cs)
);
},
{
closed = 1;
nodes = (
(548,13,l),
(143,13,l),
(143,605,l)
);
}
);
};
layerId = m004;
shapes = (
{
closed = 1;
nodes = (
(573,0,l),
(615,105,l),
(215,621,ls),
(162,691,o),
(60,661,o),
(60,573,cs),
(60,53,ls),
(60,22,o),
(82,0,o),
(113,0,cs)
);
},
{
closed = 1;
nodes = (
(180,470,l),
(452,120,l),
(180,120,l)
);
},
{
closed = 1;
nodes = (
(606,0,o),
(633,27,o),
(633,60,cs),
(633,600,ls),
(633,633,o),
(606,660,o),
(573,660,cs),
(540,660,o),
(512,633,o),
(512,600,cs),
(512,60,ls),
(512,27,o),
(540,0,o),
(573,0,cs)
);
}
);
width = 694;
}
);
note = N;
unicode = 78;
},
{
glyphname = Nhookleft;
kernLeft = H;
kernRight = H;
lastChange = "2025-01-07 14:49:27 +0000";
layers = (
{
layerId = "12AF635E-66FE-4C90-B49C-8787585F2B73";
shapes = (
{
closed = 1;
nodes = (
(33,-279,o),
(86,-230,o),
(86,-170,cs),
(86,32,l),
(60,30,l),
(60,-170,ls),
(60,-217,o),
(21,-253,o),
(-31,-253,cs),
(-47,-253,o),
(-62,-249,o),
(-76,-242,cs),
(-78,-241,o),
(-80,-240,o),
(-82,-240,cs),
(-90,-240,o),
(-95,-246,o),
(-95,-253,cs),
(-95,-258,o),
(-91,-263,o),
(-88,-265,cs),
(-71,-273,o),
(-51,-279,o),
(-31,-279,cs)
);
},
{
ref = N;
}
);
width = 595;
},
{
layerId = m004;
shapes = (
{
closed = 1;
nodes = (
(116,-326,o),
(181,-247,o),
(181,-170,cs),
(181,62,l),
(61,62,l),
(61,-170,ls),
(61,-197,o),
(51,-206,o),
(18,-206,cs),
(6,-206,o),
(3,-204,o),
(-7,-200,cs),
(-16,-195,o),
(-25,-193,o),
(-34,-193,cs),
(-68,-193,o),
(-94,-220,o),
(-94,-253,cs),
(-94,-277,o),
(-81,-297,o),
(-62,-307,cs),
(-35,-320,o),
(-7,-326,o),
(18,-326,cs)
);
},
{
ref = N;
}
);
width = 694;
}
);
unicode = 413;
},
{
glyphname = Eng;
kernLeft = H;
kernRight = H;
lastChange = "2025-01-07 14:49:27 +0000";
layers = (
{
layerId = "12AF635E-66FE-4C90-B49C-8787585F2B73";
shapes = (
{
closed = 1;
nodes = (
(483,-279,o),
(534,-230,o),
(534,-170,cs),
(534,32,l),
(509,30,l),
(509,-170,ls),
(509,-217,o),
(470,-253,o),
(418,-253,cs),
(402,-253,o),
(387,-249,o),
(373,-242,cs),
(371,-241,o),
(369,-240,o),
(367,-240,cs),
(360,-240,o),
(354,-246,o),
(354,-253,cs),
(354,-258,o),
(357,-263,o),
(361,-265,cs),
(378,-273,o),
(398,-279,o),
(418,-279,cs)
);
},
{
ref = N;
}
);
width = 595;
},
{
layerId = m004;
shapes = (
{
closed = 1;
nodes = (
(569,-326,o),
(633,-247,o),
(633,-170,cs),
(633,62,l),
(512,62,l),
(512,-170,ls),
(512,-197,o),
(503,-206,o),
(469,-206,cs),
(459,-206,o),
(455,-204,o),
(445,-200,cs),
(437,-195,o),
(428,-193,o),
(418,-193,cs),
(385,-193,o),
(358,-220,o),
(358,-253,cs),
(358,-277,o),
(371,-297,o),
(391,-307,cs),
(418,-320,o),
(445,-326,o),
(469,-326,cs)
);
},
{
ref = N;
}
);
width = 694;
}
);
unicode = 330;
},
{
glyphname = O;
kernLeft = O;
kernRight = O;
lastChange = "2025-01-07 14:49:27 +0000";
layers = (
{
anchors = (
{
name = bottom;
pos = (386,0);
},
{
name = center;
pos = (386,330);
},
{
name = ogonek;
pos = (440,4);
},
{
name = top;
pos = (386,660);
},
{
name = topleft;
pos = (9,660);
},
{
name = topright;
pos = (517,647);
}
);
background = {
hints = (
{
horizontal = 1;
place = (-14,26);
type = Stem;
},
{
horizontal = 1;
place = (636,26);
type = Stem;
},
{
place = (47,26);
type = Stem;
},
{
place = (697,26);
type = Stem;
}
);
shapes = (
{
closed = 1;
nodes = (
(137,102,o),
(178,62,o),
(230,31,cs),
(282,1,o),
(338,-14,o),
(400,-14,cs),
(461,-14,o),
(517,1,o),
(569,31,cs),
(621,62,o),
(662,102,o),
(693,154,cs),
(723,206,o),
(737,263,o),
(737,324,cs),
(737,385,o),
(723,441,o),
(693,494,cs),
(662,546,o),
(621,586,o),
(569,616,cs),
(517,647,o),
(461,662,o),
(400,662,cs),
(338,662,o),
(282,647,o),
(230,616,cs),
(178,586,o),
(137,546,o),
(107,494,cs),
(76,441,o),
(62,385,o),
(62,324,cs),
(62,263,o),
(76,206,o),
(107,154,cs)
);
},
{
closed = 1;
nodes = (
(157,528,o),
(195,566,o),
(243,593,cs),
(291,621,o),
(343,636,o),
(400,636,cs),
(456,636,o),
(509,621,o),
(556,593,cs),
(604,566,o),
(642,528,o),
(670,480,cs),
(697,432,o),
(711,381,o),
(711,323,cs),
(711,267,o),
(697,215,o),
(670,167,cs),
(642,120,o),
(604,82,o),
(556,54,cs),
(509,26,o),
(456,12,o),
(400,12,cs),
(343,12,o),
(291,26,o),
(243,54,cs),
(195,82,o),
(157,120,o),
(129,167,cs),
(102,215,o),
(88,267,o),
(88,323,cs),
(88,381,o),
(102,432,o),
(129,480,cs)
);
}
);
};
layerId = "12AF635E-66FE-4C90-B49C-8787585F2B73";
shapes = (
{
closed = 1;
nodes = (
(576,-13,o),
(730,140,o),
(730,330,cs),
(730,519,o),
(576,673,o),
(386,673,cs),
(196,673,o),
(43,519,o),
(43,330,cs),
(43,140,o),
(196,-13,o),
(386,-13,cs)
);
},
{
closed = 1;
nodes = (
(207,13,o),
(69,150,o),
(69,330,cs),
(69,508,o),
(207,647,o),
(386,647,cs),
(565,647,o),
(703,508,o),
(703,330,cs),
(703,150,o),
(565,13,o),
(386,13,cs)
);
}
);
width = 772;
},
{
anchors = (
{
name = bottom;
pos = (386,0);
},
{
name = center;
pos = (386,330);
},
{
name = ogonek;
pos = (366,4);
},
{
name = top;
pos = (386,660);
},
{
name = topleft;
pos = (9,660);
},
{
name = topright;
pos = (517,647);
}
);
background = {
hints = (
{
horizontal = 1;
place = (-14,26);
type = Stem;
},
{
horizontal = 1;
place = (636,26);
type = Stem;
},
{
place = (47,26);
type = Stem;
},
{
place = (697,26);
type = Stem;
}
);
shapes = (
{
closed = 1;
nodes = (
(137,102,o),
(178,62,o),
(230,31,cs),
(282,1,o),
(338,-14,o),
(400,-14,cs),
(461,-14,o),
(517,1,o),
(569,31,cs),
(621,62,o),
(662,102,o),
(693,154,cs),
(723,206,o),
(737,263,o),
(737,324,cs),
(737,385,o),
(723,441,o),
(693,494,cs),
(662,546,o),
(621,586,o),
(569,616,cs),
(517,647,o),
(461,662,o),
(400,662,cs),
(338,662,o),
(282,647,o),
(230,616,cs),
(178,586,o),
(137,546,o),
(107,494,cs),
(76,441,o),
(62,385,o),
(62,324,cs),
(62,263,o),
(76,206,o),
(107,154,cs)
);
},
{
closed = 1;
nodes = (
(157,528,o),
(195,566,o),
(243,593,cs),
(291,621,o),
(343,636,o),
(400,636,cs),
(456,636,o),
(509,621,o),
(556,593,cs),
(604,566,o),
(642,528,o),
(670,480,cs),
(697,432,o),
(711,381,o),
(711,323,cs),
(711,267,o),
(697,215,o),
(670,167,cs),
(642,120,o),
(604,82,o),
(556,54,cs),
(509,26,o),
(456,12,o),
(400,12,cs),
(343,12,o),
(291,26,o),
(243,54,cs),
(195,82,o),
(157,120,o),
(129,167,cs),
(102,215,o),
(88,267,o),
(88,323,cs),
(88,381,o),
(102,432,o),
(129,480,cs)
);
}
);
};
layerId = m004;
shapes = (
{
closed = 1;
nodes = (
(576,-13,o),
(730,140,o),
(730,330,cs),
(730,519,o),
(576,673,o),
(386,673,cs),
(196,673,o),
(43,519,o),
(43,330,cs),
(43,140,o),
(196,-13,o),
(386,-13,cs)
);
},
{
closed = 1;
nodes = (
(246,107,o),
(163,189,o),
(163,330,cs),
(163,469,o),
(246,553,o),
(386,553,cs),
(527,553,o),
(609,469,o),
(609,330,cs),
(609,189,o),
(527,107,o),
(386,107,cs)
);
}
);
width = 772;
}
);
note = O;
unicode = 79;
},
{
glyphname = P;
kernLeft = H;
kernRight = P;
lastChange = "2025-01-07 14:49:27 +0000";
layers = (
{
anchors = (
{
name = bottom;
pos = (243,0);
},
{
name = top;
pos = (243,660);
}
);
background = {
hints = (
{
horizontal = 1;
place = (-13,21);
target = up;
type = BottomGhost;
},
{
horizontal = 1;
place = (226,26);
type = Stem;
},
{
horizontal = 1;
place = (634,26);
type = Stem;
},
{
place = (96,26);
type = Stem;
},
{
place = (467,26);
type = Stem;
}
);
shapes = (
{
closed = 1;
nodes = (
(69,0,ls),
(69,-9,o),
(73,-13,o),
(82,-13,cs),
(91,-13,o),
(95,-9,o),
(95,0,cs),
(95,226,l),
(249,226,ls),
(309,226,o),
(360,247,o),
(402,289,cs),
(444,331,o),
(466,383,o),
(466,443,cs),
(466,503,o),
(444,554,o),
(402,596,cs),
(360,639,o),
(309,660,o),
(249,660,cs),
(82,660,ls),
(73,660,o),
(69,656,o),
(69,647,cs)
);
},
{
closed = 1;
nodes = (
(95,252,l),
(95,634,l),
(249,634,ls),
(301,634,o),
(346,615,o),
(383,578,cs),
(421,541,o),
(440,496,o),
(440,443,cs),
(440,390,o),
(421,345,o),
(383,309,cs),
(346,271,o),
(301,252,o),
(249,252,cs)
);
}
);
};
layerId = "12AF635E-66FE-4C90-B49C-8787585F2B73";
shapes = (
{
closed = 1;
nodes = (
(80,0,o),
(86,5,o),
(86,12,cs),
(86,635,l),
(228,635,ls),
(337,635,o),
(419,552,o),
(419,443,cs),
(419,334,o),
(337,252,o),
(228,252,cs),
(80,252,ls),
(73,252,o),
(68,246,o),
(68,239,cs),
(68,232,o),
(73,226,o),
(80,226,cs),
(228,226,ls),
(348,226,o),
(445,323,o),
(445,443,cs),
(445,563,o),
(348,660,o),
(228,660,cs),
(74,660,ls),
(66,660,o),
(60,654,o),
(60,646,cs),
(60,12,ls),
(60,5,o),
(66,0,o),
(73,0,cs)
);
}
);
width = 488;
},
{
anchors = (
{
name = bottom;
pos = (270,0);
},
{
name = top;
pos = (270,660);
}
);
background = {
hints = (
{
horizontal = 1;
place = (-13,21);
target = up;
type = BottomGhost;
},
{
horizontal = 1;
place = (226,26);
type = Stem;
},
{
horizontal = 1;
place = (634,26);
type = Stem;
},
{
place = (96,26);
type = Stem;
},
{
place = (467,26);
type = Stem;
}
);
shapes = (
{
closed = 1;
nodes = (
(69,0,ls),
(69,-9,o),
(73,-13,o),
(82,-13,cs),
(91,-13,o),
(95,-9,o),
(95,0,cs),
(95,226,l),
(249,226,ls),
(309,226,o),
(360,247,o),
(402,289,cs),
(444,331,o),
(466,383,o),
(466,443,cs),
(466,503,o),
(444,554,o),
(402,596,cs),
(360,639,o),
(309,660,o),
(249,660,cs),
(82,660,ls),
(73,660,o),
(69,656,o),
(69,647,cs)
);
},
{
closed = 1;
nodes = (
(95,252,l),
(95,634,l),
(249,634,ls),
(301,634,o),
(346,615,o),
(383,578,cs),
(421,541,o),
(440,496,o),
(440,443,cs),
(440,390,o),
(421,345,o),
(383,309,cs),
(346,271,o),
(301,252,o),
(249,252,cs)
);
}
);
};
layerId = m004;
shapes = (
{
closed = 1;
nodes = (
(153,0,o),
(180,27,o),
(180,60,cs),
(180,540,l),
(280,540,ls),
(332,540,o),
(376,505,o),
(376,443,cs),
(376,381,o),
(332,346,o),
(280,346,cs),
(165,346,ls),
(133,346,o),
(105,319,o),
(105,287,cs),
(105,253,o),
(133,226,o),
(165,226,cs),
(280,226,ls),
(399,226,o),
(496,323,o),
(496,443,cs),
(496,563,o),
(399,660,o),
(280,660,cs),
(113,660,ls),
(82,660,o),
(60,638,o),
(60,607,cs),
(60,60,ls),
(60,27,o),
(87,0,o),
(120,0,cs)
);
}
);
width = 539;
}
);
note = P;
unicode = 80;
},
{
glyphname = Thorn;
kernLeft = H;
kernRight = P;
lastChange = "2025-01-07 14:49:27 +0000";
layers = (
{
hints = (
{
horizontal = 1;
place = (226,26);
type = Stem;
},
{
horizontal = 1;
place = (634,26);
type = Stem;
},
{
place = (96,26);
type = Stem;
},
{
place = (412,26);
type = Stem;
}
);
layerId = "12AF635E-66FE-4C90-B49C-8787585F2B73";
shapes = (
{
closed = 1;
nodes = (
(243,138,ls),
(372,138,o),
(476,242,o),
(476,370,cs),
(476,498,o),
(372,603,o),
(243,603,cs),
(87,603,ls),
(80,603,o),
(74,597,o),
(74,590,cs),
(74,583,o),
(80,577,o),
(87,577,cs),
(243,577,ls),
(359,577,o),
(450,486,o),
(450,370,cs),
(450,255,o),
(359,163,o),
(243,163,cs),
(87,163,ls),
(80,163,o),
(74,158,o),
(74,150,cs),
(74,143,o),
(80,138,o),
(87,138,cs)
);
},
{
closed = 1;
nodes = (
(80,0,o),
(86,5,o),
(86,13,cs),
(86,647,ls),
(86,655,o),
(80,660,o),
(73,660,cs),
(66,660,o),
(60,655,o),
(60,647,cs),
(60,13,ls),
(60,5,o),
(66,0,o),
(73,0,cs)
);
}
);
width = 519;
},
{
hints = (
{
horizontal = 1;
place = (226,26);
type = Stem;
},
{
horizontal = 1;
place = (634,26);
type = Stem;
},
{
place = (96,26);
type = Stem;
},
{
place = (412,26);
type = Stem;
}
);
layerId = m004;
shapes = (
{
closed = 1;
nodes = (
(318,68,ls),
(471,68,o),
(595,192,o),
(595,345,cs),
(595,498,o),
(471,621,o),
(318,621,cs),
(150,621,ls),
(117,621,o),
(91,594,o),
(91,562,cs),
(91,528,o),
(117,501,o),
(150,501,cs),
(318,501,ls),
(413,501,o),
(475,440,o),
(475,345,cs),
(475,250,o),
(413,187,o),
(318,187,cs),
(150,187,ls),
(117,187,o),
(91,161,o),
(91,127,cs),
(91,94,o),
(117,68,o),
(150,68,cs)
);
},
{
closed = 1;
nodes = (
(153,0,o),
(180,27,o),
(180,60,cs),
(180,600,ls),
(180,633,o),
(153,660,o),
(120,660,cs),
(87,660,o),
(60,633,o),
(60,600,cs),
(60,60,ls),
(60,27,o),
(87,0,o),
(120,0,cs)
);
}
);
width = 638;
}
);
metricLeft = P;
metricRight = P;
note = Thorn;
unicode = 222;
},
{
glyphname = Q;
kernLeft = O;
kernRight = O;
lastChange = "2025-01-07 14:49:27 +0000";
layers = (
{
anchors = (
{
name = bottom;
pos = (386,0);
},
{
name = top;
pos = (386,660);
}
);
background = {
hints = (
{
horizontal = 1;
place = (-14,26);
type = Stem;
},
{
horizontal = 1;
place = (636,26);
type = Stem;
},
{
place = (26,26);
type = Stem;
},
{
place = (676,26);
type = Stem;
}
);
shapes = (
{
closed = 1;
nodes = (
(26,270,o),
(38,220,o),
(61,172,cs),
(84,125,o),
(123,82,o),
(178,43,cs),
(233,5,o),
(294,-14,o),
(365,-14,cs),
(434,-14,o),
(497,5,o),
(552,43,cs),
(607,82,o),
(646,125,o),
(668,172,cs),
(691,220,o),
(702,270,o),
(702,323,cs),
(702,385,o),
(687,441,o),
(657,494,cs),
(627,546,o),
(586,586,o),
(534,616,cs),
(482,647,o),
(425,662,o),
(365,662,cs),
(303,662,o),
(246,647,o),
(194,616,cs),
(142,586,o),
(102,546,o),
(71,494,cs),
(41,441,o),
(26,385,o),
(26,323,cs)
);
},
{
closed = 1;
nodes = (
(377,350,l),
(371,358,o),
(360,358,o),
(355,350,c),
(172,79,l),
(135,109,o),
(106,144,o),
(84,186,cs),
(63,229,o),
(53,275,o),
(53,323,cs),
(53,381,o),
(67,432,o),
(94,480,cs),
(122,528,o),
(160,566,o),
(207,593,cs),
(256,621,o),
(308,636,o),
(365,636,cs),
(421,636,o),
(473,621,o),
(520,593,cs),
(568,566,o),
(606,528,o),
(634,480,cs),
(662,432,o),
(676,381,o),
(676,323,cs),
(676,275,o),
(665,229,o),
(644,186,cs),
(623,144,o),
(594,108,o),
(557,79,c)
);
},
{
closed = 1;
nodes = (
(366,319,l),
(536,63,l),
(484,29,o),
(426,12,o),
(365,12,cs),
(302,12,o),
(245,29,o),
(193,63,c)
);
}
);
};
layerId = "12AF635E-66FE-4C90-B49C-8787585F2B73";
shapes = (
{
closed = 1;
nodes = (
(576,-13,o),
(730,140,o),
(730,330,cs),
(730,519,o),
(576,673,o),
(386,673,cs),
(196,673,o),
(43,519,o),
(43,330,cs),
(43,140,o),
(196,-13,o),
(386,-13,cs)
);
},
{
closed = 1;
nodes = (
(319,13,o),
(257,33,o),
(207,66,c),
(386,329,l),
(566,66,l),
(515,33,o),
(454,13,o),
(386,13,cs)
);
},
{
closed = 1;
nodes = (
(113,139,o),
(69,227,o),
(69,330,cs),
(69,508,o),
(207,647,o),
(386,647,cs),
(565,647,o),
(703,508,o),
(703,330,cs),
(703,227,o),
(658,139,o),
(586,82,c),
(399,356,ls),
(392,366,o),
(380,366,o),
(373,355,cs),
(185,82,l)
);
}
);
width = 772;
},
{
anchors = (
{
name = bottom;
pos = (386,0);
},
{
name = top;
pos = (386,660);
}
);
layerId = m004;
shapes = (
{
closed = 1;
nodes = (
(576,-13,o),
(730,140,o),
(730,330,cs),
(730,519,o),
(576,673,o),
(386,673,cs),
(196,673,o),
(43,519,o),
(43,330,cs),
(43,140,o),
(196,-13,o),
(386,-13,cs)
);
},
{
closed = 1;
nodes = (
(354,107,o),
(326,112,o),
(301,120,c),
(386,245,l),
(472,120,l),
(447,112,o),
(418,107,o),
(386,107,cs)
);
},
{
closed = 1;
nodes = (
(177,225,o),
(163,272,o),
(163,330,cs),
(163,469,o),
(246,553,o),
(386,553,cs),
(527,553,o),
(609,469,o),
(609,330,cs),
(609,272,o),
(595,226,o),
(570,190,c),
(436,386,ls),
(410,423,o),
(362,423,o),
(337,385,cs),
(202,189,l)
);
}
);
width = 772;
}
);
note = Q;
unicode = 81;
},
{
glyphname = R;
kernLeft = H;
kernRight = R;
lastChange = "2025-01-07 14:49:27 +0000";
layers = (
{
anchors = (
{
name = bottom;
pos = (258,0);
},
{
name = top;
pos = (228,660);
}
);
background = {
hints = (
{
horizontal = 1;
place = (-13,21);
target = up;
type = BottomGhost;
},
{
horizontal = 1;
place = (226,26);
type = Stem;
},
{
horizontal = 1;
place = (634,26);
type = Stem;
},
{
place = (93,26);
type = Stem;
},
{
place = (463,26);
type = Stem;
},
{
horizontal = 1;
place = (-14,21);
target = up;
type = BottomGhost;
}
);
shapes = (
{
closed = 1;
nodes = (
(66,0,ls),
(66,-7,o),
(72,-13,o),
(79,-13,cs),
(86,-13,o),
(92,-7,o),
(92,0,cs),
(92,226,l),
(245,226,ls),
(275,226,o),
(304,232,o),
(331,243,c),
(498,-7,ls),
(501,-11,o),
(505,-14,o),
(508,-14,cs),
(511,-14,o),
(513,-13,o),
(516,-11,cs),
(520,-8,o),
(523,-5,o),
(523,-1,cs),
(523,1,o),
(521,4,o),
(519,7,cs),
(355,256,l),
(388,275,o),
(414,301,o),
(433,334,cs),
(453,367,o),
(462,403,o),
(462,443,cs),
(462,503,o),
(441,554,o),
(399,596,cs),
(357,639,o),
(306,660,o),
(245,660,cs),
(78,660,ls),
(77,660,o),
(76,659,o),
(76,659,cs),
(69,657,o),
(66,653,o),
(66,647,cs)
);
},
{
closed = 1;
nodes = (
(104,634,l),
(245,634,ls),
(298,634,o),
(343,615,o),
(380,578,cs),
(418,541,o),
(436,496,o),
(436,443,cs),
(436,408,o),
(427,376,o),
(410,346,cs),
(392,316,o),
(369,294,o),
(340,278,c)
);
},
{
closed = 1;
nodes = (
(92,252,l),
(92,603,l),
(316,265,l),
(294,257,o),
(270,252,o),
(245,252,cs)
);
}
);
};
layerId = "12AF635E-66FE-4C90-B49C-8787585F2B73";
shapes = (
{
closed = 1;
nodes = (
(80,0,o),
(86,5,o),
(86,13,cs),
(86,635,l),
(228,635,ls),
(337,635,o),
(419,552,o),
(419,443,cs),
(419,334,o),
(337,252,o),
(228,252,cs),
(80,252,ls),
(73,252,o),
(68,246,o),
(68,239,cs),
(68,232,o),
(73,226,o),
(80,226,cs),
(228,226,ls),
(348,226,o),
(445,323,o),
(445,443,cs),
(445,563,o),
(348,660,o),
(228,660,cs),
(73,660,ls),
(65,660,o),
(60,656,o),
(60,647,cs),
(60,13,ls),
(60,5,o),
(66,0,o),
(73,0,cs)
);
},
{
closed = 1;
nodes = (
(519,0,o),
(526,6,o),
(526,13,cs),
(526,16,o),
(525,18,o),
(522,21,cs),
(94,652,ls),
(91,656,o),
(88,657,o),
(84,657,cs),
(76,657,o),
(71,651,o),
(71,644,cs),
(71,642,o),
(72,639,o),
(74,636,cs),
(502,5,ls),
(504,2,o),
(508,0,o),
(512,0,cs)
);
}
);
width = 568;
},
{
anchors = (
{
name = bottom;
pos = (307,0);
},
{
name = top;
pos = (288,660);
}
);
background = {
hints = (
{
horizontal = 1;
place = (-13,21);
target = up;
type = BottomGhost;
},
{
horizontal = 1;
place = (226,26);
type = Stem;
},
{
horizontal = 1;
place = (634,26);
type = Stem;
},
{
place = (93,26);
type = Stem;
},
{
place = (463,26);
type = Stem;
},
{
horizontal = 1;
place = (-14,21);
target = up;
type = BottomGhost;
}
);
shapes = (
{
closed = 1;
nodes = (
(90,0,ls),
(90,-7,o),
(96,-13,o),
(103,-13,cs),
(110,-13,o),
(116,-7,o),
(116,0,cs),
(116,226,l),
(269,226,ls),
(299,226,o),
(328,232,o),
(355,243,c),
(522,-7,ls),
(526,-11,o),
(528,-14,o),
(532,-14,cs),
(534,-14,o),
(537,-13,o),
(541,-11,cs),
(545,-8,o),
(547,-5,o),
(547,-1,cs),
(547,1,o),
(546,4,o),
(543,7,cs),
(379,256,l),
(412,275,o),
(438,301,o),
(457,334,cs),
(476,367,o),
(486,403,o),
(486,443,cs),
(486,503,o),
(465,554,o),
(423,596,cs),
(381,639,o),
(330,660,o),
(269,660,cs),
(102,660,ls),
(102,660,o),
(101,659,o),
(99,659,cs),
(93,657,o),
(90,653,o),
(90,647,cs)
);
},
{
closed = 1;
nodes = (
(127,634,l),
(269,634,ls),
(322,634,o),
(367,615,o),
(403,578,cs),
(441,541,o),
(460,496,o),
(460,443,cs),
(460,408,o),
(451,376,o),
(433,346,cs),
(417,316,o),
(393,294,o),
(364,278,c)
);
},
{
closed = 1;
nodes = (
(116,252,l),
(116,603,l),
(340,265,l),
(317,257,o),
(294,252,o),
(269,252,cs)
);
}
);
};
layerId = m004;
shapes = (
{
closed = 1;
nodes = (
(153,0,o),
(180,27,o),
(180,60,cs),
(180,540,l),
(303,540,ls),
(383,540,o),
(424,499,o),
(424,419,cs),
(424,339,o),
(383,298,o),
(303,298,cs),
(138,298,ls),
(105,298,o),
(78,272,o),
(78,238,cs),
(78,205,o),
(105,178,o),
(138,178,cs),
(303,178,ls),
(437,178,o),
(544,286,o),
(544,419,cs),
(544,552,o),
(437,660,o),
(303,660,cs),
(112,660,ls),
(78,660,o),
(60,642,o),
(60,608,cs),
(60,60,ls),
(60,27,o),
(87,0,o),
(120,0,cs)
);
},
{
closed = 1;
nodes = (
(544,0,o),
(570,27,o),
(570,60,cs),
(570,73,o),
(567,85,o),
(560,95,cs),
(196,630,ls),
(185,646,o),
(167,656,o),
(147,656,cs),
(113,656,o),
(86,628,o),
(86,596,cs),
(86,583,o),
(91,571,o),
(98,562,cs),
(461,25,ls),
(473,11,o),
(490,0,o),
(511,0,cs)
);
}
);
width = 614;
}
);
note = R;
unicode = 82;
},
{
glyphname = S;
kernLeft = S;
kernRight = S;
lastChange = "2025-01-07 14:49:27 +0000";
layers = (
{
anchors = (
{
name = bottom;
pos = (267,0);
},
{
name = top;
pos = (267,660);
}
);
background = {
hints = (
{
horizontal = 1;
place = (-13,26);
type = Stem;
},
{
horizontal = 1;
place = (634,26);
type = Stem;
},
{
place = (72,26);
type = Stem;
}
);
shapes = (
{
closed = 1;
nodes = (
(323,118,l),
(432,13,l),
(77,13,ls),
(59,13,o),
(60,-13,o),
(77,-13,cs),
(463,-13,l),
(469,-13,o),
(474,-11,o),
(476,-4,cs),
(476,-3,o),
(476,-1,o),
(476,1,cs),
(476,4,o),
(476,7,o),
(473,10,cs),
(287,186,ls),
(212,257,o),
(163,303,o),
(142,329,c),
(452,637,ls),
(456,641,o),
(457,646,o),
(454,651,cs),
(453,657,o),
(448,660,o),
(442,660,cs),
(280,660,ls),
(221,660,o),
(170,639,o),
(127,596,cs),
(84,554,o),
(63,503,o),
(63,443,cs),
(63,405,o),
(80,367,o),
(105,333,cs),
(117,316,o),
(135,296,o),
(159,272,cs),
(183,248,o),
(206,225,o),
(229,204,cs)
);
},
{
closed = 1;
nodes = (
(90,444,ls),
(90,496,o),
(108,541,o),
(146,578,cs),
(183,615,o),
(228,634,o),
(280,634,cs),
(410,634,l),
(126,349,l),
(103,381,o),
(91,410,o),
(90,438,cs)
);
}
);
};
layerId = "12AF635E-66FE-4C90-B49C-8787585F2B73";
shapes = (
{
closed = 1;
nodes = (
(461,0,ls),
(481,0,o),
(490,22,o),
(475,34,cs),
(142,310,ls),
(93,351,o),
(76,401,o),
(76,444,cs),
(76,551,o),
(159,635,o),
(266,635,cs),
(422,635,l),
(119,331,ls),
(116,328,o),
(114,325,o),
(114,322,cs),
(114,315,o),
(120,309,o),
(127,309,cs),
(131,309,o),
(134,310,o),
(136,312,cs),
(452,628,ls),
(465,641,o),
(456,660,o),
(438,660,cs),
(266,660,ls),
(147,660,o),
(50,563,o),
(50,444,cs),
(50,395,o),
(71,337,o),
(125,292,cs),
(445,25,l),
(34,25,ls),
(27,25,o),
(21,20,o),
(21,13,cs),
(21,5,o),
(27,0,o),
(34,0,cs)
);
}
);
width = 512;
},
{
anchors = (
{
name = bottom;
pos = (280,0);
},
{
name = top;
pos = (280,660);
}
);
background = {
hints = (
{
horizontal = 1;
place = (-13,26);
type = Stem;
},
{
horizontal = 1;
place = (634,26);
type = Stem;
},
{
place = (72,26);
type = Stem;
}
);
shapes = (
{
closed = 1;
nodes = (
(331,118,l),
(440,13,l),
(86,13,ls),
(68,13,o),
(69,-13,o),
(86,-13,cs),
(472,-13,l),
(477,-13,o),
(482,-11,o),
(484,-4,cs),
(485,-3,o),
(485,-1,o),
(485,1,cs),
(485,4,o),
(484,7,o),
(482,10,cs),
(295,186,ls),
(220,257,o),
(172,303,o),
(151,329,c),
(461,637,ls),
(464,641,o),
(465,646,o),
(463,651,cs),
(461,657,o),
(457,660,o),
(451,660,cs),
(289,660,ls),
(229,660,o),
(178,639,o),
(135,596,cs),
(93,554,o),
(72,503,o),
(72,443,cs),
(72,405,o),
(89,367,o),
(113,333,cs),
(126,316,o),
(144,296,o),
(167,272,cs),
(191,248,o),
(214,225,o),
(237,204,cs)
);
},
{
closed = 1;
nodes = (
(98,444,ls),
(98,496,o),
(117,541,o),
(154,578,cs),
(192,615,o),
(236,634,o),
(289,634,cs),
(419,634,l),
(134,349,l),
(112,381,o),
(99,410,o),
(98,438,cs)
);
}
);
};
layerId = m004;
shapes = (
{
closed = 1;
nodes = (
(428,0,ls),
(510,0,o),
(541,90,o),
(478,142,cs),
(207,366,ls),
(178,389,o),
(172,408,o),
(172,435,cs),
(172,501,o),
(211,540,o),
(277,540,cs),
(340,540,l),
(181,384,ls),
(171,374,o),
(163,359,o),
(163,342,cs),
(163,309,o),
(191,281,o),
(223,281,cs),
(240,281,o),
(255,288,o),
(265,299,cs),
(504,534,ls),
(556,585,o),
(524,660,o),
(451,660,cs),
(277,660,ls),
(153,660,o),
(52,559,o),
(52,435,cs),
(52,384,o),
(74,320,o),
(131,272,cs),
(314,120,l),
(82,120,ls),
(48,120,o),
(21,93,o),
(21,60,cs),
(21,27,o),
(48,0,o),
(82,0,cs)
);
}
);
width = 559;
}
);
note = S;
unicode = 83;
},
{
glyphname = Germandbls;
kernLeft = H;
kernRight = B;
lastChange = "2025-01-07 14:49:27 +0000";
layers = (
{
hints = (
{
horizontal = 1;
place = (-14,26);
type = Stem;
},
{
horizontal = 1;
place = (324,26);
type = Stem;
},
{
horizontal = 1;
place = (396,26);
type = Stem;
},
{
horizontal = 1;
place = (634,26);
type = Stem;
},
{
place = (152,26);
type = Stem;
},
{
place = (236,27);
type = Stem;
},
{
place = (403,26);
type = Stem;
},
{
place = (498,26);
type = Stem;
},
{
horizontal = 1;
place = (-16,26);
type = Stem;
}
);
layerId = "12AF635E-66FE-4C90-B49C-8787585F2B73";
shapes = (
{
closed = 1;
nodes = (
(80,0,o),
(86,5,o),
(86,13,cs),
(86,635,l),
(461,635,l),
(69,265,ls),
(66,263,o),
(64,259,o),
(64,256,cs),
(64,249,o),
(70,243,o),
(76,243,cs),
(80,243,o),
(84,243,o),
(86,246,cs),
(490,626,ls),
(504,640,o),
(495,660,o),
(476,660,cs),
(74,660,ls),
(66,660,o),
(60,654,o),
(60,646,cs),
(60,13,ls),
(60,5,o),
(66,0,o),
(73,0,cs)
);
},
{
closed = 1;
nodes = (
(365,0,ls),
(477,0,o),
(569,91,o),
(569,204,cs),
(569,250,o),
(547,301,o),
(498,348,cs),
(344,495,ls),
(341,498,o),
(338,499,o),
(335,499,cs),
(328,499,o),
(322,493,o),
(322,486,cs),
(322,483,o),
(323,479,o),
(325,477,cs),
(480,330,ls),
(525,287,o),
(543,244,o),
(543,204,cs),
(543,102,o),
(467,25,o),
(365,25,cs),
(188,25,ls),
(181,25,o),
(175,20,o),
(175,13,cs),
(175,5,o),
(181,0,o),
(188,0,cs)
);
}
);
width = 612;
},
{
hints = (
{
horizontal = 1;
place = (-14,26);
type = Stem;
},
{
horizontal = 1;
place = (324,26);
type = Stem;
},
{
horizontal = 1;
place = (396,26);
type = Stem;
},
{
horizontal = 1;
place = (634,26);
type = Stem;
},
{
place = (152,26);
type = Stem;
},
{
place = (236,27);
type = Stem;
},
{
place = (403,26);
type = Stem;
},
{
place = (498,26);
type = Stem;
},
{
horizontal = 1;
place = (-16,26);
type = Stem;
}
);
layerId = m004;
shapes = (
{
closed = 1;
nodes = (
(153,0,o),
(180,27,o),
(180,60,cs),
(180,540,l),
(349,540,l),
(82,288,ls),
(70,277,o),
(62,261,o),
(62,244,cs),
(62,211,o),
(90,184,o),
(123,184,cs),
(139,184,o),
(154,191,o),
(164,201,cs),
(513,529,ls),
(568,581,o),
(536,660,o),
(461,660,cs),
(113,660,ls),
(82,660,o),
(60,638,o),
(60,607,cs),
(60,60,ls),
(60,27,o),
(87,0,o),
(120,0,cs)
);
},
{
closed = 1;
nodes = (
(423,0,ls),
(556,0,o),
(663,108,o),
(663,240,cs),
(663,295,o),
(636,357,o),
(582,410,cs),
(470,517,ls),
(460,527,o),
(445,534,o),
(429,534,cs),
(396,534,o),
(368,507,o),
(368,474,cs),
(368,457,o),
(375,441,o),
(387,431,cs),
(498,323,ls),
(534,288,o),
(543,268,o),
(543,240,cs),
(543,163,o),
(501,120,o),
(423,120,cs),
(289,120,ls),
(256,120,o),
(229,93,o),
(229,60,cs),
(229,27,o),
(256,0,o),
(289,0,cs)
);
}
);
width = 706;
}
);
unicode = 7838;
},
{
glyphname = T;
kernLeft = T;
kernRight = T;
lastChange = "2025-01-07 14:49:27 +0000";
layers = (
{
anchors = (
{
name = bottom;
pos = (306,0);
},
{
name = center;
pos = (318,330);
},
{
name = top;
pos = (306,660);
}
);
background = {
hints = (
{
horizontal = 1;
place = (-13,21);
target = up;
type = BottomGhost;
},
{
place = (314,26);
type = Stem;
}
);
shapes = (
{
closed = 1;
nodes = (
(302,620,l),
(302,0,ls),
(302,-9,o),
(307,-13,o),
(316,-13,cs),
(324,-13,o),
(329,-9,o),
(329,0,cs),
(329,620,l),
(574,430,ls),
(581,425,o),
(587,425,o),
(592,432,cs),
(594,436,o),
(596,439,o),
(596,441,cs),
(596,445,o),
(593,448,o),
(590,451,cs),
(323,657,l),
(316,660,l),
(312,660,o),
(310,659,o),
(308,657,cs),
(41,451,ls),
(37,448,o),
(35,445,o),
(35,441,cs),
(35,439,o),
(37,436,o),
(39,432,cs),
(44,425,o),
(50,425,o),
(57,430,cs)
);
}
);
};
layerId = "12AF635E-66FE-4C90-B49C-8787585F2B73";
shapes = (
{
closed = 1;
nodes = (
(46,435,o),
(48,436,o),
(51,438,cs),
(306,630,l),
(562,438,ls),
(563,436,o),
(567,435,o),
(569,435,cs),
(577,435,o),
(582,440,o),
(582,447,cs),
(582,452,o),
(580,456,o),
(578,458,cs),
(314,657,ls),
(309,661,o),
(302,661,o),
(298,657,cs),
(35,458,ls),
(32,456,o),
(30,452,o),
(30,447,cs),
(30,440,o),
(36,435,o),
(43,435,cs)
);
},
{
closed = 1;
nodes = (
(313,0,o),
(319,5,o),
(319,13,cs),
(319,643,ls),
(319,650,o),
(313,656,o),
(306,656,cs),
(299,656,o),
(293,650,o),
(293,643,cs),
(293,13,ls),
(293,5,o),
(299,0,o),
(306,0,cs)
);
}
);
width = 612;
},
{
anchors = (
{
name = bottom;
pos = (319,0);
},
{
name = center;
pos = (331,330);
},
{
name = top;
pos = (319,660);
}
);
background = {
hints = (
{
horizontal = 1;
place = (-13,21);
target = up;
type = BottomGhost;
},
{
place = (314,26);
type = Stem;
}
);
shapes = (
{
closed = 1;
nodes = (
(316,620,l),
(316,0,ls),
(316,-9,o),
(320,-13,o),
(329,-13,cs),
(338,-13,o),
(342,-9,o),
(342,0,cs),
(342,620,l),
(587,430,ls),
(594,425,o),
(600,425,o),
(606,432,cs),
(607,436,o),
(609,439,o),
(609,441,cs),
(609,445,o),
(607,448,o),
(603,451,cs),
(337,657,l),
(329,660,l),
(326,660,o),
(323,659,o),
(321,657,cs),
(54,451,ls),
(51,448,o),
(48,445,o),
(48,441,cs),
(48,439,o),
(50,436,o),
(52,432,cs),
(57,425,o),
(63,425,o),
(70,430,cs)
);
}
);
};
layerId = m004;
shapes = (
{
closed = 1;
nodes = (
(104,363,o),
(116,367,o),
(127,375,cs),
(319,521,l),
(512,375,ls),
(522,367,o),
(534,363,o),
(548,363,cs),
(582,363,o),
(608,390,o),
(608,423,cs),
(608,442,o),
(600,460,o),
(585,471,cs),
(348,650,ls),
(331,664,o),
(309,664,o),
(290,650,cs),
(54,471,ls),
(39,460,o),
(30,442,o),
(30,423,cs),
(30,390,o),
(56,363,o),
(91,363,cs)
);
},
{
closed = 1;
nodes = (
(352,0,o),
(380,27,o),
(380,60,cs),
(380,592,ls),
(380,624,o),
(352,651,o),
(319,651,cs),
(287,651,o),
(259,624,o),
(259,592,cs),
(259,60,ls),
(259,27,o),
(287,0,o),
(319,0,cs)
);
}
);
width = 639;
}
);
note = T;
unicode = 84;
},
{
glyphname = Tbar;
kernLeft = T;
kernRight = T;
lastChange = "2025-01-07 14:49:27 +0000";
layers = (
{
layerId = "12AF635E-66FE-4C90-B49C-8787585F2B73";
shapes = (
{
closed = 1;
nodes = (
(472,267,ls),
(479,267,o),
(484,273,o),
(484,280,cs),
(484,287,o),
(479,293,o),
(472,293,cs),
(163,293,ls),
(156,293,o),
(150,287,o),
(150,280,cs),
(150,273,o),
(156,267,o),
(163,267,cs)
);
},
{
ref = T;
}
);
width = 659;
},
{
layerId = m004;
shapes = (
{
closed = 1;
nodes = (
(472,211,ls),
(505,211,o),
(532,238,o),
(532,271,cs),
(532,304,o),
(505,331,o),
(472,331,cs),
(163,331,ls),
(130,331,o),
(104,304,o),
(104,271,cs),
(104,238,o),
(130,211,o),
(163,211,cs)
);
},
{
ref = T;
}
);
width = 659;
}
);
unicode = 358;
},
{
glyphname = U;
kernLeft = H;
kernRight = H;
lastChange = "2025-01-07 14:49:27 +0000";
layers = (
{
anchors = (
{
name = bottom;
pos = (294,0);
},
{
name = ogonek;
pos = (339,4);
},
{
name = top;
pos = (294,660);
},
{
name = topright;
pos = (527,647);
}
);
background = {
hints = (
{
horizontal = 1;
place = (-13,26);
type = Stem;
},
{
place = (57,26);
type = Stem;
},
{
place = (498,26);
type = Stem;
}
);
shapes = (
{
closed = 1;
nodes = (
(61,206,ls),
(61,146,o),
(84,94,o),
(129,51,cs),
(176,8,o),
(230,-13,o),
(294,-13,cs),
(359,-13,o),
(414,7,o),
(460,49,cs),
(505,91,o),
(528,143,o),
(528,206,cs),
(528,648,ls),
(528,655,o),
(521,661,o),
(514,661,cs),
(507,661,o),
(501,655,o),
(501,648,cs),
(501,206,ls),
(501,150,o),
(481,105,o),
(441,68,cs),
(402,32,o),
(352,13,o),
(294,13,cs),
(237,13,o),
(188,33,o),
(148,70,cs),
(108,109,o),
(88,154,o),
(88,206,cs),
(88,648,ls),
(88,665,o),
(61,665,o),
(61,648,cs)
);
}
);
};
layerId = "12AF635E-66FE-4C90-B49C-8787585F2B73";
shapes = (
{
closed = 1;
nodes = (
(423,-13,o),
(527,83,o),
(527,212,cs),
(527,647,ls),
(527,655,o),
(522,660,o),
(514,660,cs),
(507,660,o),
(502,655,o),
(502,647,cs),
(502,212,ls),
(502,95,o),
(410,12,o),
(294,12,cs),
(177,12,o),
(86,95,o),
(86,212,cs),
(86,647,ls),
(86,655,o),
(80,660,o),
(73,660,cs),
(66,660,o),
(60,655,o),
(60,647,cs),
(60,212,ls),
(60,83,o),
(165,-13,o),
(294,-13,cs)
);
}
);
width = 587;
},
{
anchors = (
{
name = bottom;
pos = (342,0);
},
{
name = ogonek;
pos = (369,30);
},
{
name = top;
pos = (342,660);
},
{
name = topright;
pos = (622,600);
}
);
background = {
hints = (
{
horizontal = 1;
place = (-13,26);
type = Stem;
},
{
place = (57,26);
type = Stem;
},
{
place = (498,26);
type = Stem;
}
);
shapes = (
{
closed = 1;
nodes = (
(108,206,ls),
(108,146,o),
(131,94,o),
(177,51,cs),
(222,8,o),
(277,-13,o),
(341,-13,cs),
(406,-13,o),
(461,7,o),
(507,49,cs),
(552,91,o),
(575,143,o),
(575,206,cs),
(575,648,ls),
(575,655,o),
(569,661,o),
(562,661,cs),
(554,661,o),
(548,655,o),
(548,648,cs),
(548,206,ls),
(548,150,o),
(528,105,o),
(489,68,cs),
(448,32,o),
(399,13,o),
(341,13,cs),
(284,13,o),
(236,33,o),
(195,70,cs),
(155,109,o),
(134,154,o),
(134,206,cs),
(134,648,ls),
(135,665,o),
(108,665,o),
(108,648,cs)
);
}
);
};
layerId = m004;
shapes = (
{
closed = 1;
nodes = (
(495,-13,o),
(622,103,o),
(622,258,cs),
(622,600,ls),
(622,633,o),
(595,660,o),
(562,660,cs),
(529,660,o),
(502,633,o),
(502,600,cs),
(502,258,ls),
(502,163,o),
(440,107,o),
(341,107,cs),
(242,107,o),
(180,163,o),
(180,258,cs),
(180,600,ls),
(180,633,o),
(153,660,o),
(120,660,cs),
(87,660,o),
(60,633,o),
(60,600,cs),
(60,258,ls),
(60,103,o),
(186,-13,o),
(341,-13,cs)
);
}
);
width = 682;
}
);
note = U;
unicode = 85;
},
{
glyphname = V;
kernLeft = V;
kernRight = V;
lastChange = "2025-01-07 14:49:27 +0000";
layers = (
{
anchors = (
{
name = _bottom;
pos = (343,0);
},
{
name = top;
pos = (343,660);
}
);
layerId = m004;
name = Bold;
shapes = (
{
closed = 1;
nodes = (
(343,178,l),
(132,626,ls),
(122,646,o),
(101,660,o),
(77,660,cs),
(44,660,o),
(18,633,o),
(18,600,cs),
(18,591,o),
(19,582,o),
(23,574,cs),
(280,32,ls),
(294,2,o),
(318,-13,o),
(343,-13,cs),
(367,-13,o),
(392,2,o),
(406,32,cs),
(663,574,ls),
(666,582,o),
(669,591,o),
(669,600,cs),
(669,633,o),
(642,660,o),
(608,660,cs),
(585,660,o),
(563,646,o),
(554,626,cs)
);
}
);
width = 686;
},
{
anchors = (
{
name = _bottom;
pos = (338,-6);
},
{
name = top;
pos = (338,654);
}
);
layerId = "12AF635E-66FE-4C90-B49C-8787585F2B73";
name = Light;
shapes = (
{
closed = 1;
nodes = (
(338,24,l),
(41,653,ls),
(40,657,o),
(35,660,o),
(30,660,cs),
(23,660,o),
(18,655,o),
(18,647,cs),
(18,645,o),
(18,643,o),
(18,642,cs),
(323,-1,ls),
(326,-9,o),
(332,-13,o),
(338,-13,cs),
(345,-13,o),
(352,-9,o),
(355,-1,cs),
(659,642,ls),
(660,643,o),
(660,645,o),
(660,647,cs),
(660,655,o),
(655,660,o),
(648,660,cs),
(643,660,o),
(638,657,o),
(636,653,cs)
);
}
);
width = 678;
}
);
note = V;
unicode = 86;
},
{
glyphname = X;
kernLeft = X;
kernRight = X;
lastChange = "2025-01-07 14:49:27 +0000";
layers = (
{
anchors = (
{
name = bottom;
pos = (299,0);
},
{
name = top;
pos = (299,660);
}
);
background = {
hints = (
{
horizontal = 1;
place = (-14,26);
type = Stem;
},
{
place = (82,573);
type = Stem;
}
);
shapes = (
{
closed = 1;
nodes = (
(574,-14,l),
(579,-14,o),
(584,-11,o),
(586,-6,cs),
(587,-4,o),
(587,-3,o),
(587,0,cs),
(587,3,o),
(586,5,o),
(585,8,cs),
(317,340,l),
(556,638,ls),
(562,645,o),
(561,651,o),
(554,657,cs),
(551,659,o),
(548,660,o),
(546,660,cs),
(542,660,o),
(539,658,o),
(536,655,cs),
(301,361,l),
(65,655,ls),
(62,658,o),
(58,660,o),
(55,660,cs),
(52,660,o),
(49,659,o),
(46,657,cs),
(40,651,o),
(39,645,o),
(44,638,c),
(284,340,l),
(18,8,ls),
(16,5,o),
(15,3,o),
(15,0,cs),
(15,-3,o),
(15,-4,o),
(17,-6,cs),
(18,-11,o),
(23,-14,o),
(28,-14,c)
);
},
{
closed = 1;
nodes = (
(547,12,l),
(55,12,l),
(301,319,l)
);
}
);
};
layerId = "12AF635E-66FE-4C90-B49C-8787585F2B73";
shapes = (
{
closed = 1;
nodes = (
(55,644,o),
(56,642,o),
(58,639,cs),
(284,357,l),
(22,29,ls),
(11,16,o),
(19,0,o),
(36,0,cs),
(564,0,ls),
(580,0,o),
(588,16,o),
(578,29,cs),
(316,357,l),
(542,639,ls),
(544,641,o),
(545,644,o),
(545,647,cs),
(545,654,o),
(540,660,o),
(532,660,cs),
(528,660,o),
(525,658,o),
(522,656,cs),
(300,377,l),
(77,656,ls),
(76,658,o),
(72,660,o),
(68,660,cs),
(61,660,o),
(55,654,o),
(55,647,cs)
);
},
{
closed = 1;
nodes = (
(300,336,l),
(548,25,l),
(52,25,l)
);
}
);
width = 600;
},
{
anchors = (
{
name = bottom;
pos = (309,0);
},
{
name = top;
pos = (309,660);
}
);
background = {
hints = (
{
horizontal = 1;
place = (-14,26);
type = Stem;
},
{
place = (82,573);
type = Stem;
}
);
shapes = (
{
closed = 1;
nodes = (
(583,-14,l),
(588,-14,o),
(592,-11,o),
(595,-6,cs),
(596,-4,o),
(597,-3,o),
(597,0,cs),
(597,3,o),
(596,5,o),
(593,8,cs),
(326,340,l),
(565,638,ls),
(570,645,o),
(570,651,o),
(563,657,cs),
(560,659,o),
(557,660,o),
(555,660,cs),
(551,660,o),
(548,658,o),
(545,655,cs),
(309,361,l),
(74,655,ls),
(71,658,o),
(68,660,o),
(64,660,cs),
(61,660,o),
(58,659,o),
(55,657,cs),
(48,651,o),
(47,645,o),
(53,638,c),
(293,340,l),
(26,8,ls),
(25,5,o),
(24,3,o),
(24,0,cs),
(24,-3,o),
(24,-4,o),
(25,-6,cs),
(28,-11,o),
(32,-14,o),
(37,-14,c)
);
},
{
closed = 1;
nodes = (
(556,12,l),
(64,12,l),
(309,319,l)
);
}
);
};
layerId = m004;
name = Bold;
shapes = (
{
closed = 1;
nodes = (
(29,584,o),
(37,570,o),
(48,556,cs),
(229,346,l),
(39,126,ls),
(-5,74,o),
(20,0,o),
(91,0,cs),
(527,0,ls),
(598,0,o),
(626,71,o),
(579,126,cs),
(388,347,l),
(569,558,ls),
(578,569,o),
(586,584,o),
(586,600,cs),
(586,633,o),
(559,660,o),
(526,660,cs),
(510,660,o),
(494,655,o),
(484,643,cs),
(309,439,l),
(132,642,ls),
(122,654,o),
(106,660,o),
(90,660,cs),
(55,660,o),
(29,633,o),
(29,600,cs)
);
},
{
closed = 1;
nodes = (
(309,255,l),
(425,120,l),
(193,120,l)
);
}
);
width = 620;
}
);
note = X;
unicode = 88;
},
{
glyphname = Y;
kernLeft = Y;
kernRight = Y;
lastChange = "2025-01-07 14:49:27 +0000";
layers = (
{
anchors = (
{
name = bottom;
pos = (325,0);
},
{
name = top;
pos = (325,660);
},
{
name = topleft;
pos = (325,660);
}
);
background = {
hints = (
{
horizontal = 1;
place = (-13,21);
target = up;
type = BottomGhost;
},
{
horizontal = 1;
place = (634,26);
type = Stem;
},
{
place = (316,26);
type = Stem;
}
);
shapes = (
{
closed = 1;
nodes = (
(313,309,l),
(313,0,ls),
(313,-9,o),
(317,-13,o),
(326,-13,cs),
(335,-13,o),
(339,-9,o),
(339,0,cs),
(339,309,l),
(632,638,ls),
(635,641,o),
(636,643,o),
(636,646,cs),
(636,649,o),
(635,650,o),
(634,652,cs),
(631,657,o),
(628,660,o),
(622,660,cs),
(40,660,ls),
(35,660,o),
(31,657,o),
(28,653,cs),
(27,650,o),
(27,649,o),
(26,647,c),
(27,643,o),
(28,641,o),
(30,638,c)
);
},
{
closed = 1;
nodes = (
(326,334,l),
(69,634,l),
(592,634,l)
);
}
);
};
layerId = "12AF635E-66FE-4C90-B49C-8787585F2B73";
shapes = (
{
closed = 1;
nodes = (
(628,629,ls),
(639,643,o),
(630,660,o),
(614,660,cs),
(37,660,ls),
(19,660,o),
(11,643,o),
(22,629,cs),
(325,284,l)
);
},
{
closed = 1;
nodes = (
(332,0,o),
(338,5,o),
(338,13,cs),
(338,305,ls),
(338,312,o),
(332,318,o),
(325,318,cs),
(317,318,o),
(312,312,o),
(312,305,cs),
(312,13,ls),
(312,5,o),
(317,0,o),
(325,0,cs)
);
},
{
closed = 1;
nodes = (
(53,635,l),
(598,635,l),
(325,323,l)
);
}
);
width = 650;
},
{
anchors = (
{
name = bottom;
pos = (367,0);
},
{
name = top;
pos = (367,660);
},
{
name = topleft;
pos = (367,660);
}
);
background = {
hints = (
{
horizontal = 1;
place = (-13,21);
target = up;
type = BottomGhost;
},
{
horizontal = 1;
place = (634,26);
type = Stem;
},
{
place = (316,26);
type = Stem;
}
);
shapes = (
{
closed = 1;
nodes = (
(356,309,l),
(356,0,ls),
(356,-9,o),
(360,-13,o),
(369,-13,cs),
(378,-13,o),
(382,-9,o),
(382,0,cs),
(382,309,l),
(675,638,ls),
(678,641,o),
(678,643,o),
(678,646,cs),
(678,649,o),
(678,650,o),
(677,652,cs),
(674,657,o),
(671,660,o),
(665,660,cs),
(84,660,ls),
(77,660,o),
(73,657,o),
(71,653,cs),
(70,650,o),
(70,649,o),
(69,647,c),
(70,643,o),
(71,641,o),
(73,638,c)
);
},
{
closed = 1;
nodes = (
(369,334,l),
(112,634,l),
(636,634,l)
);
}
);
};
layerId = m004;
shapes = (
{
closed = 1;
nodes = (
(697,541,ls),
(742,592,o),
(711,660,o),
(643,660,cs),
(91,660,ls),
(25,660,o),
(-6,592,o),
(38,541,cs),
(367,165,l)
);
},
{
closed = 1;
nodes = (
(401,0,o),
(428,27,o),
(428,60,cs),
(428,269,ls),
(428,301,o),
(401,329,o),
(367,329,cs),
(335,329,o),
(308,301,o),
(308,269,cs),
(308,60,ls),
(308,27,o),
(335,0,o),
(367,0,cs)
);
},
{
closed = 1;
nodes = (
(200,540,l),
(536,540,l),
(367,348,l)
);
}
);
width = 736;
}
);
note = Y;
unicode = 89;
},
{
glyphname = Z;
kernLeft = Z;
kernRight = Z;
lastChange = "2025-01-07 14:49:27 +0000";
layers = (
{
anchors = (
{
name = bottom;
pos = (287,0);
},
{
name = center;
pos = (287,330);
},
{
name = top;
pos = (287,660);
}
);
background = {
hints = (
{
horizontal = 1;
place = (-13,26);
type = Stem;
},
{
horizontal = 1;
place = (634,26);
type = Stem;
},
{
place = (76,576);
type = Stem;
}
);
shapes = (
{
closed = 1;
nodes = (
(562,-13,ls),
(570,-13,o),
(575,-9,o),
(575,0,cs),
(575,9,o),
(570,13,o),
(562,13,cs),
(40,13,l),
(534,639,l),
(539,643,o),
(539,648,o),
(536,652,cs),
(534,657,o),
(530,660,o),
(525,660,cs),
(74,660,ls),
(64,660,o),
(57,647,o),
(64,639,cs),
(278,357,l),
(2,8,l),
(0,5,o),
(-1,3,o),
(-1,0,cs),
(-1,-2,o),
(0,-4,o),
(1,-5,cs),
(4,-11,o),
(7,-13,o),
(13,-13,c)
);
},
{
closed = 1;
nodes = (
(294,378,l),
(101,634,l),
(497,634,l)
);
}
);
};
layerId = "12AF635E-66FE-4C90-B49C-8787585F2B73";
shapes = (
{
closed = 1;
nodes = (
(531,0,ls),
(538,0,o),
(544,5,o),
(544,13,cs),
(544,20,o),
(538,25,o),
(531,25,cs),
(53,25,l),
(534,631,ls),
(544,643,o),
(535,660,o),
(519,660,cs),
(61,660,ls),
(45,660,o),
(36,644,o),
(47,631,cs),
(274,347,l),
(22,29,ls),
(11,17,o),
(19,0,o),
(36,0,cs)
);
},
{
closed = 1;
nodes = (
(77,635,l),
(503,635,l),
(291,367,l)
);
}
);
width = 561;
},
{
anchors = (
{
name = bottom;
pos = (286,0);
},
{
name = center;
pos = (286,330);
},
{
name = top;
pos = (286,660);
}
);
background = {
hints = (
{
horizontal = 1;
place = (-13,26);
type = Stem;
},
{
horizontal = 1;
place = (634,26);
type = Stem;
},
{
place = (76,576);
type = Stem;
}
);
shapes = (
{
closed = 1;
nodes = (
(561,-13,ls),
(570,-13,o),
(574,-9,o),
(574,0,cs),
(574,9,o),
(570,13,o),
(561,13,cs),
(40,13,l),
(534,639,l),
(538,643,o),
(539,648,o),
(535,652,cs),
(533,657,o),
(529,660,o),
(524,660,cs),
(74,660,ls),
(63,660,o),
(56,647,o),
(63,639,cs),
(278,357,l),
(2,8,l),
(0,5,o),
(-1,3,o),
(-1,0,cs),
(-1,-2,o),
(-1,-4,o),
(0,-5,cs),
(3,-11,o),
(7,-13,o),
(12,-13,c)
);
},
{
closed = 1;
nodes = (
(294,378,l),
(100,634,l),
(497,634,l)
);
}
);
};
layerId = m004;
shapes = (
{
closed = 1;
nodes = (
(521,0,ls),
(554,0,o),
(581,27,o),
(581,60,cs),
(581,93,o),
(554,120,o),
(521,120,cs),
(203,120,l),
(544,548,ls),
(585,598,o),
(554,660,o),
(490,660,cs),
(90,660,ls),
(25,660,o),
(-4,598,o),
(35,548,cs),
(219,317,l),
(44,113,l),
(4,62,o),
(34,0,o),
(98,0,cs)
);
},
{
closed = 1;
nodes = (
(194,540,l),
(385,540,l),
(290,421,l)
);
}
);
width = 599;
}
);
note = Z;
unicode = 90;
},
{
glyphname = a;
kernLeft = A;
kernRight = A;
lastChange = "2025-01-07 14:49:27 +0000";
layers = (
{
anchors = (
{
name = bottom;
pos = (366,0);
},
{
name = ogonek;
pos = (686,6);
},
{
name = top;
pos = (366,660);
}
);
background = {
shapes = (
{
closed = 1;
nodes = (
(14,6,ls),
(12,4,o),
(11,1,o),
(11,-1,cs),
(11,-5,o),
(14,-9,o),
(18,-11,cs),
(26,-16,o),
(33,-14,o),
(37,-6,cs),
(177,258,l),
(355,-7,ls),
(358,-11,o),
(362,-13,o),
(367,-13,cs),
(370,-13,o),
(374,-11,o),
(378,-7,cs),
(555,259,l),
(695,-6,ls),
(697,-11,o),
(701,-14,o),
(705,-14,cs),
(708,-14,o),
(710,-13,o),
(713,-11,cs),
(717,-9,o),
(720,-5,o),
(720,-1,cs),
(720,1,o),
(719,4,o),
(717,6,cs),
(377,653,ls),
(374,658,o),
(369,660,o),
(365,660,cs),
(360,660,o),
(356,658,o),
(352,653,c),
(165,294,l),
(163,293,o),
(162,290,o),
(162,287,c)
);
},
{
closed = 1;
nodes = (
(367,24,l),
(189,285,l),
(366,619,l),
(541,286,l)
);
}
);
};
layerId = "12AF635E-66FE-4C90-B49C-8787585F2B73";
shapes = (
{
ref = A;
}
);
width = 730;
},
{
anchors = (
{
name = bottom;
pos = (365,0);
},
{
name = ogonek;
pos = (636,54);
},
{
name = top;
pos = (365,660);
}
);
background = {
shapes = (
{
closed = 1;
nodes = (
(13,6,ls),
(11,4,o),
(11,1,o),
(11,-1,cs),
(11,-5,o),
(13,-9,o),
(18,-11,cs),
(25,-16,o),
(32,-14,o),
(36,-6,cs),
(176,258,l),
(354,-7,ls),
(357,-11,o),
(361,-13,o),
(366,-13,cs),
(369,-13,o),
(374,-11,o),
(377,-7,cs),
(554,259,l),
(694,-6,ls),
(696,-11,o),
(700,-14,o),
(704,-14,cs),
(707,-14,o),
(709,-13,o),
(712,-11,cs),
(716,-9,o),
(719,-5,o),
(719,-1,cs),
(719,1,o),
(718,4,o),
(716,6,cs),
(376,653,ls),
(374,658,o),
(368,660,o),
(364,660,cs),
(360,660,o),
(355,658,o),
(352,653,c),
(164,294,l),
(163,293,o),
(161,290,o),
(161,287,c)
);
},
{
closed = 1;
nodes = (
(366,24,l),
(188,285,l),
(365,619,l),
(541,286,l)
);
}
);
};
layerId = m004;
shapes = (
{
ref = A;
}
);
width = 727;
}
);
note = A;
unicode = 97;
},
{
glyphname = b;
kernLeft = H;
kernRight = B;
lastChange = "2025-01-07 14:49:27 +0000";
layers = (
{
anchors = (
{
name = bottom;
pos = (283,0);
},
{
name = center;
pos = (283,330);
},
{
name = top;
pos = (283,660);
}
);
background = {
hints = (
{
horizontal = 1;
place = (-13,26);
type = Stem;
},
{
horizontal = 1;
place = (226,26);
type = Stem;
},
{
horizontal = 1;
place = (496,26);
type = Stem;
},
{
horizontal = 1;
place = (634,26);
type = Stem;
},
{
place = (75,26);
type = Stem;
},
{
place = (534,26);
type = Stem;
}
);
shapes = (
{
closed = 1;
nodes = (
(48,0,ls),
(48,-9,o),
(53,-13,o),
(62,-13,cs),
(267,-13,ls),
(341,-13,o),
(404,13,o),
(456,65,cs),
(509,117,o),
(534,180,o),
(534,254,cs),
(534,332,o),
(501,403,o),
(446,454,c),
(443,511,o),
(421,560,o),
(379,599,cs),
(337,640,o),
(287,660,o),
(229,660,cs),
(62,660,ls),
(53,660,o),
(48,656,o),
(48,647,cs)
);
},
{
closed = 1;
nodes = (
(75,522,l),
(75,634,l),
(229,634,ls),
(275,634,o),
(316,619,o),
(352,589,cs),
(387,559,o),
(409,521,o),
(417,476,c),
(372,507,o),
(322,522,o),
(267,522,cs)
);
},
{
closed = 1;
nodes = (
(75,252,l),
(75,496,l),
(267,496,ls),
(324,496,o),
(374,477,o),
(419,441,c),
(419,389,o),
(400,345,o),
(363,308,cs),
(325,271,o),
(280,252,o),
(229,252,cs)
);
},
{
closed = 1;
nodes = (
(75,13,l),
(75,226,l),
(229,226,ls),
(284,226,o),
(331,244,o),
(374,281,cs),
(415,318,o),
(439,364,o),
(444,418,c),
(487,372,o),
(508,317,o),
(508,254,cs),
(508,187,o),
(484,131,o),
(438,84,cs),
(390,37,o),
(333,13,o),
(267,13,cs)
);
}
);
};
layerId = "12AF635E-66FE-4C90-B49C-8787585F2B73";
name = Light;
shapes = (
{
ref = B;
}
);
width = 577;
},
{
anchors = (
{
name = bottom;
pos = (311,0);
},
{
name = center;
pos = (311,330);
},
{
name = top;
pos = (311,660);
}
);
background = {
hints = (
{
horizontal = 1;
place = (-13,26);
type = Stem;
},
{
horizontal = 1;
place = (226,26);
type = Stem;
},
{
horizontal = 1;
place = (496,26);
type = Stem;
},
{
horizontal = 1;
place = (634,26);
type = Stem;
},
{
place = (75,26);
type = Stem;
},
{
place = (534,26);
type = Stem;
}
);
shapes = (
{
closed = 1;
nodes = (
(77,0,ls),
(77,-9,o),
(82,-13,o),
(91,-13,cs),
(296,-13,ls),
(370,-13,o),
(433,13,o),
(485,65,cs),
(537,117,o),
(563,180,o),
(563,254,cs),
(563,332,o),
(530,403,o),
(475,454,c),
(472,511,o),
(449,560,o),
(407,599,cs),
(366,640,o),
(316,660,o),
(258,660,cs),
(91,660,ls),
(82,660,o),
(77,656,o),
(77,647,cs)
);
},
{
closed = 1;
nodes = (
(104,522,l),
(104,634,l),
(258,634,ls),
(304,634,o),
(345,619,o),
(381,589,cs),
(416,559,o),
(438,521,o),
(446,476,c),
(401,507,o),
(351,522,o),
(296,522,cs)
);
},
{
closed = 1;
nodes = (
(104,252,l),
(104,496,l),
(296,496,ls),
(352,496,o),
(403,477,o),
(448,441,c),
(447,389,o),
(429,345,o),
(391,308,cs),
(354,271,o),
(309,252,o),
(258,252,cs)
);
},
{
closed = 1;
nodes = (
(104,13,l),
(104,226,l),
(258,226,ls),
(312,226,o),
(360,244,o),
(403,281,cs),
(444,318,o),
(468,364,o),
(473,418,c),
(515,372,o),
(537,317,o),
(537,254,cs),
(537,187,o),
(513,131,o),
(466,84,cs),
(419,37,o),
(362,13,o),
(296,13,cs)
);
}
);
};
layerId = m004;
name = Bold;
shapes = (
{
ref = B;
}
);
width = 613;
}
);
note = B;
unicode = 98;
},
{
glyphname = c;
kernLeft = O;
kernRight = C;
lastChange = "2025-01-07 14:49:27 +0000";
layers = (
{
anchors = (
{
name = bottom;
pos = (354,-4);
},
{
name = top;
pos = (386,662);
}
);
background = {
hints = (
{
horizontal = 1;
place = (-14,26);
type = Stem;
},
{
horizontal = 1;
place = (636,26);
type = Stem;
},
{
place = (33,26);
type = Stem;
}
);
shapes = (
{
closed = 1;
nodes = (
(63,441,o),
(47,385,o),
(47,323,cs),
(47,263,o),
(63,206,o),
(94,154,cs),
(124,102,o),
(164,62,o),
(215,32,cs),
(268,1,o),
(325,-14,o),
(386,-14,cs),
(427,-14,o),
(469,-6,o),
(507,9,cs),
(546,24,o),
(580,44,o),
(610,71,cs),
(614,74,o),
(615,77,o),
(615,81,cs),
(615,84,o),
(614,87,o),
(611,90,cs),
(606,96,o),
(599,96,o),
(592,91,cs),
(564,66,o),
(533,47,o),
(498,33,cs),
(461,19,o),
(425,12,o),
(386,12,cs),
(330,12,o),
(277,26,o),
(229,54,cs),
(182,82,o),
(145,120,o),
(117,167,cs),
(89,215,o),
(74,267,o),
(74,323,cs),
(74,380,o),
(89,432,o),
(117,481,cs),
(145,527,o),
(182,565,o),
(229,592,cs),
(277,621,o),
(330,636,o),
(386,636,cs),
(425,636,o),
(461,628,o),
(498,614,cs),
(532,601,o),
(564,582,o),
(592,557,cs),
(599,551,o),
(605,552,o),
(610,559,cs),
(613,562,o),
(614,565,o),
(614,568,cs),
(614,571,o),
(613,575,o),
(609,578,cs),
(578,604,o),
(545,624,o),
(507,639,cs),
(468,654,o),
(427,662,o),
(386,662,cs),
(325,662,o),
(268,647,o),
(215,615,cs),
(164,585,o),
(124,545,o),
(94,494,cs)
);
}
);
};
layerId = "12AF635E-66FE-4C90-B49C-8787585F2B73";
shapes = (
{
ref = C;
}
);
width = 664;
},
{
anchors = (
{
name = bottom;
pos = (337,-13);
},
{
name = top;
pos = (386,660);
}
);
background = {
hints = (
{
horizontal = 1;
place = (-14,26);
type = Stem;
},
{
horizontal = 1;
place = (636,26);
type = Stem;
},
{
place = (33,26);
type = Stem;
}
);
shapes = (
{
closed = 1;
nodes = (
(63,441,o),
(47,385,o),
(47,323,cs),
(47,263,o),
(63,206,o),
(94,154,cs),
(124,102,o),
(164,62,o),
(215,32,cs),
(268,1,o),
(325,-14,o),
(386,-14,cs),
(427,-14,o),
(469,-6,o),
(507,9,cs),
(546,24,o),
(580,44,o),
(610,71,cs),
(614,74,o),
(615,77,o),
(615,81,cs),
(615,84,o),
(614,87,o),
(611,90,cs),
(606,96,o),
(599,96,o),
(592,91,cs),
(564,66,o),
(533,47,o),
(498,33,cs),
(461,19,o),
(425,12,o),
(386,12,cs),
(330,12,o),
(277,26,o),
(229,54,cs),
(182,82,o),
(145,120,o),
(117,167,cs),
(89,215,o),
(74,267,o),
(74,323,cs),
(74,380,o),
(89,432,o),
(117,481,cs),
(145,527,o),
(182,565,o),
(229,592,cs),
(277,621,o),
(330,636,o),
(386,636,cs),
(425,636,o),
(461,628,o),
(498,614,cs),
(532,601,o),
(564,582,o),
(592,557,cs),
(599,551,o),
(605,552,o),
(610,559,cs),
(613,562,o),
(614,565,o),
(614,568,cs),
(614,571,o),
(613,575,o),
(609,578,cs),
(578,604,o),
(545,624,o),
(507,639,cs),
(468,654,o),
(427,662,o),
(386,662,cs),
(325,662,o),
(268,647,o),
(215,615,cs),
(164,585,o),
(124,545,o),
(94,494,cs)
);
}
);
};
layerId = m004;
shapes = (
{
ref = C;
}
);
width = 672;
}
);
note = C;
unicode = 99;
},
{
glyphname = d;
kernLeft = H;
kernRight = O;
lastChange = "2025-01-07 14:49:27 +0000";
layers = (
{
anchors = (
{
name = bottom;
pos = (271,0);
},
{
name = center;
pos = (271,330);
},
{
name = top;
pos = (242,660);
}
);
background = {
hints = (
{
horizontal = 1;
place = (-13,26);
type = Stem;
},
{
horizontal = 1;
place = (634,26);
type = Stem;
},
{
place = (82,26);
type = Stem;
},
{
place = (535,26);
type = Stem;
}
);
shapes = (
{
closed = 1;
nodes = (
(54,0,ls),
(54,-9,o),
(58,-13,o),
(68,-13,cs),
(199,-13,ls),
(312,-13,o),
(402,23,o),
(454,85,cs),
(507,147,o),
(534,229,o),
(534,323,cs),
(534,420,o),
(509,499,o),
(456,562,cs),
(404,623,o),
(315,660,o),
(199,660,cs),
(68,660,ls),
(59,660,o),
(54,655,o),
(54,647,cs)
);
},
{
closed = 1;
nodes = (
(81,13,l),
(81,634,l),
(199,634,ls),
(308,634,o),
(390,600,o),
(438,541,cs),
(485,483,o),
(508,411,o),
(508,323,cs),
(508,236,o),
(484,163,o),
(436,105,cs),
(388,47,o),
(305,13,o),
(199,13,cs)
);
}
);
};
layerId = "12AF635E-66FE-4C90-B49C-8787585F2B73";
shapes = (
{
ref = D;
}
);
width = 578;
},
{
anchors = (
{
name = bottom;
pos = (331,0);
},
{
name = center;
pos = (331,330);
},
{
name = top;
pos = (289,660);
}
);
background = {
hints = (
{
horizontal = 1;
place = (-13,26);
type = Stem;
},
{
horizontal = 1;
place = (634,26);
type = Stem;
},
{
place = (82,26);
type = Stem;
},
{
place = (535,26);
type = Stem;
}
);
shapes = (
{
closed = 1;
nodes = (
(54,0,ls),
(54,-9,o),
(58,-13,o),
(68,-13,cs),
(199,-13,ls),
(312,-13,o),
(402,23,o),
(454,85,cs),
(507,147,o),
(534,229,o),
(534,323,cs),
(534,420,o),
(509,499,o),
(456,562,cs),
(404,623,o),
(315,660,o),
(199,660,cs),
(68,660,ls),
(59,660,o),
(54,655,o),
(54,647,cs)
);
},
{
closed = 1;
nodes = (
(81,13,l),
(81,634,l),
(199,634,ls),
(308,634,o),
(390,600,o),
(438,541,cs),
(485,483,o),
(508,411,o),
(508,323,cs),
(508,236,o),
(484,163,o),
(436,105,cs),
(388,47,o),
(305,13,o),
(199,13,cs)
);
}
);
};
layerId = m004;
shapes = (
{
ref = D;
}
);
width = 662;
}
);
note = D;
unicode = 100;
},
{
glyphname = eth;
kernRight = O;
lastChange = "2025-01-07 14:49:27 +0000";
layers = (
{
layerId = "12AF635E-66FE-4C90-B49C-8787585F2B73";
shapes = (
{
closed = 1;
nodes = (
(262,338,ls),
(269,338,o),
(275,344,o),
(275,351,cs),
(275,359,o),
(269,364,o),
(262,364,cs),
(30,364,ls),
(23,364,o),
(18,359,o),
(18,351,cs),
(18,344,o),
(23,338,o),
(30,338,cs)
);
},
{
pos = (3,0);
ref = D;
}
);
width = 581;
},
{
layerId = m004;
shapes = (
{
closed = 1;
nodes = (
(309,301,ls),
(342,301,o),
(369,328,o),
(369,360,cs),
(369,394,o),
(342,421,o),
(309,421,cs),
(77,421,ls),
(44,421,o),
(18,394,o),
(18,360,cs),
(18,328,o),
(44,301,o),
(77,301,cs)
);
},
{
pos = (12,0);
ref = D;
}
);
width = 674;
}
);
metricRight = D;
unicode = 240;
},
{
glyphname = e;
kernLeft = H;
kernRight = E;
lastChange = "2025-01-07 14:49:27 +0000";
layers = (
{
anchors = (
{
name = bottom;
pos = (251,0);
},
{
name = ogonek;
pos = (435,4);
},
{
name = top;
pos = (284,660);
},
{
name = topleft;
pos = (9,660);
}
);
background = {
hints = (
{
horizontal = 1;
place = (-13,26);
type = Stem;
},
{
horizontal = 1;
place = (238,26);
type = Stem;
},
{
horizontal = 1;
place = (634,26);
type = Stem;
},
{
place = (74,26);
type = Stem;
}
);
shapes = (
{
closed = 1;
nodes = (
(59,0,ls),
(59,-9,o),
(63,-13,o),
(73,-13,cs),
(468,-13,ls),
(476,-13,o),
(481,-9,o),
(481,0,cs),
(481,9,o),
(476,13,o),
(468,13,cs),
(85,13,l),
(85,238,l),
(468,238,ls),
(476,238,o),
(481,243,o),
(481,251,cs),
(481,260,o),
(476,265,o),
(468,265,cs),
(104,265,l),
(477,637,ls),
(480,640,o),
(482,643,o),
(482,646,cs),
(482,648,o),
(481,650,o),
(480,652,cs),
(477,657,o),
(474,660,o),
(468,660,cs),
(73,660,ls),
(63,660,o),
(59,656,o),
(59,647,cs)
);
},
{
closed = 1;
nodes = (
(437,634,l),
(85,283,l),
(85,634,l)
);
}
);
};
layerId = "12AF635E-66FE-4C90-B49C-8787585F2B73";
shapes = (
{
ref = E;
}
);
width = 550;
},
{
anchors = (
{
name = bottom;
pos = (303,0);
},
{
name = ogonek;
pos = (459,46);
},
{
name = top;
pos = (306,660);
},
{
name = topleft;
pos = (9,660);
}
);
background = {
hints = (
{
horizontal = 1;
place = (-13,26);
type = Stem;
},
{
horizontal = 1;
place = (238,26);
type = Stem;
},
{
horizontal = 1;
place = (634,26);
type = Stem;
},
{
place = (74,26);
type = Stem;
}
);
shapes = (
{
closed = 1;
nodes = (
(106,0,ls),
(106,-9,o),
(111,-13,o),
(120,-13,cs),
(515,-13,ls),
(524,-13,o),
(528,-9,o),
(528,0,cs),
(528,9,o),
(524,13,o),
(515,13,cs),
(133,13,l),
(133,238,l),
(515,238,ls),
(524,238,o),
(528,243,o),
(528,251,cs),
(528,260,o),
(524,265,o),
(515,265,cs),
(151,265,l),
(525,637,ls),
(527,640,o),
(529,643,o),
(529,646,cs),
(529,648,o),
(528,650,o),
(527,652,cs),
(525,657,o),
(520,660,o),
(515,660,cs),
(120,660,ls),
(111,660,o),
(106,656,o),
(106,647,cs)
);
},
{
closed = 1;
nodes = (
(483,634,l),
(133,283,l),
(133,634,l)
);
}
);
};
layerId = m004;
shapes = (
{
ref = E;
}
);
width = 631;
}
);
note = E;
unicode = 101;
},
{
glyphname = schwa;
lastChange = "2025-01-07 14:49:27 +0000";
layers = (
{
anchors = (
{
name = bottom;
pos = (386,0);
},
{
name = top;
pos = (386,660);
}
);
layerId = "12AF635E-66FE-4C90-B49C-8787585F2B73";
shapes = (
{
closed = 1;
nodes = (
(576,-13,o),
(729,140,o),
(729,330,cs),
(729,519,o),
(576,673,o),
(385,673,cs),
(294,673,o),
(212,637,o),
(150,580,cs),
(148,578,o),
(147,574,o),
(147,570,cs),
(147,563,o),
(152,557,o),
(160,557,cs),
(163,557,o),
(166,559,o),
(168,561,cs),
(226,615,o),
(300,647,o),
(385,647,cs),
(565,647,o),
(703,508,o),
(703,330,cs),
(703,150,o),
(565,13,o),
(385,13,cs),
(212,13,o),
(76,142,o),
(69,314,cs),
(69,321,o),
(62,326,o),
(55,326,cs),
(48,326,o),
(42,320,o),
(43,312,cs),
(52,130,o),
(201,-13,o),
(385,-13,cs)
);
},
{
closed = 1;
nodes = (
(56,326,ls),
(49,326,o),
(43,320,o),
(43,313,cs),
(43,306,o),
(49,300,o),
(56,300,cs),
(701,300,l),
(717,326,l)
);
}
);
width = 772;
},
{
anchors = (
{
name = bottom;
pos = (386,0);
},
{
name = top;
pos = (386,660);
}
);
layerId = m004;
shapes = (
{
closed = 1;
nodes = (
(576,-13,o),
(730,140,o),
(730,330,cs),
(730,519,o),
(576,673,o),
(386,673,cs),
(291,673,o),
(204,634,o),
(142,571,cs),
(132,561,o),
(126,546,o),
(126,529,cs),
(126,496,o),
(152,469,o),
(185,469,cs),
(202,469,o),
(217,476,o),
(228,487,cs),
(274,534,o),
(316,553,o),
(386,553,cs),
(527,553,o),
(609,469,o),
(609,330,cs),
(609,189,o),
(527,107,o),
(386,107,cs),
(247,107,o),
(165,188,o),
(163,326,cs),
(163,359,o),
(136,385,o),
(103,385,cs),
(68,385,o),
(42,356,o),
(43,324,cs),
(46,137,o),
(198,-13,o),
(386,-13,cs)
);
},
{
closed = 1;
nodes = (
(103,385,ls),
(70,385,o),
(43,359,o),
(43,325,cs),
(43,293,o),
(70,265,o),
(103,265,cs),
(658,265,l),
(694,385,l)
);
}
);
width = 772;
}
);
unicode = 601;
},
{
glyphname = f;
kernLeft = H;
kernRight = F;
lastChange = "2025-01-07 14:49:27 +0000";
layers = (
{
anchors = (
{
name = bottom;
pos = (265,0);
},
{
name = top;
pos = (265,660);
}
);
background = {
hints = (
{
horizontal = 1;
place = (-13,21);
target = up;
type = BottomGhost;
},
{
horizontal = 1;
place = (238,26);
type = Stem;
},
{
horizontal = 1;
place = (634,26);
type = Stem;
},
{
place = (74,26);
type = Stem;
}
);
shapes = (
{
closed = 1;
nodes = (
(59,0,ls),
(59,-9,o),
(63,-13,o),
(72,-13,cs),
(81,-13,o),
(85,-9,o),
(85,0,cs),
(85,238,l),
(468,238,ls),
(476,238,o),
(481,243,o),
(481,251,cs),
(481,260,o),
(476,265,o),
(468,265,cs),
(104,265,l),
(477,637,ls),
(480,640,o),
(482,643,o),
(482,646,cs),
(482,648,o),
(481,650,o),
(480,652,cs),
(477,657,o),
(474,660,o),
(468,660,cs),
(73,660,ls),
(63,660,o),
(59,656,o),
(59,647,cs)
);
},
{
closed = 1;
nodes = (
(437,634,l),
(85,283,l),
(85,634,l)
);
}
);
};
layerId = "12AF635E-66FE-4C90-B49C-8787585F2B73";
shapes = (
{
ref = F;
}
);
width = 537;
},
{
anchors = (
{
name = bottom;
pos = (308,0);
},
{
name = top;
pos = (308,660);
}
);
background = {
hints = (
{
horizontal = 1;
place = (-13,21);
target = up;
type = BottomGhost;
},
{
horizontal = 1;
place = (238,26);
type = Stem;
},
{
horizontal = 1;
place = (634,26);
type = Stem;
},
{
place = (74,26);
type = Stem;
}
);
shapes = (
{
closed = 1;
nodes = (
(106,0,ls),
(106,-9,o),
(111,-13,o),
(120,-13,cs),
(128,-13,o),
(133,-9,o),
(133,0,cs),
(133,238,l),
(515,238,ls),
(524,238,o),
(528,243,o),
(528,251,cs),
(528,260,o),
(524,265,o),
(515,265,cs),
(151,265,l),
(525,637,ls),
(527,640,o),
(529,643,o),
(529,646,cs),
(529,648,o),
(528,650,o),
(527,652,cs),
(525,657,o),
(520,660,o),
(515,660,cs),
(120,660,ls),
(111,660,o),
(106,656,o),
(106,647,cs)
);
},
{
closed = 1;
nodes = (
(483,634,l),
(133,283,l),
(133,634,l)
);
}
);
};
layerId = m004;
shapes = (
{
ref = F;
}
);
width = 623;
}
);
note = F;
unicode = 102;
},
{
glyphname = g;
kernLeft = O;
kernRight = G;
lastChange = "2025-01-07 14:49:27 +0000";
layers = (
{
anchors = (
{
name = bottom;
pos = (386,0);
},
{
name = top;
pos = (386,660);
}
);
background = {
hints = (
{
horizontal = 1;
place = (-14,26);
type = Stem;
},
{
horizontal = 1;
place = (310,26);
type = Stem;
},
{
horizontal = 1;
place = (636,26);
type = Stem;
},
{
place = (54,26);
type = Stem;
},
{
place = (696,26);
type = Stem;
}
);
shapes = (
{
closed = 1;
nodes = (
(679,-10,ls),
(686,-16,o),
(692,-16,o),
(697,-9,cs),
(704,-3,o),
(703,4,o),
(697,10,cs),
(622,83,l),
(636,96,o),
(648,111,o),
(659,127,cs),
(701,185,o),
(723,251,o),
(723,323,cs),
(723,331,o),
(717,337,o),
(709,337,cs),
(354,337,ls),
(348,337,o),
(345,334,o),
(342,329,cs),
(340,323,o),
(341,318,o),
(345,315,c),
(584,83,l),
(528,36,o),
(465,12,o),
(393,12,cs),
(336,12,o),
(284,26,o),
(236,54,cs),
(188,82,o),
(150,120,o),
(122,167,cs),
(94,215,o),
(81,267,o),
(81,323,cs),
(81,381,o),
(94,432,o),
(122,480,cs),
(150,528,o),
(188,566,o),
(236,593,cs),
(283,621,o),
(336,636,o),
(393,636,cs),
(432,636,o),
(469,628,o),
(505,614,cs),
(541,599,o),
(572,581,o),
(599,557,cs),
(605,551,o),
(611,551,o),
(617,558,cs),
(623,564,o),
(622,570,o),
(616,577,cs),
(587,603,o),
(553,624,o),
(514,639,cs),
(476,654,o),
(435,662,o),
(393,662,cs),
(331,662,o),
(275,647,o),
(222,616,cs),
(171,586,o),
(130,546,o),
(99,494,cs),
(69,441,o),
(54,385,o),
(54,324,cs),
(54,263,o),
(69,206,o),
(99,154,cs),
(130,102,o),
(171,62,o),
(222,31,cs),
(275,1,o),
(331,-14,o),
(393,-14,cs),
(473,-14,o),
(542,12,o),
(603,64,c)
);
},
{
closed = 1;
nodes = (
(387,310,l),
(696,310,l),
(694,249,o),
(674,193,o),
(638,142,cs),
(627,127,o),
(615,113,o),
(603,101,c)
);
}
);
};
layerId = m004;
shapes = (
{
ref = G;
}
);
width = 772;
},
{
anchors = (
{
name = bottom;
pos = (386,0);
},
{
name = top;
pos = (386,660);
}
);
background = {
hints = (
{
horizontal = 1;
place = (-14,26);
type = Stem;
},
{
horizontal = 1;
place = (310,26);
type = Stem;
},
{
horizontal = 1;
place = (636,26);
type = Stem;
},
{
place = (54,26);
type = Stem;
},
{
place = (696,26);
type = Stem;
}
);
shapes = (
{
closed = 1;
nodes = (
(679,-10,ls),
(686,-16,o),
(692,-16,o),
(697,-9,cs),
(704,-3,o),
(703,4,o),
(697,10,cs),
(622,83,l),
(636,96,o),
(648,111,o),
(659,127,cs),
(701,185,o),
(723,251,o),
(723,323,cs),
(723,331,o),
(717,337,o),
(709,337,cs),
(354,337,ls),
(348,337,o),
(345,334,o),
(342,329,cs),
(340,323,o),
(341,318,o),
(345,315,c),
(584,83,l),
(528,36,o),
(465,12,o),
(393,12,cs),
(336,12,o),
(284,26,o),
(236,54,cs),
(188,82,o),
(150,120,o),
(122,167,cs),
(94,215,o),
(81,267,o),
(81,323,cs),
(81,381,o),
(94,432,o),
(122,480,cs),
(150,528,o),
(188,566,o),
(236,593,cs),
(283,621,o),
(336,636,o),
(393,636,cs),
(432,636,o),
(469,628,o),
(505,614,cs),
(541,599,o),
(572,581,o),
(599,557,cs),
(605,551,o),
(611,551,o),
(617,558,cs),
(623,564,o),
(622,570,o),
(616,577,cs),
(587,603,o),
(553,624,o),
(514,639,cs),
(476,654,o),
(435,662,o),
(393,662,cs),
(331,662,o),
(275,647,o),
(222,616,cs),
(171,586,o),
(130,546,o),
(99,494,cs),
(69,441,o),
(54,385,o),
(54,324,cs),
(54,263,o),
(69,206,o),
(99,154,cs),
(130,102,o),
(171,62,o),
(222,31,cs),
(275,1,o),
(331,-14,o),
(393,-14,cs),
(473,-14,o),
(542,12,o),
(603,64,c)
);
},
{
closed = 1;
nodes = (
(387,310,l),
(696,310,l),
(694,249,o),
(674,193,o),
(638,142,cs),
(627,127,o),
(615,113,o),
(603,101,c)
);
}
);
};
layerId = "12AF635E-66FE-4C90-B49C-8787585F2B73";
name = Light;
shapes = (
{
ref = G;
}
);
width = 772;
}
);
note = G;
unicode = 103;
},
{
glyphname = h;
kernLeft = H;
kernRight = H;
lastChange = "2025-01-07 14:49:27 +0000";
layers = (
{
anchors = (
{
name = bottom;
pos = (294,0);
},
{
name = center;
pos = (294,330);
},
{
name = top;
pos = (294,660);
},
{
name = topleft;
pos = (9,660);
}
);
background = {
hints = (
{
horizontal = 1;
place = (-13,21);
target = up;
type = BottomGhost;
},
{
horizontal = 1;
place = (240,26);
type = Stem;
},
{
place = (105,26);
type = Stem;
},
{
place = (518,26);
type = Stem;
}
);
shapes = (
{
closed = 1;
nodes = (
(91,0,ls),
(91,-7,o),
(96,-13,o),
(103,-13,cs),
(110,-13,o),
(116,-7,o),
(116,0,cs),
(116,240,l),
(503,240,l),
(503,0,ls),
(503,-9,o),
(507,-13,o),
(516,-13,cs),
(526,-13,o),
(530,-9,o),
(530,0,cs),
(530,647,ls),
(530,656,o),
(526,660,o),
(516,660,cs),
(507,660,o),
(503,656,o),
(503,647,cs),
(503,286,l),
(320,471,l),
(314,476,o),
(308,476,o),
(301,471,cs),
(116,286,l),
(116,647,l),
(117,665,o),
(90,664,o),
(91,647,c)
);
},
{
closed = 1;
nodes = (
(484,266,l),
(134,266,l),
(311,443,l)
);
}
);
};
layerId = "12AF635E-66FE-4C90-B49C-8787585F2B73";
shapes = (
{
ref = H;
}
);
width = 588;
},
{
anchors = (
{
name = bottom;
pos = (342,0);
},
{
name = center;
pos = (342,330);
},
{
name = top;
pos = (342,660);
},
{
name = topleft;
pos = (9,660);
}
);
background = {
hints = (
{
horizontal = 1;
place = (-13,21);
target = up;
type = BottomGhost;
},
{
horizontal = 1;
place = (240,26);
type = Stem;
},
{
place = (105,26);
type = Stem;
},
{
place = (518,26);
type = Stem;
}
);
shapes = (
{
closed = 1;
nodes = (
(137,0,ls),
(137,-7,o),
(143,-13,o),
(150,-13,cs),
(157,-13,o),
(163,-7,o),
(163,0,cs),
(163,240,l),
(550,240,l),
(550,0,ls),
(550,-9,o),
(555,-13,o),
(563,-13,cs),
(572,-13,o),
(577,-9,o),
(577,0,cs),
(577,647,ls),
(577,656,o),
(572,660,o),
(563,660,cs),
(555,660,o),
(550,656,o),
(550,647,cs),
(550,286,l),
(367,471,l),
(361,476,o),
(354,476,o),
(349,471,cs),
(163,286,l),
(163,647,l),
(164,665,o),
(136,664,o),
(137,647,c)
);
},
{
closed = 1;
nodes = (
(532,266,l),
(182,266,l),
(358,443,l)
);
}
);
};
layerId = m004;
shapes = (
{
ref = H;
}
);
width = 683;
}
);
note = H;
unicode = 104;
},
{
glyphname = hbar;
lastChange = "2025-01-07 14:49:27 +0000";
layers = (
{
layerId = "12AF635E-66FE-4C90-B49C-8787585F2B73";
shapes = (
{
closed = 1;
nodes = (
(582,466,ls),
(589,466,o),
(594,472,o),
(594,479,cs),
(594,486,o),
(589,492,o),
(582,492,cs),
(18,492,ls),
(10,492,o),
(4,486,o),
(4,479,cs),
(4,472,o),
(10,466,o),
(18,466,cs)
);
},
{
pos = (5,0);
ref = H;
}
);
width = 599;
},
{
layerId = m004;
shapes = (
{
closed = 1;
nodes = (
(723,428,ls),
(756,428,o),
(783,455,o),
(783,489,cs),
(783,521,o),
(756,548,o),
(723,548,cs),
(64,548,ls),
(32,548,o),
(4,521,o),
(4,489,cs),
(4,455,o),
(32,428,o),
(64,428,cs)
);
},
{
pos = (53,0);
ref = H;
}
);
width = 788;
}
);
unicode = 295;
},
{
glyphname = i;
kernLeft = I;
kernRight = I;
lastChange = "2025-01-07 14:49:27 +0000";
layers = (
{
anchors = (
{
name = bottom;
pos = (178,0);
},
{
name = ogonek;
pos = (266,8);
},
{
name = top;
pos = (178,660);
},
{
name = topleft;
pos = (11,660);
}
);
background = {
hints = (
{
horizontal = 1;
place = (-13,26);
type = Stem;
},
{
horizontal = 1;
place = (634,26);
type = Stem;
},
{
place = (161,26);
type = Stem;
}
);
shapes = (
{
closed = 1;
nodes = (
(164,13,l),
(74,13,ls),
(65,13,o),
(61,9,o),
(61,0,cs),
(61,-9,o),
(65,-13,o),
(74,-13,cs),
(280,-13,ls),
(289,-13,o),
(293,-9,o),
(293,0,cs),
(293,9,o),
(289,13,o),
(280,13,cs),
(190,13,l),
(190,634,l),
(280,634,ls),
(289,634,o),
(293,638,o),
(293,647,cs),
(293,656,o),
(289,660,o),
(280,660,cs),
(74,660,ls),
(65,660,o),
(61,656,o),
(61,647,cs),
(61,638,o),
(65,634,o),
(74,634,cs),
(164,634,l)
);
}
);
};
layerId = "12AF635E-66FE-4C90-B49C-8787585F2B73";
shapes = (
{
ref = I;
}
);
width = 355;
},
{
anchors = (
{
name = bottom;
pos = (236,0);
},
{
name = ogonek;
pos = (335,52);
},
{
name = top;
pos = (236,660);
},
{
name = topleft;
pos = (70,660);
}
);
background = {
hints = (
{
horizontal = 1;
place = (-13,26);
type = Stem;
},
{
horizontal = 1;
place = (634,26);
type = Stem;
},
{
place = (161,26);
type = Stem;
}
);
shapes = (
{
closed = 1;
nodes = (
(222,13,l),
(133,13,ls),
(124,13,o),
(120,9,o),
(120,0,cs),
(120,-9,o),
(124,-13,o),
(133,-13,cs),
(338,-13,ls),
(348,-13,o),
(352,-9,o),
(352,0,cs),
(352,9,o),
(348,13,o),
(338,13,cs),
(249,13,l),
(249,634,l),
(338,634,ls),
(348,634,o),
(352,638,o),
(352,647,cs),
(352,656,o),
(348,660,o),
(338,660,cs),
(133,660,ls),
(124,660,o),
(120,656,o),
(120,647,cs),
(120,638,o),
(124,634,o),
(133,634,cs),
(222,634,l)
);
}
);
};
layerId = m004;
shapes = (
{
ref = I;
}
);
width = 473;
}
);
note = I;
unicode = 105;
},
{
glyphname = j;
kernLeft = J;
kernRight = H;
lastChange = "2025-01-07 14:49:27 +0000";
layers = (
{
anchors = (
{
name = bottom;
pos = (222,0);
},
{
name = top;
pos = (240,660);
}
);
background = {
hints = (
{
horizontal = 1;
place = (-13,26);
type = Stem;
},
{
horizontal = 1;
place = (634,26);
type = Stem;
},
{
place = (94,26);
type = Stem;
},
{
place = (419,26);
type = Stem;
}
);
shapes = (
{
closed = 1;
nodes = (
(407,647,ls),
(408,656,o),
(403,660,o),
(395,660,cs),
(70,660,ls),
(64,660,o),
(60,657,o),
(57,651,cs),
(55,646,o),
(56,641,o),
(60,637,cs),
(381,317,l),
(381,162,ls),
(381,115,o),
(367,78,o),
(338,53,cs),
(310,26,o),
(275,13,o),
(232,13,cs),
(191,13,o),
(156,28,o),
(127,56,cs),
(97,86,o),
(83,121,o),
(83,162,cs),
(83,179,o),
(55,179,o),
(55,162,cs),
(55,113,o),
(73,73,o),
(107,38,cs),
(142,4,o),
(183,-13,o),
(232,-13,cs),
(282,-13,o),
(324,3,o),
(357,34,cs),
(390,65,o),
(407,108,o),
(407,162,cs)
);
},
{
closed = 1;
nodes = (
(381,354,l),
(102,634,l),
(381,634,l)
);
}
);
};
layerId = "12AF635E-66FE-4C90-B49C-8787585F2B73";
shapes = (
{
ref = J;
}
);
width = 465;
},
{
anchors = (
{
name = bottom;
pos = (271,0);
},
{
name = top;
pos = (287,660);
}
);
background = {
hints = (
{
horizontal = 1;
place = (-13,26);
type = Stem;
},
{
horizontal = 1;
place = (634,26);
type = Stem;
},
{
place = (94,26);
type = Stem;
},
{
place = (419,26);
type = Stem;
}
);
shapes = (
{
closed = 1;
nodes = (
(455,647,ls),
(455,656,o),
(451,660,o),
(442,660,cs),
(118,660,ls),
(112,660,o),
(107,657,o),
(105,651,cs),
(103,646,o),
(104,641,o),
(108,637,cs),
(429,317,l),
(429,162,ls),
(429,115,o),
(415,78,o),
(386,53,cs),
(358,26,o),
(323,13,o),
(280,13,cs),
(238,13,o),
(203,28,o),
(174,56,cs),
(145,86,o),
(130,121,o),
(130,162,cs),
(130,179,o),
(104,179,o),
(104,162,cs),
(104,113,o),
(120,73,o),
(155,38,cs),
(189,4,o),
(231,-13,o),
(280,-13,cs),
(330,-13,o),
(372,3,o),
(404,34,cs),
(439,65,o),
(455,108,o),
(455,162,cs)
);
},
{
closed = 1;
nodes = (
(429,354,l),
(149,634,l),
(429,634,l)
);
}
);
};
layerId = m004;
shapes = (
{
ref = J;
}
);
width = 560;
}
);
note = J;
unicode = 106;
},
{
glyphname = k;
kernLeft = H;
kernRight = K;
lastChange = "2025-01-07 14:49:27 +0000";
layers = (
{
anchors = (
{
name = bottom;
pos = (321,0);
},
{
name = top;
pos = (321,660);
}
);
background = {
hints = (
{
horizontal = 1;
place = (-13,21);
target = up;
type = BottomGhost;
},
{
place = (119,26);
type = Stem;
},
{
horizontal = 1;
place = (-14,21);
target = up;
type = BottomGhost;
}
);
shapes = (
{
closed = 1;
nodes = (
(91,0,ls),
(91,-9,o),
(95,-13,o),
(105,-13,cs),
(113,-13,o),
(118,-9,o),
(118,0,cs),
(118,187,l),
(288,386,l),
(590,-8,ls),
(592,-11,o),
(596,-14,o),
(599,-14,cs),
(602,-14,o),
(605,-13,o),
(608,-11,cs),
(612,-8,o),
(614,-4,o),
(614,-1,cs),
(614,2,o),
(613,4,o),
(611,8,cs),
(306,406,l),
(505,638,ls),
(511,645,o),
(510,651,o),
(503,657,cs),
(500,659,o),
(497,661,o),
(494,661,cs),
(491,661,o),
(488,659,o),
(485,656,cs),
(289,428,l),
(115,655,ls),
(112,659,o),
(109,660,o),
(105,660,cs),
(104,660,o),
(102,660,o),
(100,659,cs),
(94,657,o),
(91,653,o),
(91,647,cs)
);
},
{
closed = 1;
nodes = (
(272,407,l),
(118,228,l),
(118,608,l)
);
}
);
};
layerId = "12AF635E-66FE-4C90-B49C-8787585F2B73";
shapes = (
{
ref = K;
}
);
width = 645;
},
{
anchors = (
{
name = bottom;
pos = (381,0);
},
{
name = top;
pos = (381,660);
}
);
background = {
hints = (
{
horizontal = 1;
place = (-13,21);
target = up;
type = BottomGhost;
},
{
place = (119,26);
type = Stem;
},
{
horizontal = 1;
place = (-14,21);
target = up;
type = BottomGhost;
}
);
shapes = (
{
closed = 1;
nodes = (
(151,0,ls),
(151,-9,o),
(156,-13,o),
(164,-13,cs),
(173,-13,o),
(178,-9,o),
(178,0,cs),
(178,187,l),
(348,386,l),
(650,-8,ls),
(653,-11,o),
(656,-14,o),
(659,-14,cs),
(662,-14,o),
(665,-13,o),
(668,-11,cs),
(672,-8,o),
(674,-4,o),
(674,-1,cs),
(674,2,o),
(673,4,o),
(671,8,cs),
(366,406,l),
(564,638,ls),
(570,645,o),
(570,651,o),
(563,657,cs),
(560,659,o),
(557,661,o),
(554,661,cs),
(551,661,o),
(548,659,o),
(545,656,cs),
(349,428,l),
(175,655,ls),
(172,659,o),
(169,660,o),
(165,660,cs),
(163,660,o),
(162,660,o),
(160,659,cs),
(154,657,o),
(151,653,o),
(151,647,cs)
);
},
{
closed = 1;
nodes = (
(331,407,l),
(178,228,l),
(178,608,l)
);
}
);
};
layerId = m004;
shapes = (
{
ref = K;
}
);
width = 678;
}
);
note = K;
unicode = 107;
},
{
glyphname = l;
kernLeft = H;
kernRight = L;
lastChange = "2025-01-07 14:49:27 +0000";
layers = (
{
anchors = (
{
name = bottom;
pos = (265,0);
},
{
name = center;
pos = (222,330);
},
{
name = top;
pos = (222,660);
},
{
name = topright;
pos = (481,660);
}
);
background = {
hints = (
{
horizontal = 1;
place = (-13,26);
type = Stem;
},
{
place = (119,26);
type = Stem;
}
);
shapes = (
{
closed = 1;
nodes = (
(72,0,ls),
(72,-9,o),
(76,-13,o),
(85,-13,cs),
(394,-13,l),
(400,-13,o),
(404,-11,o),
(406,-4,cs),
(407,-3,o),
(408,-1,o),
(408,1,cs),
(408,4,o),
(406,7,o),
(403,10,cs),
(98,314,l),
(98,647,ls),
(98,656,o),
(94,660,o),
(85,660,cs),
(76,660,o),
(72,656,o),
(72,647,cs)
);
},
{
closed = 1;
nodes = (
(362,13,l),
(98,13,l),
(98,277,l)
);
}
);
};
layerId = "12AF635E-66FE-4C90-B49C-8787585F2B73";
shapes = (
{
ref = L;
}
);
width = 488;
},
{
anchors = (
{
name = bottom;
pos = (281,0);
},
{
name = center;
pos = (281,330);
},
{
name = top;
pos = (281,660);
},
{
name = topright;
pos = (541,660);
}
);
background = {
hints = (
{
horizontal = 1;
place = (-13,26);
type = Stem;
},
{
place = (119,26);
type = Stem;
}
);
shapes = (
{
closed = 1;
nodes = (
(131,0,ls),
(131,-9,o),
(135,-13,o),
(145,-13,cs),
(454,-13,l),
(459,-13,o),
(463,-11,o),
(466,-4,cs),
(467,-3,o),
(467,-1,o),
(467,1,cs),
(467,4,o),
(466,7,o),
(463,10,cs),
(158,314,l),
(158,647,ls),
(158,656,o),
(154,660,o),
(145,660,cs),
(135,660,o),
(131,656,o),
(131,647,cs)
);
},
{
closed = 1;
nodes = (
(421,13,l),
(158,13,l),
(158,277,l)
);
}
);
};
layerId = m004;
name = Bold;
shapes = (
{
ref = L;
}
);
width = 544;
}
);
note = L;
unicode = 108;
},
{
glyphname = lslash;
kernRight = L;
lastChange = "2025-01-07 14:49:27 +0000";
layers = (
{
layerId = "12AF635E-66FE-4C90-B49C-8787585F2B73";
shapes = (
{
closed = 1;
nodes = (
(49,360,o),
(51,360,o),
(52,361,cs),
(366,468,ls),
(370,469,o),
(374,474,o),
(374,479,cs),
(374,488,o),
(367,493,o),
(361,493,cs),
(360,493,o),
(358,492,o),
(357,492,cs),
(43,385,ls),
(38,384,o),
(35,379,o),
(35,373,cs),
(35,366,o),
(41,360,o),
(47,360,cs)
);
},
{
ref = L;
}
);
width = 536;
},
{
layerId = m004;
shapes = (
{
closed = 1;
nodes = (
(20,292,o),
(27,293,o),
(33,294,cs),
(383,414,ls),
(407,422,o),
(424,444,o),
(424,470,cs),
(424,504,o),
(397,531,o),
(364,531,cs),
(357,531,o),
(351,530,o),
(345,527,cs),
(-5,409,ls),
(-29,401,o),
(-47,378,o),
(-47,352,cs),
(-47,318,o),
(-19,292,o),
(14,292,cs)
);
},
{
ref = L;
}
);
width = 536;
}
);
unicode = 322;
},
{
glyphname = m;
kernLeft = H;
kernRight = H;
lastChange = "2025-01-07 14:49:27 +0000";
layers = (
{
anchors = (
{
name = bottom;
pos = (334,0);
},
{
name = top;
pos = (334,660);
}
);
background = {
hints = (
{
horizontal = 1;
place = (-13,21);
target = up;
type = BottomGhost;
},
{
place = (84,26);
type = Stem;
},
{
place = (621,26);
type = Stem;
}
);
shapes = (
{
closed = 1;
nodes = (
(57,0,ls),
(57,-7,o),
(63,-13,o),
(70,-13,cs),
(77,-13,o),
(84,-7,o),
(84,0,cs),
(84,186,l),
(338,403,l),
(593,186,l),
(593,0,ls),
(593,-7,o),
(599,-13,o),
(606,-13,cs),
(614,-13,o),
(620,-7,o),
(620,0,cs),
(620,647,ls),
(620,653,o),
(617,657,o),
(612,659,cs),
(609,660,o),
(607,660,o),
(606,660,cs),
(603,660,o),
(600,659,o),
(598,657,cs),
(338,437,l),
(79,657,ls),
(76,659,o),
(73,660,o),
(70,660,cs),
(68,660,o),
(66,660,o),
(64,659,cs),
(60,657,o),
(57,652,o),
(57,647,cs)
);
},
{
closed = 1;
nodes = (
(318,420,l),
(84,221,l),
(84,619,l)
);
},
{
closed = 1;
nodes = (
(593,221,l),
(359,420,l),
(593,619,l)
);
}
);
};
layerId = "12AF635E-66FE-4C90-B49C-8787585F2B73";
shapes = (
{
ref = M;
}
);
width = 668;
},
{
anchors = (
{
name = bottom;
pos = (381,0);
},
{
name = top;
pos = (381,660);
}
);
background = {
hints = (
{
horizontal = 1;
place = (-13,21);
target = up;
type = BottomGhost;
},
{
place = (84,26);
type = Stem;
},
{
place = (621,26);
type = Stem;
}
);
shapes = (
{
closed = 1;
nodes = (
(91,0,ls),
(91,-7,o),
(98,-13,o),
(105,-13,cs),
(112,-13,o),
(118,-7,o),
(118,0,cs),
(118,186,l),
(373,403,l),
(628,186,l),
(628,0,ls),
(628,-7,o),
(634,-13,o),
(641,-13,cs),
(648,-13,o),
(654,-7,o),
(654,0,cs),
(654,647,ls),
(654,653,o),
(651,657,o),
(646,659,cs),
(643,660,o),
(642,660,o),
(641,660,cs),
(637,660,o),
(635,659,o),
(632,657,cs),
(373,437,l),
(113,657,ls),
(110,659,o),
(107,660,o),
(105,660,cs),
(102,660,o),
(100,660,o),
(98,659,cs),
(94,657,o),
(91,652,o),
(91,647,cs)
);
},
{
closed = 1;
nodes = (
(352,420,l),
(118,221,l),
(118,619,l)
);
},
{
closed = 1;
nodes = (
(628,221,l),
(393,420,l),
(628,619,l)
);
}
);
};
layerId = m004;
shapes = (
{
ref = M;
}
);
width = 763;
}
);
note = M;
unicode = 109;
},
{
glyphname = n;
kernLeft = H;
kernRight = H;
lastChange = "2025-01-07 14:49:27 +0000";
layers = (
{
anchors = (
{
name = bottom;
pos = (298,0);
},
{
name = top;
pos = (298,660);
}
);
background = {
hints = (
{
horizontal = 1;
place = (-13,26);
type = Stem;
},
{
place = (84,26);
type = Stem;
},
{
place = (527,26);
type = Stem;
}
);
shapes = (
{
closed = 1;
nodes = (
(70,0,ls),
(70,-8,o),
(75,-13,o),
(83,-13,cs),
(524,-13,ls),
(534,-13,o),
(539,-9,o),
(539,0,cs),
(539,647,ls),
(539,656,o),
(534,660,o),
(526,660,cs),
(517,660,o),
(512,656,o),
(512,647,cs),
(512,42,l),
(93,654,ls),
(91,658,o),
(88,660,o),
(84,660,cs),
(83,660,o),
(81,660,o),
(79,659,cs),
(73,657,o),
(70,653,o),
(70,647,cs)
);
},
{
closed = 1;
nodes = (
(501,13,l),
(96,13,l),
(96,605,l)
);
}
);
};
layerId = "12AF635E-66FE-4C90-B49C-8787585F2B73";
shapes = (
{
ref = N;
}
);
width = 595;
},
{
anchors = (
{
name = bottom;
pos = (347,0);
},
{
name = top;
pos = (347,660);
}
);
background = {
hints = (
{
horizontal = 1;
place = (-13,26);
type = Stem;
},
{
place = (84,26);
type = Stem;
},
{
place = (527,26);
type = Stem;
}
);
shapes = (
{
closed = 1;
nodes = (
(117,0,ls),
(117,-8,o),
(122,-13,o),
(130,-13,cs),
(571,-13,ls),
(581,-13,o),
(586,-9,o),
(586,0,cs),
(586,647,ls),
(586,656,o),
(582,660,o),
(573,660,cs),
(564,660,o),
(560,656,o),
(560,647,cs),
(560,42,l),
(141,654,ls),
(138,658,o),
(134,660,o),
(131,660,cs),
(129,660,o),
(128,660,o),
(127,659,cs),
(120,657,o),
(117,653,o),
(117,647,cs)
);
},
{
closed = 1;
nodes = (
(548,13,l),
(143,13,l),
(143,605,l)
);
}
);
};
layerId = m004;
shapes = (
{
ref = N;
}
);
width = 694;
}
);
note = N;
unicode = 110;
},
{
glyphname = nhookleft;
kernLeft = H;
kernRight = H;
lastChange = "2025-01-07 14:49:27 +0000";
layers = (
{
layerId = "12AF635E-66FE-4C90-B49C-8787585F2B73";
shapes = (
{
closed = 1;
nodes = (
(33,-279,o),
(86,-230,o),
(86,-170,cs),
(86,32,l),
(60,30,l),
(60,-170,ls),
(60,-217,o),
(21,-253,o),
(-31,-253,cs),
(-47,-253,o),
(-62,-249,o),
(-76,-242,cs),
(-78,-241,o),
(-80,-240,o),
(-82,-240,cs),
(-90,-240,o),
(-95,-246,o),
(-95,-253,cs),
(-95,-258,o),
(-91,-263,o),
(-88,-265,cs),
(-71,-273,o),
(-51,-279,o),
(-31,-279,cs)
);
},
{
ref = N;
}
);
width = 595;
},
{
layerId = m004;
shapes = (
{
closed = 1;
nodes = (
(116,-326,o),
(181,-247,o),
(181,-170,cs),
(181,62,l),
(61,62,l),
(61,-170,ls),
(61,-197,o),
(51,-206,o),
(18,-206,cs),
(6,-206,o),
(3,-204,o),
(-7,-200,cs),
(-16,-195,o),
(-25,-193,o),
(-34,-193,cs),
(-68,-193,o),
(-94,-220,o),
(-94,-253,cs),
(-94,-277,o),
(-81,-297,o),
(-62,-307,cs),
(-35,-320,o),
(-7,-326,o),
(18,-326,cs)
);
},
{
ref = N;
}
);
width = 694;
}
);
unicode = 626;
},
{
glyphname = eng;
kernLeft = H;
kernRight = H;
lastChange = "2025-01-07 14:49:27 +0000";
layers = (
{
layerId = "12AF635E-66FE-4C90-B49C-8787585F2B73";
shapes = (
{
closed = 1;
nodes = (
(483,-279,o),
(534,-230,o),
(534,-170,cs),
(534,32,l),
(509,30,l),
(509,-170,ls),
(509,-217,o),
(470,-253,o),
(418,-253,cs),
(402,-253,o),
(387,-249,o),
(373,-242,cs),
(371,-241,o),
(369,-240,o),
(367,-240,cs),
(360,-240,o),
(354,-246,o),
(354,-253,cs),
(354,-258,o),
(357,-263,o),
(361,-265,cs),
(378,-273,o),
(398,-279,o),
(418,-279,cs)
);
},
{
ref = N;
}
);
width = 595;
},
{
layerId = m004;
shapes = (
{
closed = 1;
nodes = (
(569,-326,o),
(633,-247,o),
(633,-170,cs),
(633,62,l),
(512,62,l),
(512,-170,ls),
(512,-197,o),
(503,-206,o),
(469,-206,cs),
(459,-206,o),
(455,-204,o),
(445,-200,cs),
(437,-195,o),
(428,-193,o),
(418,-193,cs),
(385,-193,o),
(358,-220,o),
(358,-253,cs),
(358,-277,o),
(371,-297,o),
(391,-307,cs),
(418,-320,o),
(445,-326,o),
(469,-326,cs)
);
},
{
ref = N;
}
);
width = 694;
}
);
unicode = 331;
},
{
glyphname = o;
kernLeft = O;
kernRight = O;
lastChange = "2025-01-07 14:49:27 +0000";
layers = (
{
anchors = (
{
name = bottom;
pos = (386,0);
},
{
name = center;
pos = (386,330);
},
{
name = ogonek;
pos = (440,4);
},
{
name = top;
pos = (386,660);
},
{
name = topleft;
pos = (9,660);
},
{
name = topright;
pos = (517,647);
}
);
background = {
hints = (
{
horizontal = 1;
place = (-14,26);
type = Stem;
},
{
horizontal = 1;
place = (636,26);
type = Stem;
},
{
place = (47,26);
type = Stem;
},
{
place = (697,26);
type = Stem;
}
);
shapes = (
{
closed = 1;
nodes = (
(137,102,o),
(178,62,o),
(230,31,cs),
(282,1,o),
(338,-14,o),
(400,-14,cs),
(461,-14,o),
(517,1,o),
(569,31,cs),
(621,62,o),
(662,102,o),
(693,154,cs),
(723,206,o),
(737,263,o),
(737,324,cs),
(737,385,o),
(723,441,o),
(693,494,cs),
(662,546,o),
(621,586,o),
(569,616,cs),
(517,647,o),
(461,662,o),
(400,662,cs),
(338,662,o),
(282,647,o),
(230,616,cs),
(178,586,o),
(137,546,o),
(107,494,cs),
(76,441,o),
(62,385,o),
(62,324,cs),
(62,263,o),
(76,206,o),
(107,154,cs)
);
},
{
closed = 1;
nodes = (
(157,528,o),
(195,566,o),
(243,593,cs),
(291,621,o),
(343,636,o),
(400,636,cs),
(456,636,o),
(509,621,o),
(556,593,cs),
(604,566,o),
(642,528,o),
(670,480,cs),
(697,432,o),
(711,381,o),
(711,323,cs),
(711,267,o),
(697,215,o),
(670,167,cs),
(642,120,o),
(604,82,o),
(556,54,cs),
(509,26,o),
(456,12,o),
(400,12,cs),
(343,12,o),
(291,26,o),
(243,54,cs),
(195,82,o),
(157,120,o),
(129,167,cs),
(102,215,o),
(88,267,o),
(88,323,cs),
(88,381,o),
(102,432,o),
(129,480,cs)
);
}
);
};
layerId = "12AF635E-66FE-4C90-B49C-8787585F2B73";
shapes = (
{
ref = O;
}
);
width = 772;
},
{
anchors = (
{
name = bottom;
pos = (386,0);
},
{
name = center;
pos = (386,330);
},
{
name = ogonek;
pos = (366,4);
},
{
name = top;
pos = (386,660);
},
{
name = topleft;
pos = (9,660);
},
{
name = topright;
pos = (517,647);
}
);
background = {
hints = (
{
horizontal = 1;
place = (-14,26);
type = Stem;
},
{
horizontal = 1;
place = (636,26);
type = Stem;
},
{
place = (47,26);
type = Stem;
},
{
place = (697,26);
type = Stem;
}
);
shapes = (
{
closed = 1;
nodes = (
(137,102,o),
(178,62,o),
(230,31,cs),
(282,1,o),
(338,-14,o),
(400,-14,cs),
(461,-14,o),
(517,1,o),
(569,31,cs),
(621,62,o),
(662,102,o),
(693,154,cs),
(723,206,o),
(737,263,o),
(737,324,cs),
(737,385,o),
(723,441,o),
(693,494,cs),
(662,546,o),
(621,586,o),
(569,616,cs),
(517,647,o),
(461,662,o),
(400,662,cs),
(338,662,o),
(282,647,o),
(230,616,cs),
(178,586,o),
(137,546,o),
(107,494,cs),
(76,441,o),
(62,385,o),
(62,324,cs),
(62,263,o),
(76,206,o),
(107,154,cs)
);
},
{
closed = 1;
nodes = (
(157,528,o),
(195,566,o),
(243,593,cs),
(291,621,o),
(343,636,o),
(400,636,cs),
(456,636,o),
(509,621,o),
(556,593,cs),
(604,566,o),
(642,528,o),
(670,480,cs),
(697,432,o),
(711,381,o),
(711,323,cs),
(711,267,o),
(697,215,o),
(670,167,cs),
(642,120,o),
(604,82,o),
(556,54,cs),
(509,26,o),
(456,12,o),
(400,12,cs),
(343,12,o),
(291,26,o),
(243,54,cs),
(195,82,o),
(157,120,o),
(129,167,cs),
(102,215,o),
(88,267,o),
(88,323,cs),
(88,381,o),
(102,432,o),
(129,480,cs)
);
}
);
};
layerId = m004;
shapes = (
{
ref = O;
}
);
width = 772;
}
);
note = O;
unicode = 111;
},
{
glyphname = p;
kernLeft = H;
kernRight = P;
lastChange = "2025-01-07 14:49:27 +0000";
layers = (
{
anchors = (
{
name = bottom;
pos = (243,0);
},
{
name = top;
pos = (243,660);
}
);
background = {
hints = (
{
horizontal = 1;
place = (-13,21);
target = up;
type = BottomGhost;
},
{
horizontal = 1;
place = (226,26);
type = Stem;
},
{
horizontal = 1;
place = (634,26);
type = Stem;
},
{
place = (96,26);
type = Stem;
},
{
place = (467,26);
type = Stem;
}
);
shapes = (
{
closed = 1;
nodes = (
(69,0,ls),
(69,-9,o),
(73,-13,o),
(82,-13,cs),
(91,-13,o),
(95,-9,o),
(95,0,cs),
(95,226,l),
(249,226,ls),
(309,226,o),
(360,247,o),
(402,289,cs),
(444,331,o),
(466,383,o),
(466,443,cs),
(466,503,o),
(444,554,o),
(402,596,cs),
(360,639,o),
(309,660,o),
(249,660,cs),
(82,660,ls),
(73,660,o),
(69,656,o),
(69,647,cs)
);
},
{
closed = 1;
nodes = (
(95,252,l),
(95,634,l),
(249,634,ls),
(301,634,o),
(346,615,o),
(383,578,cs),
(421,541,o),
(440,496,o),
(440,443,cs),
(440,390,o),
(421,345,o),
(383,309,cs),
(346,271,o),
(301,252,o),
(249,252,cs)
);
}
);
};
layerId = "12AF635E-66FE-4C90-B49C-8787585F2B73";
shapes = (
{
ref = P;
}
);
width = 488;
},
{
anchors = (
{
name = bottom;
pos = (270,0);
},
{
name = top;
pos = (270,660);
}
);
background = {
hints = (
{
horizontal = 1;
place = (-13,21);
target = up;
type = BottomGhost;
},
{
horizontal = 1;
place = (226,26);
type = Stem;
},
{
horizontal = 1;
place = (634,26);
type = Stem;
},
{
place = (96,26);
type = Stem;
},
{
place = (467,26);
type = Stem;
}
);
shapes = (
{
closed = 1;
nodes = (
(69,0,ls),
(69,-9,o),
(73,-13,o),
(82,-13,cs),
(91,-13,o),
(95,-9,o),
(95,0,cs),
(95,226,l),
(249,226,ls),
(309,226,o),
(360,247,o),
(402,289,cs),
(444,331,o),
(466,383,o),
(466,443,cs),
(466,503,o),
(444,554,o),
(402,596,cs),
(360,639,o),
(309,660,o),
(249,660,cs),
(82,660,ls),
(73,660,o),
(69,656,o),
(69,647,cs)
);
},
{
closed = 1;
nodes = (
(95,252,l),
(95,634,l),
(249,634,ls),
(301,634,o),
(346,615,o),
(383,578,cs),
(421,541,o),
(440,496,o),
(440,443,cs),
(440,390,o),
(421,345,o),
(383,309,cs),
(346,271,o),
(301,252,o),
(249,252,cs)
);
}
);
};
layerId = m004;
shapes = (
{
ref = P;
}
);
width = 539;
}
);
note = P;
unicode = 112;
},
{
glyphname = thorn;
kernLeft = H;
kernRight = P;
lastChange = "2025-01-07 14:49:27 +0000";
layers = (
{
hints = (
{
horizontal = 1;
place = (226,26);
type = Stem;
},
{
horizontal = 1;
place = (634,26);
type = Stem;
},
{
place = (96,26);
type = Stem;
},
{
place = (412,26);
type = Stem;
}
);
layerId = "12AF635E-66FE-4C90-B49C-8787585F2B73";
shapes = (
{
closed = 1;
nodes = (
(243,138,ls),
(372,138,o),
(476,242,o),
(476,370,cs),
(476,498,o),
(372,603,o),
(243,603,cs),
(87,603,ls),
(80,603,o),
(74,597,o),
(74,590,cs),
(74,583,o),
(80,577,o),
(87,577,cs),
(243,577,ls),
(359,577,o),
(450,486,o),
(450,370,cs),
(450,255,o),
(359,163,o),
(243,163,cs),
(87,163,ls),
(80,163,o),
(74,158,o),
(74,150,cs),
(74,143,o),
(80,138,o),
(87,138,cs)
);
},
{
closed = 1;
nodes = (
(80,0,o),
(86,5,o),
(86,13,cs),
(86,647,ls),
(86,655,o),
(80,660,o),
(73,660,cs),
(66,660,o),
(60,655,o),
(60,647,cs),
(60,13,ls),
(60,5,o),
(66,0,o),
(73,0,cs)
);
}
);
width = 519;
},
{
hints = (
{
horizontal = 1;
place = (226,26);
type = Stem;
},
{
horizontal = 1;
place = (634,26);
type = Stem;
},
{
place = (96,26);
type = Stem;
},
{
place = (412,26);
type = Stem;
}
);
layerId = m004;
shapes = (
{
closed = 1;
nodes = (
(318,68,ls),
(471,68,o),
(595,192,o),
(595,345,cs),
(595,498,o),
(471,621,o),
(318,621,cs),
(150,621,ls),
(117,621,o),
(91,594,o),
(91,562,cs),
(91,528,o),
(117,501,o),
(150,501,cs),
(318,501,ls),
(413,501,o),
(475,440,o),
(475,345,cs),
(475,250,o),
(413,187,o),
(318,187,cs),
(150,187,ls),
(117,187,o),
(91,161,o),
(91,127,cs),
(91,94,o),
(117,68,o),
(150,68,cs)
);
},
{
closed = 1;
nodes = (
(153,0,o),
(180,27,o),
(180,60,cs),
(180,600,ls),
(180,633,o),
(153,660,o),
(120,660,cs),
(87,660,o),
(60,633,o),
(60,600,cs),
(60,60,ls),
(60,27,o),
(87,0,o),
(120,0,cs)
);
}
);
width = 638;
}
);
metricLeft = P;
metricRight = P;
note = Thorn;
unicode = 254;
},
{
glyphname = q;
kernLeft = O;
kernRight = O;
lastChange = "2025-01-07 14:49:27 +0000";
layers = (
{
anchors = (
{
name = bottom;
pos = (386,0);
},
{
name = top;
pos = (386,660);
}
);
background = {
hints = (
{
horizontal = 1;
place = (-14,26);
type = Stem;
},
{
horizontal = 1;
place = (636,26);
type = Stem;
},
{
place = (26,26);
type = Stem;
},
{
place = (676,26);
type = Stem;
}
);
shapes = (
{
closed = 1;
nodes = (
(26,270,o),
(38,220,o),
(61,172,cs),
(84,125,o),
(123,82,o),
(178,43,cs),
(233,5,o),
(294,-14,o),
(365,-14,cs),
(434,-14,o),
(497,5,o),
(552,43,cs),
(607,82,o),
(646,125,o),
(668,172,cs),
(691,220,o),
(702,270,o),
(702,323,cs),
(702,385,o),
(687,441,o),
(657,494,cs),
(627,546,o),
(586,586,o),
(534,616,cs),
(482,647,o),
(425,662,o),
(365,662,cs),
(303,662,o),
(246,647,o),
(194,616,cs),
(142,586,o),
(102,546,o),
(71,494,cs),
(41,441,o),
(26,385,o),
(26,323,cs)
);
},
{
closed = 1;
nodes = (
(377,350,l),
(371,358,o),
(360,358,o),
(355,350,c),
(172,79,l),
(135,109,o),
(106,144,o),
(84,186,cs),
(63,229,o),
(53,275,o),
(53,323,cs),
(53,381,o),
(67,432,o),
(94,480,cs),
(122,528,o),
(160,566,o),
(207,593,cs),
(256,621,o),
(308,636,o),
(365,636,cs),
(421,636,o),
(473,621,o),
(520,593,cs),
(568,566,o),
(606,528,o),
(634,480,cs),
(662,432,o),
(676,381,o),
(676,323,cs),
(676,275,o),
(665,229,o),
(644,186,cs),
(623,144,o),
(594,108,o),
(557,79,c)
);
},
{
closed = 1;
nodes = (
(366,319,l),
(536,63,l),
(484,29,o),
(426,12,o),
(365,12,cs),
(302,12,o),
(245,29,o),
(193,63,c)
);
}
);
};
layerId = "12AF635E-66FE-4C90-B49C-8787585F2B73";
shapes = (
{
ref = Q;
}
);
width = 772;
},
{
anchors = (
{
name = bottom;
pos = (386,0);
},
{
name = top;
pos = (386,660);
}
);
layerId = m004;
shapes = (
{
ref = Q;
}
);
width = 772;
}
);
note = Q;
unicode = 113;
},
{
glyphname = r;
kernLeft = H;
kernRight = R;
lastChange = "2025-01-07 14:49:27 +0000";
layers = (
{
anchors = (
{
name = bottom;
pos = (284,0);
},
{
name = top;
pos = (224,660);
}
);
background = {
hints = (
{
horizontal = 1;
place = (-13,21);
target = up;
type = BottomGhost;
},
{
horizontal = 1;
place = (226,26);
type = Stem;
},
{
horizontal = 1;
place = (634,26);
type = Stem;
},
{
place = (93,26);
type = Stem;
},
{
place = (463,26);
type = Stem;
},
{
horizontal = 1;
place = (-14,21);
target = up;
type = BottomGhost;
}
);
shapes = (
{
closed = 1;
nodes = (
(66,0,ls),
(66,-7,o),
(72,-13,o),
(79,-13,cs),
(86,-13,o),
(92,-7,o),
(92,0,cs),
(92,226,l),
(245,226,ls),
(275,226,o),
(304,232,o),
(331,243,c),
(498,-7,ls),
(501,-11,o),
(505,-14,o),
(508,-14,cs),
(511,-14,o),
(513,-13,o),
(516,-11,cs),
(520,-8,o),
(523,-5,o),
(523,-1,cs),
(523,1,o),
(521,4,o),
(519,7,cs),
(355,256,l),
(388,275,o),
(414,301,o),
(433,334,cs),
(453,367,o),
(462,403,o),
(462,443,cs),
(462,503,o),
(441,554,o),
(399,596,cs),
(357,639,o),
(306,660,o),
(245,660,cs),
(78,660,ls),
(77,660,o),
(76,659,o),
(76,659,cs),
(69,657,o),
(66,653,o),
(66,647,cs)
);
},
{
closed = 1;
nodes = (
(104,634,l),
(245,634,ls),
(298,634,o),
(343,615,o),
(380,578,cs),
(418,541,o),
(436,496,o),
(436,443,cs),
(436,408,o),
(427,376,o),
(410,346,cs),
(392,316,o),
(369,294,o),
(340,278,c)
);
},
{
closed = 1;
nodes = (
(92,252,l),
(92,603,l),
(316,265,l),
(294,257,o),
(270,252,o),
(245,252,cs)
);
}
);
};
layerId = "12AF635E-66FE-4C90-B49C-8787585F2B73";
shapes = (
{
ref = R;
}
);
width = 568;
},
{
anchors = (
{
name = bottom;
pos = (307,0);
},
{
name = top;
pos = (294,660);
}
);
background = {
hints = (
{
horizontal = 1;
place = (-13,21);
target = up;
type = BottomGhost;
},
{
horizontal = 1;
place = (226,26);
type = Stem;
},
{
horizontal = 1;
place = (634,26);
type = Stem;
},
{
place = (93,26);
type = Stem;
},
{
place = (463,26);
type = Stem;
},
{
horizontal = 1;
place = (-14,21);
target = up;
type = BottomGhost;
}
);
shapes = (
{
closed = 1;
nodes = (
(90,0,ls),
(90,-7,o),
(96,-13,o),
(103,-13,cs),
(110,-13,o),
(116,-7,o),
(116,0,cs),
(116,226,l),
(269,226,ls),
(299,226,o),
(328,232,o),
(355,243,c),
(522,-7,ls),
(526,-11,o),
(528,-14,o),
(532,-14,cs),
(534,-14,o),
(537,-13,o),
(541,-11,cs),
(545,-8,o),
(547,-5,o),
(547,-1,cs),
(547,1,o),
(546,4,o),
(543,7,cs),
(379,256,l),
(412,275,o),
(438,301,o),
(457,334,cs),
(476,367,o),
(486,403,o),
(486,443,cs),
(486,503,o),
(465,554,o),
(423,596,cs),
(381,639,o),
(330,660,o),
(269,660,cs),
(102,660,ls),
(102,660,o),
(101,659,o),
(99,659,cs),
(93,657,o),
(90,653,o),
(90,647,cs)
);
},
{
closed = 1;
nodes = (
(127,634,l),
(269,634,ls),
(322,634,o),
(367,615,o),
(403,578,cs),
(441,541,o),
(460,496,o),
(460,443,cs),
(460,408,o),
(451,376,o),
(433,346,cs),
(417,316,o),
(393,294,o),
(364,278,c)
);
},
{
closed = 1;
nodes = (
(116,252,l),
(116,603,l),
(340,265,l),
(317,257,o),
(294,252,o),
(269,252,cs)
);
}
);
};
layerId = m004;
shapes = (
{
ref = R;
}
);
width = 614;
}
);
note = R;
unicode = 114;
},
{
glyphname = s;
kernLeft = S;
kernRight = S;
lastChange = "2025-01-07 14:49:27 +0000";
layers = (
{
anchors = (
{
name = bottom;
pos = (267,0);
},
{
name = top;
pos = (267,660);
}
);
background = {
hints = (
{
horizontal = 1;
place = (-13,26);
type = Stem;
},
{
horizontal = 1;
place = (634,26);
type = Stem;
},
{
place = (72,26);
type = Stem;
}
);
shapes = (
{
closed = 1;
nodes = (
(323,118,l),
(432,13,l),
(77,13,ls),
(59,13,o),
(60,-13,o),
(77,-13,cs),
(463,-13,l),
(469,-13,o),
(474,-11,o),
(476,-4,cs),
(476,-3,o),
(476,-1,o),
(476,1,cs),
(476,4,o),
(476,7,o),
(473,10,cs),
(287,186,ls),
(212,257,o),
(163,303,o),
(142,329,c),
(452,637,ls),
(456,641,o),
(457,646,o),
(454,651,cs),
(453,657,o),
(448,660,o),
(442,660,cs),
(280,660,ls),
(221,660,o),
(170,639,o),
(127,596,cs),
(84,554,o),
(63,503,o),
(63,443,cs),
(63,405,o),
(80,367,o),
(105,333,cs),
(117,316,o),
(135,296,o),
(159,272,cs),
(183,248,o),
(206,225,o),
(229,204,cs)
);
},
{
closed = 1;
nodes = (
(90,444,ls),
(90,496,o),
(108,541,o),
(146,578,cs),
(183,615,o),
(228,634,o),
(280,634,cs),
(410,634,l),
(126,349,l),
(103,381,o),
(91,410,o),
(90,438,cs)
);
}
);
};
layerId = "12AF635E-66FE-4C90-B49C-8787585F2B73";
shapes = (
{
ref = S;
}
);
width = 512;
},
{
anchors = (
{
name = bottom;
pos = (280,0);
},
{
name = top;
pos = (280,660);
}
);
background = {
hints = (
{
horizontal = 1;
place = (-13,26);
type = Stem;
},
{
horizontal = 1;
place = (634,26);
type = Stem;
},
{
place = (72,26);
type = Stem;
}
);
shapes = (
{
closed = 1;
nodes = (
(331,118,l),
(440,13,l),
(86,13,ls),
(68,13,o),
(69,-13,o),
(86,-13,cs),
(472,-13,l),
(477,-13,o),
(482,-11,o),
(484,-4,cs),
(485,-3,o),
(485,-1,o),
(485,1,cs),
(485,4,o),
(484,7,o),
(482,10,cs),
(295,186,ls),
(220,257,o),
(172,303,o),
(151,329,c),
(461,637,ls),
(464,641,o),
(465,646,o),
(463,651,cs),
(461,657,o),
(457,660,o),
(451,660,cs),
(289,660,ls),
(229,660,o),
(178,639,o),
(135,596,cs),
(93,554,o),
(72,503,o),
(72,443,cs),
(72,405,o),
(89,367,o),
(113,333,cs),
(126,316,o),
(144,296,o),
(167,272,cs),
(191,248,o),
(214,225,o),
(237,204,cs)
);
},
{
closed = 1;
nodes = (
(98,444,ls),
(98,496,o),
(117,541,o),
(154,578,cs),
(192,615,o),
(236,634,o),
(289,634,cs),
(419,634,l),
(134,349,l),
(112,381,o),
(99,410,o),
(98,438,cs)
);
}
);
};
layerId = m004;
shapes = (
{
ref = S;
}
);
width = 559;
}
);
note = S;
unicode = 115;
},
{
glyphname = germandbls;
kernLeft = H;
kernRight = B;
lastChange = "2025-01-07 14:49:27 +0000";
layers = (
{
hints = (
{
horizontal = 1;
place = (-14,26);
type = Stem;
},
{
horizontal = 1;
place = (324,26);
type = Stem;
},
{
horizontal = 1;
place = (396,26);
type = Stem;
},
{
horizontal = 1;
place = (634,26);
type = Stem;
},
{
place = (152,26);
type = Stem;
},
{
place = (236,27);
type = Stem;
},
{
place = (403,26);
type = Stem;
},
{
place = (498,26);
type = Stem;
},
{
horizontal = 1;
place = (-16,26);
type = Stem;
}
);
layerId = "12AF635E-66FE-4C90-B49C-8787585F2B73";
shapes = (
{
closed = 1;
nodes = (
(80,0,o),
(86,5,o),
(86,13,cs),
(86,635,l),
(461,635,l),
(69,265,ls),
(66,263,o),
(64,259,o),
(64,256,cs),
(64,249,o),
(70,243,o),
(76,243,cs),
(80,243,o),
(84,243,o),
(86,246,cs),
(490,626,ls),
(504,640,o),
(495,660,o),
(476,660,cs),
(74,660,ls),
(66,660,o),
(60,654,o),
(60,646,cs),
(60,13,ls),
(60,5,o),
(66,0,o),
(73,0,cs)
);
},
{
closed = 1;
nodes = (
(365,0,ls),
(477,0,o),
(569,91,o),
(569,204,cs),
(569,250,o),
(547,301,o),
(498,348,cs),
(344,495,ls),
(341,498,o),
(338,499,o),
(335,499,cs),
(328,499,o),
(322,493,o),
(322,486,cs),
(322,483,o),
(323,479,o),
(325,477,cs),
(480,330,ls),
(525,287,o),
(543,244,o),
(543,204,cs),
(543,102,o),
(467,25,o),
(365,25,cs),
(188,25,ls),
(181,25,o),
(175,20,o),
(175,13,cs),
(175,5,o),
(181,0,o),
(188,0,cs)
);
}
);
width = 612;
},
{
hints = (
{
horizontal = 1;
place = (-14,26);
type = Stem;
},
{
horizontal = 1;
place = (324,26);
type = Stem;
},
{
horizontal = 1;
place = (396,26);
type = Stem;
},
{
horizontal = 1;
place = (634,26);
type = Stem;
},
{
place = (152,26);
type = Stem;
},
{
place = (236,27);
type = Stem;
},
{
place = (403,26);
type = Stem;
},
{
place = (498,26);
type = Stem;
},
{
horizontal = 1;
place = (-16,26);
type = Stem;
}
);
layerId = m004;
shapes = (
{
closed = 1;
nodes = (
(153,0,o),
(180,27,o),
(180,60,cs),
(180,540,l),
(349,540,l),
(82,288,ls),
(70,277,o),
(62,261,o),
(62,244,cs),
(62,211,o),
(90,184,o),
(123,184,cs),
(139,184,o),
(154,191,o),
(164,201,cs),
(513,529,ls),
(568,581,o),
(536,660,o),
(461,660,cs),
(113,660,ls),
(82,660,o),
(60,638,o),
(60,607,cs),
(60,60,ls),
(60,27,o),
(87,0,o),
(120,0,cs)
);
},
{
closed = 1;
nodes = (
(423,0,ls),
(556,0,o),
(663,108,o),
(663,240,cs),
(663,295,o),
(636,357,o),
(582,410,cs),
(470,517,ls),
(460,527,o),
(445,534,o),
(429,534,cs),
(396,534,o),
(368,507,o),
(368,474,cs),
(368,457,o),
(375,441,o),
(387,431,cs),
(498,323,ls),
(534,288,o),
(543,268,o),
(543,240,cs),
(543,163,o),
(501,120,o),
(423,120,cs),
(289,120,ls),
(256,120,o),
(229,93,o),
(229,60,cs),
(229,27,o),
(256,0,o),
(289,0,cs)
);
}
);
width = 706;
}
);
unicode = 223;
},
{
glyphname = t;
kernLeft = T;
kernRight = T;
lastChange = "2025-01-07 14:49:27 +0000";
layers = (
{
anchors = (
{
name = bottom;
pos = (306,13);
},
{
name = center;
pos = (318,330);
},
{
name = top;
pos = (306,660);
}
);
background = {
hints = (
{
horizontal = 1;
place = (-13,21);
target = up;
type = BottomGhost;
},
{
place = (314,26);
type = Stem;
}
);
shapes = (
{
closed = 1;
nodes = (
(302,620,l),
(302,0,ls),
(302,-9,o),
(307,-13,o),
(316,-13,cs),
(324,-13,o),
(329,-9,o),
(329,0,cs),
(329,620,l),
(574,430,ls),
(581,425,o),
(587,425,o),
(592,432,cs),
(594,436,o),
(596,439,o),
(596,441,cs),
(596,445,o),
(593,448,o),
(590,451,cs),
(323,657,l),
(316,660,l),
(312,660,o),
(310,659,o),
(308,657,cs),
(41,451,ls),
(37,448,o),
(35,445,o),
(35,441,cs),
(35,439,o),
(37,436,o),
(39,432,cs),
(44,425,o),
(50,425,o),
(57,430,cs)
);
}
);
};
layerId = "12AF635E-66FE-4C90-B49C-8787585F2B73";
shapes = (
{
ref = T;
}
);
width = 612;
},
{
anchors = (
{
name = bottom;
pos = (319,9);
},
{
name = center;
pos = (331,330);
},
{
name = top;
pos = (319,660);
}
);
background = {
hints = (
{
horizontal = 1;
place = (-13,21);
target = up;
type = BottomGhost;
},
{
place = (314,26);
type = Stem;
}
);
shapes = (
{
closed = 1;
nodes = (
(316,620,l),
(316,0,ls),
(316,-9,o),
(320,-13,o),
(329,-13,cs),
(338,-13,o),
(342,-9,o),
(342,0,cs),
(342,620,l),
(587,430,ls),
(594,425,o),
(600,425,o),
(606,432,cs),
(607,436,o),
(609,439,o),
(609,441,cs),
(609,445,o),
(607,448,o),
(603,451,cs),
(337,657,l),
(329,660,l),
(326,660,o),
(323,659,o),
(321,657,cs),
(54,451,ls),
(51,448,o),
(48,445,o),
(48,441,cs),
(48,439,o),
(50,436,o),
(52,432,cs),
(57,425,o),
(63,425,o),
(70,430,cs)
);
}
);
};
layerId = m004;
shapes = (
{
ref = T;
}
);
width = 639;
}
);
note = T;
unicode = 116;
},
{
glyphname = tbar;
kernLeft = T;
kernRight = T;
lastChange = "2025-01-07 14:49:27 +0000";
layers = (
{
layerId = "12AF635E-66FE-4C90-B49C-8787585F2B73";
shapes = (
{
closed = 1;
nodes = (
(472,267,ls),
(479,267,o),
(484,273,o),
(484,280,cs),
(484,287,o),
(479,293,o),
(472,293,cs),
(163,293,ls),
(156,293,o),
(150,287,o),
(150,280,cs),
(150,273,o),
(156,267,o),
(163,267,cs)
);
},
{
ref = T;
}
);
width = 659;
},
{
layerId = m004;
shapes = (
{
closed = 1;
nodes = (
(472,211,ls),
(505,211,o),
(532,238,o),
(532,271,cs),
(532,304,o),
(505,331,o),
(472,331,cs),
(163,331,ls),
(130,331,o),
(104,304,o),
(104,271,cs),
(104,238,o),
(130,211,o),
(163,211,cs)
);
},
{
ref = T;
}
);
width = 659;
}
);
unicode = 359;
},
{
glyphname = u;
kernLeft = H;
kernRight = H;
lastChange = "2025-01-07 14:49:27 +0000";
layers = (
{
anchors = (
{
name = bottom;
pos = (294,0);
},
{
name = ogonek;
pos = (339,4);
},
{
name = top;
pos = (294,660);
},
{
name = topright;
pos = (527,647);
}
);
background = {
hints = (
{
horizontal = 1;
place = (-13,26);
type = Stem;
},
{
place = (57,26);
type = Stem;
},
{
place = (498,26);
type = Stem;
}
);
shapes = (
{
closed = 1;
nodes = (
(61,206,ls),
(61,146,o),
(84,94,o),
(129,51,cs),
(176,8,o),
(230,-13,o),
(294,-13,cs),
(359,-13,o),
(414,7,o),
(460,49,cs),
(505,91,o),
(528,143,o),
(528,206,cs),
(528,648,ls),
(528,655,o),
(521,661,o),
(514,661,cs),
(507,661,o),
(501,655,o),
(501,648,cs),
(501,206,ls),
(501,150,o),
(481,105,o),
(441,68,cs),
(402,32,o),
(352,13,o),
(294,13,cs),
(237,13,o),
(188,33,o),
(148,70,cs),
(108,109,o),
(88,154,o),
(88,206,cs),
(88,648,ls),
(88,665,o),
(61,665,o),
(61,648,cs)
);
}
);
};
layerId = "12AF635E-66FE-4C90-B49C-8787585F2B73";
shapes = (
{
ref = U;
}
);
width = 587;
},
{
anchors = (
{
name = bottom;
pos = (342,0);
},
{
name = ogonek;
pos = (369,30);
},
{
name = top;
pos = (342,660);
},
{
name = topright;
pos = (622,600);
}
);
background = {
hints = (
{
horizontal = 1;
place = (-13,26);
type = Stem;
},
{
place = (57,26);
type = Stem;
},
{
place = (498,26);
type = Stem;
}
);
shapes = (
{
closed = 1;
nodes = (
(108,206,ls),
(108,146,o),
(131,94,o),
(177,51,cs),
(222,8,o),
(277,-13,o),
(341,-13,cs),
(406,-13,o),
(461,7,o),
(507,49,cs),
(552,91,o),
(575,143,o),
(575,206,cs),
(575,648,ls),
(575,655,o),
(569,661,o),
(562,661,cs),
(554,661,o),
(548,655,o),
(548,648,cs),
(548,206,ls),
(548,150,o),
(528,105,o),
(489,68,cs),
(448,32,o),
(399,13,o),
(341,13,cs),
(284,13,o),
(236,33,o),
(195,70,cs),
(155,109,o),
(134,154,o),
(134,206,cs),
(134,648,ls),
(135,665,o),
(108,665,o),
(108,648,cs)
);
}
);
};
layerId = m004;
shapes = (
{
ref = U;
}
);
width = 682;
}
);
note = U;
unicode = 117;
},
{
glyphname = x;
kernLeft = X;
kernRight = X;
lastChange = "2025-01-07 14:49:27 +0000";
layers = (
{
anchors = (
{
name = bottom;
pos = (299,0);
},
{
name = top;
pos = (299,660);
}
);
background = {
hints = (
{
horizontal = 1;
place = (-14,26);
type = Stem;
},
{
place = (82,573);
type = Stem;
}
);
shapes = (
{
closed = 1;
nodes = (
(574,-14,l),
(579,-14,o),
(584,-11,o),
(586,-6,cs),
(587,-4,o),
(587,-3,o),
(587,0,cs),
(587,3,o),
(586,5,o),
(585,8,cs),
(317,340,l),
(556,638,ls),
(562,645,o),
(561,651,o),
(554,657,cs),
(551,659,o),
(548,660,o),
(546,660,cs),
(542,660,o),
(539,658,o),
(536,655,cs),
(301,361,l),
(65,655,ls),
(62,658,o),
(58,660,o),
(55,660,cs),
(52,660,o),
(49,659,o),
(46,657,cs),
(40,651,o),
(39,645,o),
(44,638,c),
(284,340,l),
(18,8,ls),
(16,5,o),
(15,3,o),
(15,0,cs),
(15,-3,o),
(15,-4,o),
(17,-6,cs),
(18,-11,o),
(23,-14,o),
(28,-14,c)
);
},
{
closed = 1;
nodes = (
(547,12,l),
(55,12,l),
(301,319,l)
);
}
);
};
layerId = "12AF635E-66FE-4C90-B49C-8787585F2B73";
shapes = (
{
ref = X;
}
);
width = 600;
},
{
anchors = (
{
name = bottom;
pos = (309,0);
},
{
name = top;
pos = (309,660);
}
);
background = {
hints = (
{
horizontal = 1;
place = (-14,26);
type = Stem;
},
{
place = (82,573);
type = Stem;
}
);
shapes = (
{
closed = 1;
nodes = (
(583,-14,l),
(588,-14,o),
(592,-11,o),
(595,-6,cs),
(596,-4,o),
(597,-3,o),
(597,0,cs),
(597,3,o),
(596,5,o),
(593,8,cs),
(326,340,l),
(565,638,ls),
(570,645,o),
(570,651,o),
(563,657,cs),
(560,659,o),
(557,660,o),
(555,660,cs),
(551,660,o),
(548,658,o),
(545,655,cs),
(309,361,l),
(74,655,ls),
(71,658,o),
(68,660,o),
(64,660,cs),
(61,660,o),
(58,659,o),
(55,657,cs),
(48,651,o),
(47,645,o),
(53,638,c),
(293,340,l),
(26,8,ls),
(25,5,o),
(24,3,o),
(24,0,cs),
(24,-3,o),
(24,-4,o),
(25,-6,cs),
(28,-11,o),
(32,-14,o),
(37,-14,c)
);
},
{
closed = 1;
nodes = (
(556,12,l),
(64,12,l),
(309,319,l)
);
}
);
};
layerId = m004;
name = Bold;
shapes = (
{
ref = X;
}
);
width = 620;
}
);
note = X;
unicode = 120;
},
{
glyphname = y;
kernLeft = Y;
kernRight = Y;
lastChange = "2025-01-07 14:49:27 +0000";
layers = (
{
anchors = (
{
name = bottom;
pos = (326,0);
},
{
name = top;
pos = (326,660);
},
{
name = topleft;
pos = (5,660);
}
);
background = {
hints = (
{
horizontal = 1;
place = (-13,21);
target = up;
type = BottomGhost;
},
{
horizontal = 1;
place = (634,26);
type = Stem;
},
{
place = (316,26);
type = Stem;
}
);
shapes = (
{
closed = 1;
nodes = (
(313,309,l),
(313,0,ls),
(313,-9,o),
(317,-13,o),
(326,-13,cs),
(335,-13,o),
(339,-9,o),
(339,0,cs),
(339,309,l),
(632,638,ls),
(635,641,o),
(636,643,o),
(636,646,cs),
(636,649,o),
(635,650,o),
(634,652,cs),
(631,657,o),
(628,660,o),
(622,660,cs),
(40,660,ls),
(35,660,o),
(31,657,o),
(28,653,cs),
(27,650,o),
(27,649,o),
(26,647,c),
(27,643,o),
(28,641,o),
(30,638,c)
);
},
{
closed = 1;
nodes = (
(326,334,l),
(69,634,l),
(592,634,l)
);
}
);
};
layerId = "12AF635E-66FE-4C90-B49C-8787585F2B73";
shapes = (
{
ref = Y;
}
);
width = 650;
},
{
anchors = (
{
name = bottom;
pos = (368,0);
},
{
name = top;
pos = (368,660);
},
{
name = topleft;
pos = (48,660);
}
);
background = {
hints = (
{
horizontal = 1;
place = (-13,21);
target = up;
type = BottomGhost;
},
{
horizontal = 1;
place = (634,26);
type = Stem;
},
{
place = (316,26);
type = Stem;
}
);
shapes = (
{
closed = 1;
nodes = (
(356,309,l),
(356,0,ls),
(356,-9,o),
(360,-13,o),
(369,-13,cs),
(378,-13,o),
(382,-9,o),
(382,0,cs),
(382,309,l),
(675,638,ls),
(678,641,o),
(678,643,o),
(678,646,cs),
(678,649,o),
(678,650,o),
(677,652,cs),
(674,657,o),
(671,660,o),
(665,660,cs),
(84,660,ls),
(77,660,o),
(73,657,o),
(71,653,cs),
(70,650,o),
(70,649,o),
(69,647,c),
(70,643,o),
(71,641,o),
(73,638,c)
);
},
{
closed = 1;
nodes = (
(369,334,l),
(112,634,l),
(636,634,l)
);
}
);
};
layerId = m004;
shapes = (
{
ref = Y;
}
);
width = 736;
}
);
note = Y;
unicode = 121;
},
{
glyphname = z;
kernLeft = Z;
kernRight = Z;
lastChange = "2025-01-07 14:49:27 +0000";
layers = (
{
anchors = (
{
name = bottom;
pos = (287,0);
},
{
name = center;
pos = (287,330);
},
{
name = top;
pos = (287,660);
}
);
background = {
hints = (
{
horizontal = 1;
place = (-13,26);
type = Stem;
},
{
horizontal = 1;
place = (634,26);
type = Stem;
},
{
place = (76,576);
type = Stem;
}
);
shapes = (
{
closed = 1;
nodes = (
(562,-13,ls),
(570,-13,o),
(575,-9,o),
(575,0,cs),
(575,9,o),
(570,13,o),
(562,13,cs),
(40,13,l),
(534,639,l),
(539,643,o),
(539,648,o),
(536,652,cs),
(534,657,o),
(530,660,o),
(525,660,cs),
(74,660,ls),
(64,660,o),
(57,647,o),
(64,639,cs),
(278,357,l),
(2,8,l),
(0,5,o),
(-1,3,o),
(-1,0,cs),
(-1,-2,o),
(0,-4,o),
(1,-5,cs),
(4,-11,o),
(7,-13,o),
(13,-13,c)
);
},
{
closed = 1;
nodes = (
(294,378,l),
(101,634,l),
(497,634,l)
);
}
);
};
layerId = "12AF635E-66FE-4C90-B49C-8787585F2B73";
shapes = (
{
ref = Z;
}
);
width = 561;
},
{
anchors = (
{
name = bottom;
pos = (286,0);
},
{
name = center;
pos = (286,330);
},
{
name = top;
pos = (286,660);
}
);
background = {
hints = (
{
horizontal = 1;
place = (-13,26);
type = Stem;
},
{
horizontal = 1;
place = (634,26);
type = Stem;
},
{
place = (76,576);
type = Stem;
}
);
shapes = (
{
closed = 1;
nodes = (
(561,-13,ls),
(570,-13,o),
(574,-9,o),
(574,0,cs),
(574,9,o),
(570,13,o),
(561,13,cs),
(40,13,l),
(534,639,l),
(538,643,o),
(539,648,o),
(535,652,cs),
(533,657,o),
(529,660,o),
(524,660,cs),
(74,660,ls),
(63,660,o),
(56,647,o),
(63,639,cs),
(278,357,l),
(2,8,l),
(0,5,o),
(-1,3,o),
(-1,0,cs),
(-1,-2,o),
(-1,-4,o),
(0,-5,cs),
(3,-11,o),
(7,-13,o),
(12,-13,c)
);
},
{
closed = 1;
nodes = (
(294,378,l),
(100,634,l),
(497,634,l)
);
}
);
};
layerId = m004;
shapes = (
{
ref = Z;
}
);
width = 599;
}
);
note = Z;
unicode = 122;
},
{
glyphname = f_f;
kernLeft = H;
kernRight = F;
lastChange = "2025-01-07 14:49:27 +0000";
layers = (
{
anchors = (
{
name = bottom;
pos = (265,0);
},
{
name = caret_1;
pos = (481,0);
},
{
name = top;
pos = (265,660);
}
);
layerId = "12AF635E-66FE-4C90-B49C-8787585F2B73";
shapes = (
{
closed = 1;
nodes = (
(80,-1,o),
(86,4,o),
(86,11,cs),
(86,635,l),
(450,635,l),
(63,248,l),
(491,248,ls),
(498,248,o),
(505,254,o),
(505,261,cs),
(505,268,o),
(498,274,o),
(491,274,cs),
(126,274,l),
(479,628,ls),
(492,641,o),
(483,660,o),
(465,660,cs),
(74,660,ls),
(66,660,o),
(60,654,o),
(60,646,cs),
(60,11,ls),
(60,4,o),
(66,-1,o),
(73,-1,cs)
);
},
{
pos = (425,0);
ref = f;
}
);
width = 962;
},
{
anchors = (
{
name = bottom;
pos = (308,0);
},
{
name = caret_1;
pos = (568,0);
},
{
name = top;
pos = (308,660);
}
);
layerId = m004;
shapes = (
{
closed = 1;
nodes = (
(153,0,o),
(180,27,o),
(180,60,cs),
(180,540,l),
(383,540,l),
(89,246,l),
(612,246,ls),
(644,246,o),
(672,273,o),
(672,306,cs),
(672,339,o),
(644,367,o),
(612,367,cs),
(379,367,l),
(547,534,ls),
(598,585,o),
(566,660,o),
(494,660,cs),
(113,660,ls),
(82,660,o),
(60,638,o),
(60,607,cs),
(60,60,ls),
(60,27,o),
(87,0,o),
(120,0,cs)
);
},
{
alignment = -1;
pos = (512,0);
ref = f;
}
);
width = 1135;
}
);
metricLeft = f;
metricRight = f;
unicode = 64256;
},
{
glyphname = f_f_i;
lastChange = "2025-01-07 14:49:27 +0000";
layers = (
{
anchors = (
{
name = bottom;
pos = (265,0);
},
{
name = caret_1;
pos = (392,0);
},
{
name = caret_2;
pos = (783,0);
},
{
name = top;
pos = (265,660);
}
);
layerId = "12AF635E-66FE-4C90-B49C-8787585F2B73";
shapes = (
{
closed = 1;
nodes = (
(80,-1,o),
(86,4,o),
(86,11,cs),
(86,635,l),
(450,635,l),
(63,248,l),
(491,248,ls),
(498,248,o),
(505,254,o),
(505,261,cs),
(505,268,o),
(498,274,o),
(491,274,cs),
(126,274,l),
(479,628,ls),
(492,641,o),
(483,660,o),
(465,660,cs),
(74,660,ls),
(66,660,o),
(60,654,o),
(60,646,cs),
(60,11,ls),
(60,4,o),
(66,-1,o),
(73,-1,cs)
);
},
{
alignment = -1;
pos = (425,0);
ref = f_i;
}
);
width = 1175;
},
{
anchors = (
{
name = bottom;
pos = (308,0);
},
{
name = caret_1;
pos = (473,0);
},
{
name = caret_2;
pos = (945,0);
},
{
name = top;
pos = (308,660);
}
);
layerId = m004;
shapes = (
{
closed = 1;
nodes = (
(153,0,o),
(180,27,o),
(180,60,cs),
(180,540,l),
(383,540,l),
(89,246,l),
(612,246,ls),
(644,246,o),
(672,273,o),
(672,306,cs),
(672,339,o),
(644,367,o),
(612,367,cs),
(379,367,l),
(547,534,ls),
(598,585,o),
(566,660,o),
(494,660,cs),
(113,660,ls),
(82,660,o),
(60,638,o),
(60,607,cs),
(60,60,ls),
(60,27,o),
(87,0,o),
(120,0,cs)
);
},
{
alignment = -1;
pos = (512,0);
ref = f_i;
}
);
width = 1419;
}
);
metricLeft = f;
metricRight = i;
unicode = 64259;
},
{
glyphname = f_f_l;
kernLeft = H;
kernRight = L;
lastChange = "2025-01-07 14:49:27 +0000";
layers = (
{
anchors = (
{
name = bottom;
pos = (265,0);
},
{
name = caret_1;
pos = (447,0);
},
{
name = caret_2;
pos = (892,0);
},
{
name = top;
pos = (265,660);
}
);
layerId = "12AF635E-66FE-4C90-B49C-8787585F2B73";
shapes = (
{
closed = 1;
nodes = (
(80,-1,o),
(86,4,o),
(86,11,cs),
(86,635,l),
(450,635,l),
(63,248,l),
(491,248,ls),
(498,248,o),
(505,254,o),
(505,261,cs),
(505,268,o),
(498,274,o),
(491,274,cs),
(126,274,l),
(479,628,ls),
(492,641,o),
(483,660,o),
(465,660,cs),
(74,660,ls),
(66,660,o),
(60,654,o),
(60,646,cs),
(60,11,ls),
(60,4,o),
(66,-1,o),
(73,-1,cs)
);
},
{
alignment = -1;
pos = (425,0);
ref = f_l;
}
);
width = 1338;
},
{
anchors = (
{
name = bottom;
pos = (308,0);
},
{
name = caret_1;
pos = (522,0);
},
{
name = caret_2;
pos = (1044,0);
},
{
name = top;
pos = (308,660);
}
);
layerId = m004;
shapes = (
{
closed = 1;
nodes = (
(153,0,o),
(180,27,o),
(180,60,cs),
(180,540,l),
(383,540,l),
(89,246,l),
(612,246,ls),
(644,246,o),
(672,273,o),
(672,306,cs),
(672,339,o),
(644,367,o),
(612,367,cs),
(379,367,l),
(547,534,ls),
(598,585,o),
(566,660,o),
(494,660,cs),
(113,660,ls),
(82,660,o),
(60,638,o),
(60,607,cs),
(60,60,ls),
(60,27,o),
(87,0,o),
(120,0,cs)
);
},
{
alignment = -1;
pos = (512,0);
ref = f_l;
}
);
width = 1568;
}
);
metricLeft = f;
metricRight = l;
unicode = 64260;
},
{
glyphname = f_i;
kernLeft = H;
kernRight = I;
lastChange = "2025-01-07 14:49:27 +0000";
layers = (
{
anchors = (
{
name = bottom;
pos = (265,0);
},
{
name = caret_1;
pos = (375,0);
},
{
name = top;
pos = (265,660);
}
);
layerId = "12AF635E-66FE-4C90-B49C-8787585F2B73";
shapes = (
{
closed = 1;
nodes = (
(80,-1,o),
(86,4,o),
(86,11,cs),
(86,635,l),
(450,635,l),
(63,248,l),
(568,248,ls),
(575,248,o),
(580,254,o),
(580,261,cs),
(580,268,o),
(575,274,o),
(568,274,cs),
(126,274,l),
(489,637,ls),
(502,650,o),
(498,660,o),
(480,660,cs),
(74,660,ls),
(66,660,o),
(60,654,o),
(60,646,cs),
(60,11,ls),
(60,4,o),
(66,-1,o),
(73,-1,cs)
);
},
{
alignment = -1;
pos = (395,0);
ref = i;
}
);
width = 750;
},
{
anchors = (
{
name = bottom;
pos = (308,0);
},
{
name = caret_1;
pos = (454,0);
},
{
name = top;
pos = (308,660);
}
);
layerId = m004;
shapes = (
{
closed = 1;
nodes = (
(153,0,o),
(180,27,o),
(180,60,cs),
(180,540,l),
(383,540,l),
(89,246,l),
(633,246,ls),
(665,246,o),
(693,273,o),
(693,306,cs),
(693,339,o),
(665,367,o),
(633,367,cs),
(379,367,l),
(575,561,ls),
(626,612,o),
(627,660,o),
(554,660,cs),
(113,660,ls),
(82,660,o),
(60,638,o),
(60,607,cs),
(60,60,ls),
(60,27,o),
(87,0,o),
(120,0,cs)
);
},
{
alignment = -1;
pos = (434,0);
ref = i;
}
);
width = 907;
}
);
metricLeft = f;
metricRight = i;
unicode = 64257;
},
{
glyphname = f_l;
kernLeft = H;
kernRight = L;
lastChange = "2025-01-07 14:49:27 +0000";
layers = (
{
anchors = (
{
name = bottom;
pos = (265,0);
},
{
name = bottom_1;
pos = (229,0);
},
{
name = bottom_2;
pos = (685,0);
},
{
name = caret_1;
pos = (457,0);
},
{
name = top;
pos = (265,660);
},
{
name = top_1;
pos = (229,703);
},
{
name = top_2;
pos = (685,703);
}
);
layerId = "12AF635E-66FE-4C90-B49C-8787585F2B73";
shapes = (
{
closed = 1;
nodes = (
(80,-1,o),
(86,4,o),
(86,11,cs),
(86,635,l),
(450,635,l),
(63,248,l),
(491,248,ls),
(498,248,o),
(505,254,o),
(505,261,cs),
(505,268,o),
(498,274,o),
(491,274,cs),
(126,274,l),
(479,628,ls),
(492,641,o),
(483,660,o),
(465,660,cs),
(74,660,ls),
(66,660,o),
(60,654,o),
(60,646,cs),
(60,11,ls),
(60,4,o),
(66,-1,o),
(73,-1,cs)
);
},
{
alignment = -1;
pos = (425,0);
ref = l;
}
);
width = 913;
},
{
anchors = (
{
name = bottom;
pos = (308,0);
},
{
name = bottom_1;
pos = (264,0);
},
{
name = bottom_2;
pos = (791,0);
},
{
name = caret_1;
pos = (527,0);
},
{
name = top;
pos = (308,660);
},
{
name = top_1;
pos = (264,703);
},
{
name = top_2;
pos = (791,703);
}
);
layerId = m004;
shapes = (
{
closed = 1;
nodes = (
(153,0,o),
(180,27,o),
(180,60,cs),
(180,540,l),
(383,540,l),
(89,246,l),
(594,246,ls),
(628,246,o),
(655,273,o),
(655,306,cs),
(655,339,o),
(628,367,o),
(594,367,cs),
(379,367,l),
(547,534,ls),
(598,585,o),
(566,660,o),
(494,660,cs),
(113,660,ls),
(82,660,o),
(60,638,o),
(60,607,cs),
(60,60,ls),
(60,27,o),
(87,0,o),
(120,0,cs)
);
},
{
alignment = -1;
pos = (512,0);
ref = l;
}
);
width = 1056;
}
);
metricLeft = f;
metricRight = l;
unicode = 64258;
},
{
glyphname = Asuperior;
lastChange = "2025-01-07 14:49:27 +0000";
layers = (
{
anchors = (
{
name = _middle;
pos = (208,476.715);
},
{
name = bottom;
pos = (208.986,285);
},
{
name = ogonek;
pos = (391.706,288.426);
},
{
name = top;
pos = (208.986,661.86);
}
);
layerId = "12AF635E-66FE-4C90-B49C-8787585F2B73";
shapes = (
{
closed = 1;
nodes = (
(20,285,o),
(22,287,o),
(23,289,c),
(100,439,l),
(201,289,l),
(205,283,o),
(211,283,o),
(215,289,c),
(316,438,l),
(393,289,ls),
(394,287,o),
(396,285,o),
(400,285,cs),
(404,285,o),
(407,288,o),
(407,292,cs),
(407,294,o),
(407,295,o),
(405,298,cs),
(217,664,ls),
(213,672,o),
(203,672,o),
(199,664,cs),
(12,299,ls),
(11,297,o),
(9,293,o),
(9,291,cs),
(9,288,o),
(13,285,o),
(17,285,cs)
);
},
{
closed = 1;
nodes = (
(208,648,l),
(308,454,l),
(208,304,l),
(108,453,l)
);
}
);
width = 417;
},
{
anchors = (
{
name = _middle;
pos = (207,476.857);
},
{
name = bottom;
pos = (208.415,285);
},
{
name = ogonek;
pos = (363.156,315.834);
},
{
name = top;
pos = (208.415,661.86);
}
);
layerId = m004;
shapes = (
{
closed = 1;
nodes = (
(57,285,o),
(69,292,o),
(74,304,c),
(119,391,l),
(179,302,ls),
(194,279,o),
(222,279,o),
(236,302,cs),
(296,391,l),
(341,303,ls),
(347,292,o),
(358,285,o),
(371,285,cs),
(390,285,o),
(405,300,o),
(405,319,cs),
(405,325,o),
(404,331,o),
(401,336,cs),
(242,646,ls),
(226,677,o),
(189,677,o),
(173,646,cs),
(14,336,ls),
(11,331,o),
(10,326,o),
(10,320,cs),
(10,300,o),
(25,285,o),
(44,285,cs)
);
},
{
closed = 1;
nodes = (
(208,563,l),
(260,461,l),
(208,382,l),
(155,460,l)
);
}
);
width = 415;
},
{
anchors = (
{
name = _middle;
pos = (190,476.643);
}
);
associatedMasterId = "12AF635E-66FE-4C90-B49C-8787585F2B73";
layerId = "3B5F2A21-9AC0-43BD-916B-7DC2040966BF";
name = Bold;
shapes = (
{
pos = (0,285);
ref = A;
scale = (0.571,0.571);
}
);
width = 417;
},
{
anchors = (
{
name = _middle;
pos = (193,476.643);
}
);
associatedMasterId = "12AF635E-66FE-4C90-B49C-8787585F2B73";
layerId = "1DB3F64C-B148-42AA-8299-ED68ABA9E6AC";
name = Black;
shapes = (
{
pos = (0,285);
ref = A;
scale = (0.571,0.571);
}
);
width = 417;
}
);
},
{
glyphname = Bsuperior;
lastChange = "2025-01-07 14:49:27 +0000";
layers = (
{
anchors = (
{
name = _middle;
pos = (139,473);
},
{
name = bottom;
pos = (161.593,285);
},
{
name = center;
pos = (161.593,473.43);
},
{
name = top;
pos = (161.593,661.86);
}
);
layerId = "12AF635E-66FE-4C90-B49C-8787585F2B73";
shapes = (
{
closed = 1;
nodes = (
(155,285,ls),
(238,285,o),
(305,352,o),
(305,434,cs),
(305,478,o),
(286,518,o),
(255,546,c),
(251,610,o),
(196,662,o),
(131,662,cs),
(43,662,ls),
(39,662,o),
(35,658,o),
(35,654,cs),
(35,293,ls),
(35,288,o),
(39,285,o),
(43,285,cs)
);
},
{
closed = 1;
nodes = (
(50,414,l),
(131,414,ls),
(195,414,o),
(249,463,o),
(255,527,c),
(277,503,o),
(290,471,o),
(290,434,cs),
(290,358,o),
(232,299,o),
(155,299,cs),
(50,299,l)
);
},
{
closed = 1;
nodes = (
(50,569,l),
(155,569,ls),
(188,569,o),
(217,558,o),
(240,540,c),
(240,462,o),
(181,429,o),
(131,429,cs),
(50,429,l)
);
},
{
closed = 1;
nodes = (
(50,648,l),
(131,648,ls),
(186,648,o),
(229,610,o),
(238,559,c),
(214,575,o),
(186,584,o),
(155,584,cs),
(50,584,l)
);
}
);
width = 329;
},
{
anchors = (
{
name = _middle;
pos = (153,473);
},
{
name = bottom;
pos = (177.581,285);
},
{
name = center;
pos = (177.581,473.43);
},
{
name = top;
pos = (177.581,661.86);
}
);
layerId = m004;
shapes = (
{
closed = 1;
nodes = (
(184,285,ls),
(262,285,o),
(325,348,o),
(325,425,cs),
(325,470,o),
(304,510,o),
(271,536,c),
(271,622,o),
(200,662,o),
(147,662,cs),
(65,662,ls),
(47,662,o),
(34,649,o),
(34,632,cs),
(34,315,ls),
(34,298,o),
(47,285,o),
(65,285,cs)
);
},
{
closed = 1;
nodes = (
(103,414,l),
(147,414,ls),
(188,414,o),
(224,433,o),
(246,463,c),
(252,453,o),
(256,440,o),
(256,425,cs),
(256,376,o),
(217,354,o),
(184,354,cs),
(103,354,l)
);
},
{
closed = 1;
nodes = (
(103,497,l),
(179,497,ls),
(182,497,o),
(185,497,o),
(188,497,c),
(175,484,o),
(165,483,o),
(147,483,cs),
(103,483,l)
);
},
{
closed = 1;
nodes = (
(103,593,l),
(147,593,ls),
(170,593,o),
(189,585,o),
(197,565,c),
(193,566,o),
(188,566,o),
(184,566,cs),
(103,566,l)
);
}
);
width = 350;
},
{
anchors = (
{
name = _middle;
pos = (166,472.929);
}
);
associatedMasterId = "12AF635E-66FE-4C90-B49C-8787585F2B73";
layerId = "3B5F2A21-9AC0-43BD-916B-7DC2040966BF";
name = Bold;
shapes = (
{
pos = (0,285);
ref = B;
scale = (0.571,0.571);
}
);
width = 329;
},
{
anchors = (
{
name = _middle;
pos = (167,472.929);
}
);
associatedMasterId = "12AF635E-66FE-4C90-B49C-8787585F2B73";
layerId = "1DB3F64C-B148-42AA-8299-ED68ABA9E6AC";
name = Black;
shapes = (
{
pos = (0,285);
ref = B;
scale = (0.571,0.571);
}
);
width = 329;
}
);
},
{
glyphname = Csuperior;
lastChange = "2025-01-07 14:49:27 +0000";
layers = (
{
anchors = (
{
name = _middle;
pos = (189,472.577);
},
{
name = bottom;
pos = (202.134,282.716);
},
{
name = top;
pos = (220.406,663.002);
}
);
layerId = "12AF635E-66FE-4C90-B49C-8787585F2B73";
shapes = (
{
closed = 1;
nodes = (
(270,278,o),
(315,295,o),
(349,326,c),
(351,327,o),
(352,329,o),
(352,332,cs),
(352,336,o),
(349,339,o),
(345,339,cs),
(343,339,o),
(341,338,o),
(340,337,cs),
(308,308,o),
(267,292,o),
(220,292,cs),
(118,292,o),
(39,371,o),
(39,473,cs),
(39,575,o),
(118,654,o),
(220,654,cs),
(270,654,o),
(312,636,o),
(345,605,cs),
(346,604,o),
(347,603,o),
(349,603,cs),
(354,603,o),
(357,606,o),
(357,610,cs),
(357,613,o),
(356,615,o),
(355,616,cs),
(320,649,o),
(272,669,o),
(220,669,cs),
(112,669,o),
(25,581,o),
(25,473,cs),
(25,365,o),
(112,278,o),
(220,278,cs)
);
}
);
width = 379;
},
{
anchors = (
{
name = _middle;
pos = (192,472.577);
},
{
name = bottom;
pos = (192.427,277.577);
},
{
name = top;
pos = (220.406,661.86);
}
);
layerId = m004;
shapes = (
{
closed = 1;
nodes = (
(272,278,o),
(320,298,o),
(355,331,cs),
(361,337,o),
(365,346,o),
(365,356,cs),
(365,374,o),
(351,390,o),
(331,390,cs),
(322,390,o),
(313,387,o),
(308,380,c),
(282,356,o),
(259,346,o),
(220,346,cs),
(140,346,o),
(93,393,o),
(93,473,cs),
(93,553,o),
(140,601,o),
(220,601,cs),
(260,601,o),
(284,590,o),
(311,563,cs),
(317,557,o),
(325,553,o),
(335,553,cs),
(355,553,o),
(369,568,o),
(369,587,cs),
(369,597,o),
(366,605,o),
(359,611,cs),
(324,647,o),
(275,669,o),
(220,669,cs),
(112,669,o),
(25,581,o),
(25,473,cs),
(25,365,o),
(112,278,o),
(220,278,cs)
);
}
);
width = 384;
},
{
anchors = (
{
name = _middle;
pos = (188,472.506);
}
);
associatedMasterId = "12AF635E-66FE-4C90-B49C-8787585F2B73";
layerId = "3B5F2A21-9AC0-43BD-916B-7DC2040966BF";
name = Bold;
shapes = (
{
pos = (0,285);
ref = C;
scale = (0.571,0.571);
}
);
width = 379;
},
{
anchors = (
{
name = _middle;
pos = (190,472.506);
}
);
associatedMasterId = "12AF635E-66FE-4C90-B49C-8787585F2B73";
layerId = "1DB3F64C-B148-42AA-8299-ED68ABA9E6AC";
name = Black;
shapes = (
{
pos = (0,285);
ref = C;
scale = (0.571,0.571);
}
);
width = 379;
}
);
},
{
glyphname = Dsuperior;
lastChange = "2025-01-07 14:49:27 +0000";
layers = (
{
anchors = (
{
name = _middle;
pos = (165,473);
},
{
name = bottom;
pos = (154.741,285);
},
{
name = center;
pos = (154.741,473.43);
},
{
name = top;
pos = (138.182,661.86);
}
);
layerId = "12AF635E-66FE-4C90-B49C-8787585F2B73";
shapes = (
{
closed = 1;
nodes = (
(132,285,ls),
(235,285,o),
(305,359,o),
(305,473,cs),
(305,587,o),
(235,662,o),
(132,662,cs),
(42,662,ls),
(38,662,o),
(34,658,o),
(34,654,cs),
(34,293,ls),
(34,288,o),
(38,285,o),
(42,285,cs)
);
},
{
closed = 1;
nodes = (
(49,648,l),
(132,648,ls),
(229,648,o),
(291,581,o),
(291,473,cs),
(291,366,o),
(229,299,o),
(132,299,cs),
(49,299,l)
);
}
);
width = 330;
},
{
anchors = (
{
name = _middle;
pos = (189,473);
},
{
name = bottom;
pos = (189.001,285);
},
{
name = center;
pos = (189.001,473.43);
},
{
name = top;
pos = (165.019,661.86);
}
);
layerId = m004;
shapes = (
{
closed = 1;
nodes = (
(180,285,ls),
(283,285,o),
(353,359,o),
(353,473,cs),
(353,587,o),
(283,662,o),
(180,662,cs),
(65,662,ls),
(47,662,o),
(34,649,o),
(34,632,cs),
(34,315,ls),
(34,298,o),
(47,285,o),
(65,285,cs)
);
},
{
closed = 1;
nodes = (
(103,593,l),
(180,593,ls),
(254,593,o),
(284,560,o),
(284,473,cs),
(284,387,o),
(254,354,o),
(180,354,cs),
(103,354,l)
);
}
);
width = 378;
},
{
anchors = (
{
name = _middle;
pos = (181,472.929);
}
);
associatedMasterId = "12AF635E-66FE-4C90-B49C-8787585F2B73";
layerId = "3B5F2A21-9AC0-43BD-916B-7DC2040966BF";
name = Bold;
shapes = (
{
pos = (0,285);
ref = D;
scale = (0.571,0.571);
}
);
width = 330;
},
{
anchors = (
{
name = _middle;
pos = (183,472.929);
}
);
associatedMasterId = "12AF635E-66FE-4C90-B49C-8787585F2B73";
layerId = "1DB3F64C-B148-42AA-8299-ED68ABA9E6AC";
name = Black;
shapes = (
{
pos = (0,285);
ref = D;
scale = (0.571,0.571);
}
);
width = 330;
}
);
},
{
glyphname = Esuperior;
lastChange = "2025-01-07 14:49:27 +0000";
layers = (
{
anchors = (
{
name = _middle;
pos = (157,473);
},
{
name = bottom;
pos = (143.321,285);
},
{
name = ogonek;
pos = (248.385,287.284);
},
{
name = top;
pos = (162.164,661.86);
},
{
name = topleft;
pos = (5.139,661.86);
}
);
layerId = "12AF635E-66FE-4C90-B49C-8787585F2B73";
shapes = (
{
closed = 1;
nodes = (
(278,285,ls),
(282,285,o),
(285,288,o),
(285,292,cs),
(285,296,o),
(282,299,o),
(278,299,cs),
(49,299,l),
(49,426,l),
(268,426,ls),
(272,426,o),
(275,429,o),
(275,433,cs),
(275,437,o),
(272,440,o),
(268,440,cs),
(71,440,l),
(274,644,ls),
(281,651,o),
(276,662,o),
(266,662,cs),
(42,662,ls),
(38,662,o),
(34,658,o),
(34,654,cs),
(34,293,ls),
(34,288,o),
(38,285,o),
(42,285,cs)
);
},
{
closed = 1;
nodes = (
(49,648,l),
(257,648,l),
(49,439,l)
);
}
);
width = 314;
},
{
anchors = (
{
name = _middle;
pos = (180,473);
},
{
name = bottom;
pos = (173.013,285);
},
{
name = ogonek;
pos = (262.089,311.266);
},
{
name = top;
pos = (174.726,661.86);
},
{
name = topleft;
pos = (5.139,661.86);
}
);
layerId = m004;
shapes = (
{
closed = 1;
nodes = (
(296,285,ls),
(315,285,o),
(331,300,o),
(331,319,cs),
(331,338,o),
(315,354,o),
(296,354,cs),
(103,354,l),
(103,424,l),
(292,424,ls),
(311,424,o),
(326,439,o),
(326,457,cs),
(326,477,o),
(311,492,o),
(292,492,cs),
(218,493,l),
(313,590,ls),
(343,620,o),
(325,662,o),
(284,662,cs),
(65,662,ls),
(47,662,o),
(34,649,o),
(34,632,cs),
(34,315,ls),
(34,298,o),
(47,285,o),
(65,285,cs)
);
},
{
closed = 1;
nodes = (
(103,593,l),
(219,593,l),
(103,476,l)
);
}
);
width = 360;
},
{
anchors = (
{
name = _middle;
pos = (164,472.929);
}
);
associatedMasterId = "12AF635E-66FE-4C90-B49C-8787585F2B73";
layerId = "3B5F2A21-9AC0-43BD-916B-7DC2040966BF";
name = Bold;
shapes = (
{
pos = (0,285);
ref = E;
scale = (0.571,0.571);
}
);
width = 314;
},
{
anchors = (
{
name = _middle;
pos = (166,472.929);
}
);
associatedMasterId = "12AF635E-66FE-4C90-B49C-8787585F2B73";
layerId = "1DB3F64C-B148-42AA-8299-ED68ABA9E6AC";
name = Black;
shapes = (
{
pos = (0,285);
ref = E;
scale = (0.571,0.571);
}
);
width = 314;
}
);
},
{
glyphname = Fsuperior;
lastChange = "2025-01-07 14:49:27 +0000";
layers = (
{
anchors = (
{
name = _middle;
pos = (153,472.429);
},
{
name = bottom;
pos = (151.315,285);
},
{
name = top;
pos = (151.315,661.86);
}
);
layerId = "12AF635E-66FE-4C90-B49C-8787585F2B73";
shapes = (
{
closed = 1;
nodes = (
(46,284,o),
(49,287,o),
(49,291,cs),
(49,427,l),
(268,427,ls),
(272,427,o),
(276,430,o),
(276,434,cs),
(276,438,o),
(272,441,o),
(268,441,cs),
(72,441,l),
(274,644,ls),
(281,651,o),
(276,662,o),
(266,662,cs),
(42,662,ls),
(38,662,o),
(34,658,o),
(34,654,cs),
(34,291,ls),
(34,287,o),
(38,284,o),
(42,284,cs)
);
},
{
closed = 1;
nodes = (
(49,648,l),
(257,648,l),
(49,439,l)
);
}
);
width = 307;
},
{
anchors = (
{
name = _middle;
pos = (178,473);
},
{
name = bottom;
pos = (175.868,285);
},
{
name = top;
pos = (175.868,661.86);
}
);
layerId = m004;
shapes = (
{
closed = 1;
nodes = (
(87,285,o),
(103,300,o),
(103,319,cs),
(103,425,l),
(276,427,ls),
(303,427,o),
(319,438,o),
(319,460,cs),
(319,479,o),
(303,495,o),
(284,495,cs),
(216,495,l),
(312,590,ls),
(341,619,o),
(323,662,o),
(282,662,cs),
(65,662,ls),
(47,662,o),
(34,649,o),
(34,632,cs),
(34,319,ls),
(34,300,o),
(50,285,o),
(69,285,cs)
);
},
{
closed = 1;
nodes = (
(103,593,l),
(219,593,l),
(103,477,l)
);
}
);
width = 356;
},
{
anchors = (
{
name = _middle;
pos = (154,472.358);
}
);
associatedMasterId = "12AF635E-66FE-4C90-B49C-8787585F2B73";
layerId = "3B5F2A21-9AC0-43BD-916B-7DC2040966BF";
name = Bold;
shapes = (
{
pos = (0,285);
ref = F;
scale = (0.571,0.571);
}
);
width = 307;
},
{
anchors = (
{
name = _middle;
pos = (156,472.358);
}
);
associatedMasterId = "12AF635E-66FE-4C90-B49C-8787585F2B73";
layerId = "1DB3F64C-B148-42AA-8299-ED68ABA9E6AC";
name = Black;
shapes = (
{
pos = (0,285);
ref = F;
scale = (0.571,0.571);
}
);
width = 307;
}
);
},
{
glyphname = Gsuperior;
lastChange = "2025-01-07 14:49:27 +0000";
layers = (
{
anchors = (
{
name = _middle;
pos = (220,472.577);
},
{
name = bottom;
pos = (220.406,285);
},
{
name = top;
pos = (220.406,661.86);
}
);
layerId = "12AF635E-66FE-4C90-B49C-8787585F2B73";
shapes = (
{
closed = 1;
nodes = (
(269,278,o),
(314,296,o),
(348,325,c),
(383,291,l),
(384,289,o),
(385,288,o),
(388,288,cs),
(392,288,o),
(395,291,o),
(395,295,cs),
(395,298,o),
(394,299,o),
(392,301,cs),
(359,335,l),
(392,368,o),
(414,413,o),
(416,463,c),
(417,468,o),
(413,471,o),
(409,471,cs),
(228,471,ls),
(218,471,o),
(213,460,o),
(220,452,cs),
(339,334,l),
(308,308,o),
(266,292,o),
(220,292,cs),
(118,292,o),
(39,371,o),
(39,473,cs),
(39,575,o),
(118,654,o),
(220,654,cs),
(270,654,o),
(312,636,o),
(345,605,cs),
(346,604,o),
(347,603,o),
(349,603,cs),
(354,603,o),
(357,606,o),
(357,610,cs),
(357,613,o),
(356,615,o),
(355,616,cs),
(320,649,o),
(272,669,o),
(220,669,cs),
(112,669,o),
(25,581,o),
(25,473,cs),
(25,365,o),
(112,278,o),
(220,278,cs)
);
},
{
closed = 1;
nodes = (
(401,456,l),
(397,412,o),
(378,373,o),
(349,344,c),
(238,456,l)
);
}
);
width = 441;
},
{
anchors = (
{
name = _middle;
pos = (220,469.867);
},
{
name = bottom;
pos = (220.406,285);
},
{
name = top;
pos = (220.406,661.86);
}
);
layerId = m004;
shapes = (
{
closed = 1;
nodes = (
(255,278,o),
(288,287,o),
(317,303,c),
(342,280,ls),
(348,275,o),
(356,272,o),
(365,272,cs),
(384,272,o),
(399,287,o),
(399,306,cs),
(399,316,o),
(395,326,o),
(388,332,cs),
(371,347,l),
(399,380,o),
(416,423,o),
(417,470,cs),
(417,490,o),
(401,505,o),
(382,505,cs),
(206,505,ls),
(162,505,o),
(144,458,o),
(177,428,cs),
(263,351,l),
(250,348,o),
(236,346,o),
(220,346,cs),
(140,346,o),
(93,393,o),
(93,473,cs),
(93,553,o),
(140,601,o),
(220,601,cs),
(260,601,o),
(284,590,o),
(311,563,cs),
(317,557,o),
(325,553,o),
(335,553,cs),
(355,553,o),
(369,568,o),
(369,587,cs),
(369,597,o),
(366,605,o),
(359,611,cs),
(324,647,o),
(275,669,o),
(220,669,cs),
(112,669,o),
(25,581,o),
(25,473,cs),
(25,365,o),
(112,278,o),
(220,278,cs)
);
},
{
closed = 1;
nodes = (
(344,436,l),
(340,418,o),
(333,402,o),
(323,390,c),
(271,436,l)
);
}
);
width = 441;
},
{
anchors = (
{
name = _middle;
pos = (194,472.506);
}
);
associatedMasterId = "12AF635E-66FE-4C90-B49C-8787585F2B73";
layerId = "3B5F2A21-9AC0-43BD-916B-7DC2040966BF";
name = Bold;
shapes = (
{
pos = (0,285);
ref = G;
scale = (0.571,0.571);
}
);
width = 441;
},
{
anchors = (
{
name = _middle;
pos = (195,472.506);
}
);
associatedMasterId = "12AF635E-66FE-4C90-B49C-8787585F2B73";
layerId = "1DB3F64C-B148-42AA-8299-ED68ABA9E6AC";
name = Black;
shapes = (
{
pos = (0,285);
ref = G;
scale = (0.571,0.571);
}
);
width = 441;
}
);
},
{
glyphname = Hsuperior;
lastChange = "2025-01-07 14:49:27 +0000";
layers = (
{
anchors = (
{
name = _middle;
pos = (168,473.429);
},
{
name = bottom;
pos = (167.874,285);
},
{
name = center;
pos = (167.874,473.43);
},
{
name = top;
pos = (167.874,661.86);
},
{
name = topleft;
pos = (5.139,661.86);
}
);
layerId = "12AF635E-66FE-4C90-B49C-8787585F2B73";
shapes = (
{
closed = 1;
nodes = (
(46,284,o),
(49,287,o),
(49,291,cs),
(49,423,l),
(287,423,l),
(287,291,ls),
(287,287,o),
(290,284,o),
(294,284,cs),
(299,284,o),
(301,287,o),
(301,291,cs),
(301,656,ls),
(301,660,o),
(299,662,o),
(294,662,cs),
(290,662,o),
(287,660,o),
(287,656,cs),
(287,448,l),
(174,561,ls),
(170,565,o),
(166,565,o),
(163,561,c),
(49,448,l),
(49,656,ls),
(49,660,o),
(46,662,o),
(42,662,cs),
(38,662,o),
(34,660,o),
(34,656,cs),
(34,291,ls),
(34,287,o),
(38,284,o),
(42,284,cs)
);
},
{
closed = 1;
nodes = (
(168,547,l),
(276,437,l),
(59,437,l)
);
}
);
width = 336;
},
{
anchors = (
{
name = _middle;
pos = (195,473);
},
{
name = bottom;
pos = (195.282,285);
},
{
name = center;
pos = (195.282,473.43);
},
{
name = top;
pos = (195.282,661.86);
},
{
name = topleft;
pos = (5.139,661.86);
}
);
layerId = m004;
shapes = (
{
closed = 1;
nodes = (
(87,285,o),
(103,300,o),
(103,319,cs),
(103,396,l),
(287,396,l),
(287,319,ls),
(287,300,o),
(303,285,o),
(321,285,cs),
(340,285,o),
(355,300,o),
(355,319,cs),
(355,628,ls),
(355,646,o),
(340,662,o),
(321,662,cs),
(303,662,o),
(287,646,o),
(287,628,cs),
(287,513,l),
(216,584,ls),
(204,596,o),
(186,596,o),
(174,584,cs),
(103,513,l),
(103,628,ls),
(103,646,o),
(87,662,o),
(69,662,cs),
(50,662,o),
(34,646,o),
(34,628,cs),
(34,319,ls),
(34,300,o),
(50,285,o),
(69,285,cs)
);
},
{
closed = 1;
nodes = (
(195,508,l),
(239,464,l),
(151,464,l)
);
}
);
width = 390;
},
{
anchors = (
{
name = _middle;
pos = (196,473.358);
}
);
associatedMasterId = "12AF635E-66FE-4C90-B49C-8787585F2B73";
layerId = "3B5F2A21-9AC0-43BD-916B-7DC2040966BF";
name = Bold;
shapes = (
{
pos = (0,285);
ref = H;
scale = (0.571,0.571);
}
);
width = 336;
},
{
anchors = (
{
name = _middle;
pos = (197,473.358);
}
);
associatedMasterId = "12AF635E-66FE-4C90-B49C-8787585F2B73";
layerId = "1DB3F64C-B148-42AA-8299-ED68ABA9E6AC";
name = Black;
shapes = (
{
pos = (0,285);
ref = H;
scale = (0.571,0.571);
}
);
width = 336;
}
);
},
{
glyphname = Isuperior;
lastChange = "2025-01-07 14:49:27 +0000";
layers = (
{
anchors = (
{
name = _middle;
pos = (101,473);
},
{
name = bottom;
pos = (101.638,285);
},
{
name = ogonek;
pos = (151.886,289.568);
},
{
name = top;
pos = (101.638,661.86);
},
{
name = topleft;
pos = (6.281,661.86);
}
);
layerId = "12AF635E-66FE-4C90-B49C-8787585F2B73";
shapes = (
{
closed = 1;
nodes = (
(161,285,ls),
(165,285,o),
(168,288,o),
(168,292,cs),
(168,296,o),
(165,299,o),
(161,299,cs),
(108,299,l),
(108,648,l),
(161,648,ls),
(165,648,o),
(168,650,o),
(168,654,cs),
(168,659,o),
(165,662,o),
(161,662,cs),
(42,662,ls),
(38,662,o),
(34,659,o),
(34,654,cs),
(34,650,o),
(38,648,o),
(42,648,cs),
(94,648,l),
(94,299,l),
(42,299,ls),
(38,299,o),
(34,296,o),
(34,292,cs),
(34,288,o),
(38,285,o),
(42,285,cs)
);
}
);
width = 203;
},
{
anchors = (
{
name = _middle;
pos = (135,473);
},
{
name = bottom;
pos = (134.756,285);
},
{
name = ogonek;
pos = (191.285,314.692);
},
{
name = top;
pos = (134.756,661.86);
},
{
name = topleft;
pos = (39.97,661.86);
}
);
layerId = m004;
shapes = (
{
closed = 1;
nodes = (
(201,285,ls),
(220,285,o),
(235,300,o),
(235,319,cs),
(235,338,o),
(220,354,o),
(201,354,cs),
(169,354,l),
(169,593,l),
(201,593,ls),
(220,593,o),
(235,609,o),
(235,628,cs),
(235,646,o),
(220,662,o),
(201,662,cs),
(69,662,ls),
(50,662,o),
(34,646,o),
(34,628,cs),
(34,609,o),
(50,593,o),
(69,593,cs),
(100,593,l),
(100,354,l),
(69,354,ls),
(50,354,o),
(34,338,o),
(34,319,cs),
(34,300,o),
(50,285,o),
(69,285,cs)
);
}
);
width = 270;
},
{
anchors = (
{
name = _middle;
pos = (81,472.929);
}
);
associatedMasterId = "12AF635E-66FE-4C90-B49C-8787585F2B73";
layerId = "3B5F2A21-9AC0-43BD-916B-7DC2040966BF";
name = Bold;
shapes = (
{
pos = (0,285);
ref = I;
scale = (0.571,0.571);
}
);
width = 203;
},
{
anchors = (
{
name = _middle;
pos = (84,472.929);
}
);
associatedMasterId = "12AF635E-66FE-4C90-B49C-8787585F2B73";
layerId = "1DB3F64C-B148-42AA-8299-ED68ABA9E6AC";
name = Black;
shapes = (
{
pos = (0,285);
ref = I;
scale = (0.571,0.571);
}
);
width = 203;
}
);
},
{
glyphname = Jsuperior;
lastChange = "2025-01-07 14:49:27 +0000";
layers = (
{
anchors = (
{
name = _middle;
pos = (133,469.577);
},
{
name = bottom;
pos = (126.762,285);
},
{
name = top;
pos = (137.04,661.86);
}
);
layerId = "12AF635E-66FE-4C90-B49C-8787585F2B73";
shapes = (
{
closed = 1;
nodes = (
(182,278,o),
(231,319,o),
(231,373,cs),
(231,654,ls),
(231,658,o),
(228,662,o),
(223,662,cs),
(43,662,ls),
(32,662,o),
(27,651,o),
(35,644,cs),
(216,463,l),
(216,375,ls),
(214,328,o),
(176,292,o),
(127,292,cs),
(81,292,o),
(42,328,o),
(39,375,cs),
(39,379,o),
(35,382,o),
(31,382,cs),
(27,382,o),
(25,378,o),
(25,374,cs),
(28,320,o),
(73,278,o),
(127,278,cs)
);
},
{
closed = 1;
nodes = (
(216,648,l),
(216,483,l),
(52,648,l)
);
}
);
width = 266;
},
{
anchors = (
{
name = _middle;
pos = (160,469.577);
},
{
name = bottom;
pos = (154.741,285);
},
{
name = top;
pos = (163.877,661.86);
}
);
layerId = m004;
shapes = (
{
closed = 1;
nodes = (
(227,278,o),
(285,336,o),
(285,408,cs),
(285,632,ls),
(285,649,o),
(272,662,o),
(255,662,cs),
(81,662,ls),
(39,662,o),
(21,619,o),
(51,590,cs),
(217,423,l),
(217,408,ls),
(217,370,o),
(194,346,o),
(155,346,cs),
(116,346,o),
(93,370,o),
(93,408,cs),
(93,427,o),
(78,442,o),
(59,442,cs),
(40,442,o),
(25,427,o),
(25,408,cs),
(25,336,o),
(83,278,o),
(155,278,cs)
);
},
{
closed = 1;
nodes = (
(217,593,l),
(217,521,l),
(144,593,l)
);
}
);
width = 320;
},
{
anchors = (
{
name = _middle;
pos = (140,469.506);
}
);
associatedMasterId = "12AF635E-66FE-4C90-B49C-8787585F2B73";
layerId = "3B5F2A21-9AC0-43BD-916B-7DC2040966BF";
name = Bold;
shapes = (
{
pos = (0,285);
ref = J;
scale = (0.571,0.571);
}
);
width = 266;
},
{
anchors = (
{
name = _middle;
pos = (143,469.506);
}
);
associatedMasterId = "12AF635E-66FE-4C90-B49C-8787585F2B73";
layerId = "1DB3F64C-B148-42AA-8299-ED68ABA9E6AC";
name = Black;
shapes = (
{
pos = (0,285);
ref = J;
scale = (0.571,0.571);
}
);
width = 266;
}
);
},
{
glyphname = Ksuperior;
lastChange = "2025-01-07 14:49:27 +0000";
layers = (
{
anchors = (
{
name = _middle;
pos = (184,473);
},
{
name = bottom;
pos = (183.291,285);
},
{
name = top;
pos = (183.291,661.86);
}
);
layerId = "12AF635E-66FE-4C90-B49C-8787585F2B73";
shapes = (
{
closed = 1;
nodes = (
(46,285,o),
(49,288,o),
(49,292,cs),
(49,394,l),
(154,512,l),
(338,287,ls),
(339,286,o),
(341,285,o),
(344,285,cs),
(348,285,o),
(351,288,o),
(351,292,cs),
(351,294,o),
(351,295,o),
(349,297,cs),
(164,523,l),
(277,650,l),
(279,651,o),
(279,652,o),
(279,654,cs),
(279,658,o),
(276,662,o),
(272,662,cs),
(270,662,o),
(268,661,o),
(267,660,cs),
(155,535,l),
(55,657,ls),
(52,660,o),
(49,662,o),
(46,662,cs),
(39,662,o),
(34,657,o),
(34,650,cs),
(34,292,ls),
(34,288,o),
(38,285,o),
(42,285,cs)
);
},
{
closed = 1;
nodes = (
(49,641,l),
(145,524,l),
(49,416,l)
);
}
);
width = 368;
},
{
anchors = (
{
name = _middle;
pos = (193,473);
},
{
name = bottom;
pos = (217.551,285);
},
{
name = top;
pos = (217.551,661.86);
}
);
layerId = m004;
shapes = (
{
closed = 1;
nodes = (
(87,285,o),
(103,300,o),
(103,319,cs),
(103,367,l),
(181,453,l),
(309,297,l),
(316,290,o),
(325,285,o),
(336,285,cs),
(355,285,o),
(370,300,o),
(370,319,cs),
(370,327,o),
(367,335,o),
(363,341,c),
(228,505,l),
(318,605,l),
(324,610,o),
(327,619,o),
(327,628,cs),
(327,646,o),
(312,662,o),
(292,662,cs),
(283,662,o),
(274,657,o),
(268,651,cs),
(184,559,l),
(115,643,ls),
(104,656,o),
(91,662,o),
(78,662,cs),
(55,662,o),
(34,644,o),
(34,614,cs),
(34,319,ls),
(34,300,o),
(50,285,o),
(69,285,cs)
);
},
{
closed = 1;
nodes = (
(103,548,l),
(137,507,l),
(103,469,l)
);
}
);
width = 387;
},
{
anchors = (
{
name = _middle;
pos = (190,472.929);
}
);
associatedMasterId = "12AF635E-66FE-4C90-B49C-8787585F2B73";
layerId = "3B5F2A21-9AC0-43BD-916B-7DC2040966BF";
name = Bold;
shapes = (
{
pos = (0,285);
ref = K;
scale = (0.571,0.571);
}
);
width = 368;
},
{
anchors = (
{
name = _middle;
pos = (195,472.929);
}
);
associatedMasterId = "12AF635E-66FE-4C90-B49C-8787585F2B73";
layerId = "1DB3F64C-B148-42AA-8299-ED68ABA9E6AC";
name = Black;
shapes = (
{
pos = (0,285);
ref = K;
scale = (0.571,0.571);
}
);
width = 368;
}
);
},
{
glyphname = Lsuperior;
lastChange = "2025-01-07 14:49:27 +0000";
layers = (
{
anchors = (
{
name = _middle;
pos = (139,473);
},
{
name = bottom;
pos = (151.315,285);
},
{
name = center;
pos = (126.762,473.43);
},
{
name = top;
pos = (126.762,661.86);
},
{
name = topright;
pos = (274.651,661.86);
}
);
layerId = "12AF635E-66FE-4C90-B49C-8787585F2B73";
shapes = (
{
closed = 1;
nodes = (
(257,285,ls),
(268,285,o),
(272,296,o),
(265,304,cs),
(49,519,l),
(49,654,ls),
(49,659,o),
(46,662,o),
(42,662,cs),
(38,662,o),
(34,659,o),
(34,654,cs),
(34,293,ls),
(34,288,o),
(38,285,o),
(42,285,cs)
);
},
{
closed = 1;
nodes = (
(49,498,l),
(248,299,l),
(49,299,l)
);
}
);
width = 279;
},
{
anchors = (
{
name = _middle;
pos = (155,473);
},
{
name = bottom;
pos = (160.451,285);
},
{
name = center;
pos = (160.451,473.43);
},
{
name = top;
pos = (160.451,661.86);
},
{
name = topright;
pos = (308.911,661.86);
}
);
layerId = m004;
shapes = (
{
closed = 1;
nodes = (
(256,285,ls),
(297,285,o),
(316,328,o),
(286,358,cs),
(103,540,l),
(103,628,ls),
(103,646,o),
(87,662,o),
(69,662,cs),
(50,662,o),
(34,646,o),
(34,628,cs),
(34,315,ls),
(34,298,o),
(47,285,o),
(65,285,cs)
);
},
{
closed = 1;
nodes = (
(103,443,l),
(193,354,l),
(103,354,l)
);
}
);
width = 311;
},
{
anchors = (
{
name = _middle;
pos = (145,472.929);
}
);
associatedMasterId = "12AF635E-66FE-4C90-B49C-8787585F2B73";
layerId = "3B5F2A21-9AC0-43BD-916B-7DC2040966BF";
name = Bold;
shapes = (
{
pos = (0,285);
ref = L;
scale = (0.571,0.571);
}
);
width = 279;
},
{
anchors = (
{
name = _middle;
pos = (147,472.929);
}
);
associatedMasterId = "12AF635E-66FE-4C90-B49C-8787585F2B73";
layerId = "1DB3F64C-B148-42AA-8299-ED68ABA9E6AC";
name = Black;
shapes = (
{
pos = (0,285);
ref = L;
scale = (0.571,0.571);
}
);
width = 279;
}
);
},
{
glyphname = Msuperior;
lastChange = "2025-01-07 14:49:27 +0000";
layers = (
{
anchors = (
{
name = _middle;
pos = (190,473);
},
{
name = bottom;
pos = (190.714,285);
},
{
name = top;
pos = (190.714,661.86);
}
);
layerId = "12AF635E-66FE-4C90-B49C-8787585F2B73";
shapes = (
{
closed = 1;
nodes = (
(344,285,o),
(347,288,o),
(347,292,cs),
(347,651,ls),
(347,657,o),
(343,662,o),
(337,662,cs),
(335,662,o),
(333,661,o),
(330,659,cs),
(191,540,l),
(52,659,ls),
(49,661,o),
(47,662,o),
(44,662,cs),
(39,662,o),
(34,657,o),
(34,651,cs),
(34,292,ls),
(34,288,o),
(38,285,o),
(42,285,cs),
(46,285,o),
(49,288,o),
(49,292,cs),
(49,399,l),
(191,521,l),
(332,400,l),
(332,292,ls),
(332,288,o),
(335,285,o),
(340,285,cs)
);
},
{
closed = 1;
nodes = (
(49,642,l),
(180,530,l),
(49,418,l)
);
},
{
closed = 1;
nodes = (
(332,642,l),
(332,418,l),
(202,530,l)
);
}
);
width = 381;
},
{
anchors = (
{
name = _middle;
pos = (218,473);
},
{
name = bottom;
pos = (217.551,285);
},
{
name = top;
pos = (217.551,661.86);
}
);
layerId = m004;
shapes = (
{
closed = 1;
nodes = (
(386,285,o),
(401,300,o),
(401,319,cs),
(401,620,ls),
(401,645,o),
(384,662,o),
(363,662,cs),
(354,662,o),
(344,659,o),
(335,650,c),
(218,550,l),
(102,650,ls),
(92,659,o),
(82,662,o),
(73,662,cs),
(52,662,o),
(34,645,o),
(34,620,cs),
(34,319,ls),
(34,300,o),
(50,285,o),
(69,285,cs),
(87,285,o),
(103,300,o),
(103,319,cs),
(103,362,l),
(218,460,l),
(333,362,l),
(333,319,ls),
(333,300,o),
(348,285,o),
(367,285,cs)
);
},
{
closed = 1;
nodes = (
(103,559,l),
(166,505,l),
(103,452,l)
);
},
{
closed = 1;
nodes = (
(333,559,l),
(333,452,l),
(271,506,l)
);
}
);
width = 436;
},
{
anchors = (
{
name = _middle;
pos = (230,472.929);
}
);
associatedMasterId = "12AF635E-66FE-4C90-B49C-8787585F2B73";
layerId = "3B5F2A21-9AC0-43BD-916B-7DC2040966BF";
name = Bold;
shapes = (
{
pos = (0,285);
ref = M;
scale = (0.571,0.571);
}
);
width = 381;
},
{
anchors = (
{
name = _middle;
pos = (230,472.929);
}
);
associatedMasterId = "12AF635E-66FE-4C90-B49C-8787585F2B73";
layerId = "1DB3F64C-B148-42AA-8299-ED68ABA9E6AC";
name = Black;
shapes = (
{
pos = (0,285);
ref = M;
scale = (0.571,0.571);
}
);
width = 381;
}
);
},
{
glyphname = Nsuperior;
lastChange = "2025-01-07 14:49:27 +0000";
layers = (
{
anchors = (
{
name = _middle;
pos = (170,473);
},
{
name = bottom;
pos = (170.158,285);
},
{
name = top;
pos = (170.158,661.86);
}
);
layerId = "12AF635E-66FE-4C90-B49C-8787585F2B73";
shapes = (
{
closed = 1;
nodes = (
(298,285,ls),
(303,285,o),
(305,288,o),
(305,292,cs),
(305,654,ls),
(305,659,o),
(303,662,o),
(298,662,cs),
(294,662,o),
(291,659,o),
(291,654,cs),
(291,319,l),
(57,656,ls),
(50,667,o),
(34,662,o),
(34,649,cs),
(34,293,ls),
(34,288,o),
(38,285,o),
(42,285,cs)
);
},
{
closed = 1;
nodes = (
(49,642,l),
(286,299,l),
(49,299,l)
);
}
);
width = 340;
},
{
anchors = (
{
name = _middle;
pos = (198,473);
},
{
name = bottom;
pos = (198.137,285);
},
{
name = top;
pos = (198.137,661.86);
}
);
layerId = m004;
shapes = (
{
closed = 1;
nodes = (
(327,285,ls),
(346,285,o),
(361,300,o),
(361,319,cs),
(361,628,ls),
(361,646,o),
(346,662,o),
(327,662,cs),
(308,662,o),
(292,646,o),
(292,628,cs),
(292,421,l),
(123,640,ls),
(93,680,o),
(34,662,o),
(34,612,cs),
(34,315,ls),
(34,298,o),
(47,285,o),
(65,285,cs)
);
},
{
closed = 1;
nodes = (
(103,553,l),
(258,354,l),
(103,354,l)
);
}
);
width = 396;
},
{
anchors = (
{
name = _middle;
pos = (197,472.929);
}
);
associatedMasterId = "12AF635E-66FE-4C90-B49C-8787585F2B73";
layerId = "3B5F2A21-9AC0-43BD-916B-7DC2040966BF";
name = Bold;
shapes = (
{
pos = (0,285);
ref = N;
scale = (0.571,0.571);
}
);
width = 340;
},
{
anchors = (
{
name = _middle;
pos = (199,472.929);
}
);
associatedMasterId = "12AF635E-66FE-4C90-B49C-8787585F2B73";
layerId = "1DB3F64C-B148-42AA-8299-ED68ABA9E6AC";
name = Black;
shapes = (
{
pos = (0,285);
ref = N;
scale = (0.571,0.571);
}
);
width = 340;
}
);
},
{
glyphname = Osuperior;
lastChange = "2025-01-07 14:49:27 +0000";
layers = (
{
anchors = (
{
name = _middle;
pos = (220,472.577);
},
{
name = bottom;
pos = (220.406,285);
},
{
name = center;
pos = (220.406,473.43);
},
{
name = ogonek;
pos = (251.24,287.284);
},
{
name = top;
pos = (220.406,661.86);
},
{
name = topleft;
pos = (5.139,661.86);
},
{
name = topright;
pos = (295.207,654.437);
}
);
layerId = "12AF635E-66FE-4C90-B49C-8787585F2B73";
shapes = (
{
closed = 1;
nodes = (
(329,278,o),
(417,365,o),
(417,473,cs),
(417,581,o),
(329,669,o),
(220,669,cs),
(112,669,o),
(25,581,o),
(25,473,cs),
(25,365,o),
(112,278,o),
(220,278,cs)
);
},
{
closed = 1;
nodes = (
(118,292,o),
(39,371,o),
(39,473,cs),
(39,575,o),
(118,654,o),
(220,654,cs),
(323,654,o),
(401,575,o),
(401,473,cs),
(401,371,o),
(323,292,o),
(220,292,cs)
);
}
);
width = 441;
},
{
anchors = (
{
name = _middle;
pos = (220,472.577);
},
{
name = bottom;
pos = (220.406,285);
},
{
name = center;
pos = (220.406,473.43);
},
{
name = ogonek;
pos = (208.986,287.284);
},
{
name = top;
pos = (220.406,661.86);
},
{
name = topleft;
pos = (5.139,661.86);
},
{
name = topright;
pos = (295.207,654.437);
}
);
layerId = m004;
shapes = (
{
closed = 1;
nodes = (
(329,278,o),
(417,365,o),
(417,473,cs),
(417,581,o),
(329,669,o),
(220,669,cs),
(112,669,o),
(25,581,o),
(25,473,cs),
(25,365,o),
(112,278,o),
(220,278,cs)
);
},
{
closed = 1;
nodes = (
(140,346,o),
(93,393,o),
(93,473,cs),
(93,553,o),
(140,601,o),
(220,601,cs),
(301,601,o),
(348,553,o),
(348,473,cs),
(348,393,o),
(301,346,o),
(220,346,cs)
);
}
);
width = 441;
},
{
anchors = (
{
name = _middle;
pos = (214,472.506);
}
);
associatedMasterId = "12AF635E-66FE-4C90-B49C-8787585F2B73";
layerId = "3B5F2A21-9AC0-43BD-916B-7DC2040966BF";
name = Bold;
shapes = (
{
pos = (0,285);
ref = O;
scale = (0.571,0.571);
}
);
width = 441;
},
{
anchors = (
{
name = _middle;
pos = (215,472.506);
}
);
associatedMasterId = "12AF635E-66FE-4C90-B49C-8787585F2B73";
layerId = "1DB3F64C-B148-42AA-8299-ED68ABA9E6AC";
name = Black;
shapes = (
{
pos = (0,285);
ref = O;
scale = (0.571,0.571);
}
);
width = 441;
}
);
},
{
glyphname = Psuperior;
lastChange = "2025-01-07 14:49:27 +0000";
layers = (
{
anchors = (
{
name = _middle;
pos = (139,473);
},
{
name = bottom;
pos = (138.753,285);
},
{
name = top;
pos = (138.753,661.86);
}
);
layerId = "12AF635E-66FE-4C90-B49C-8787585F2B73";
shapes = (
{
closed = 1;
nodes = (
(46,285,o),
(49,288,o),
(49,292,cs),
(49,414,l),
(130,414,ls),
(199,414,o),
(254,469,o),
(254,538,cs),
(254,606,o),
(199,662,o),
(130,662,cs),
(42,662,ls),
(38,662,o),
(34,658,o),
(34,654,cs),
(34,292,ls),
(34,288,o),
(38,285,o),
(42,285,cs)
);
},
{
closed = 1;
nodes = (
(49,648,l),
(130,648,ls),
(192,648,o),
(239,600,o),
(239,538,cs),
(239,476,o),
(192,429,o),
(130,429,cs),
(49,429,l)
);
}
);
width = 279;
},
{
anchors = (
{
name = _middle;
pos = (154,473);
},
{
name = bottom;
pos = (154.17,285);
},
{
name = top;
pos = (154.17,661.86);
}
);
layerId = m004;
shapes = (
{
closed = 1;
nodes = (
(87,285,o),
(103,300,o),
(103,319,cs),
(103,414,l),
(160,414,ls),
(228,414,o),
(283,469,o),
(283,538,cs),
(283,606,o),
(228,662,o),
(160,662,cs),
(65,662,ls),
(47,662,o),
(34,649,o),
(34,632,cs),
(34,319,ls),
(34,300,o),
(50,285,o),
(69,285,cs)
);
},
{
closed = 1;
nodes = (
(103,593,l),
(160,593,ls),
(190,593,o),
(215,573,o),
(215,538,cs),
(215,503,o),
(190,483,o),
(160,483,cs),
(103,483,l)
);
}
);
width = 308;
},
{
anchors = (
{
name = _middle;
pos = (158,472.929);
}
);
associatedMasterId = "12AF635E-66FE-4C90-B49C-8787585F2B73";
layerId = "3B5F2A21-9AC0-43BD-916B-7DC2040966BF";
name = Bold;
shapes = (
{
pos = (0,285);
ref = P;
scale = (0.571,0.571);
}
);
width = 279;
},
{
anchors = (
{
name = _middle;
pos = (159,472.929);
}
);
associatedMasterId = "12AF635E-66FE-4C90-B49C-8787585F2B73";
layerId = "1DB3F64C-B148-42AA-8299-ED68ABA9E6AC";
name = Black;
shapes = (
{
pos = (0,285);
ref = P;
scale = (0.571,0.571);
}
);
width = 279;
}
);
},
{
glyphname = Qsuperior;
lastChange = "2025-01-07 14:49:27 +0000";
layers = (
{
anchors = (
{
name = _middle;
pos = (220,472.577);
},
{
name = bottom;
pos = (220.406,285);
},
{
name = top;
pos = (220.406,661.86);
}
);
layerId = "12AF635E-66FE-4C90-B49C-8787585F2B73";
shapes = (
{
closed = 1;
nodes = (
(329,278,o),
(417,365,o),
(417,473,cs),
(417,581,o),
(329,669,o),
(220,669,cs),
(112,669,o),
(25,581,o),
(25,473,cs),
(25,365,o),
(112,278,o),
(220,278,cs)
);
},
{
closed = 1;
nodes = (
(182,292,o),
(147,304,o),
(118,323,c),
(220,473,l),
(323,323,l),
(294,304,o),
(259,292,o),
(220,292,cs)
);
},
{
closed = 1;
nodes = (
(65,364,o),
(39,415,o),
(39,473,cs),
(39,575,o),
(118,654,o),
(220,654,cs),
(323,654,o),
(401,575,o),
(401,473,cs),
(401,415,o),
(376,364,o),
(335,332,c),
(228,488,ls),
(224,494,o),
(217,494,o),
(213,488,cs),
(106,332,l)
);
}
);
width = 441;
},
{
anchors = (
{
name = _middle;
pos = (220,472.577);
},
{
name = bottom;
pos = (220.406,285);
},
{
name = top;
pos = (220.406,661.86);
}
);
layerId = m004;
shapes = (
{
closed = 1;
nodes = (
(329,278,o),
(417,365,o),
(417,473,cs),
(417,581,o),
(329,669,o),
(220,669,cs),
(112,669,o),
(25,581,o),
(25,473,cs),
(25,365,o),
(112,278,o),
(220,278,cs)
);
},
{
closed = 1;
nodes = (
(202,346,o),
(186,349,o),
(172,354,c),
(220,425,l),
(270,354,l),
(255,349,o),
(239,346,o),
(220,346,cs)
);
},
{
closed = 1;
nodes = (
(101,413,o),
(93,440,o),
(93,473,cs),
(93,553,o),
(140,601,o),
(220,601,cs),
(301,601,o),
(348,553,o),
(348,473,cs),
(348,440,o),
(340,414,o),
(325,393,c),
(249,505,ls),
(234,527,o),
(207,527,o),
(192,505,cs),
(115,393,l)
);
}
);
width = 441;
},
{
anchors = (
{
name = _middle;
pos = (214,472.506);
}
);
associatedMasterId = "12AF635E-66FE-4C90-B49C-8787585F2B73";
layerId = "3B5F2A21-9AC0-43BD-916B-7DC2040966BF";
name = Bold;
shapes = (
{
pos = (0,285);
ref = Q;
scale = (0.571,0.571);
}
);
width = 441;
},
{
anchors = (
{
name = _middle;
pos = (214,472.506);
}
);
associatedMasterId = "12AF635E-66FE-4C90-B49C-8787585F2B73";
layerId = "1DB3F64C-B148-42AA-8299-ED68ABA9E6AC";
name = Black;
shapes = (
{
pos = (0,285);
ref = Q;
scale = (0.571,0.571);
}
);
width = 441;
}
);
},
{
glyphname = Rsuperior;
lastChange = "2025-01-07 14:49:27 +0000";
layers = (
{
anchors = (
{
name = _middle;
pos = (162,473);
},
{
name = bottom;
pos = (147.318,285);
},
{
name = top;
pos = (130.188,661.86);
}
);
layerId = "12AF635E-66FE-4C90-B49C-8787585F2B73";
shapes = (
{
closed = 1;
nodes = (
(46,285,o),
(49,288,o),
(49,292,cs),
(49,414,l),
(130,414,ls),
(152,414,o),
(173,420,o),
(191,430,c),
(287,288,ls),
(288,286,o),
(290,285,o),
(292,285,cs),
(296,285,o),
(300,287,o),
(300,291,cs),
(300,293,o),
(300,294,o),
(298,297,cs),
(203,437,l),
(234,460,o),
(254,496,o),
(254,538,cs),
(254,606,o),
(199,662,o),
(130,662,cs),
(42,662,ls),
(37,662,o),
(34,660,o),
(34,654,cs),
(34,292,ls),
(34,288,o),
(38,285,o),
(42,285,cs)
);
},
{
closed = 1;
nodes = (
(49,638,l),
(182,442,l),
(167,434,o),
(149,429,o),
(130,429,cs),
(49,429,l)
);
},
{
closed = 1;
nodes = (
(130,648,ls),
(192,648,o),
(239,600,o),
(239,538,cs),
(239,501,o),
(222,469,o),
(195,449,c),
(60,648,l)
);
}
);
width = 324;
},
{
anchors = (
{
name = _middle;
pos = (175,473);
},
{
name = bottom;
pos = (175.297,285);
},
{
name = top;
pos = (164.448,661.86);
}
);
layerId = m004;
shapes = (
{
closed = 1;
nodes = (
(87,285,o),
(103,300,o),
(103,319,cs),
(103,387,l),
(173,387,ls),
(183,387,o),
(192,388,o),
(202,390,c),
(263,299,l),
(270,291,o),
(280,285,o),
(292,285,cs),
(311,285,o),
(325,300,o),
(325,319,cs),
(325,327,o),
(324,334,o),
(320,339,cs),
(264,421,l),
(293,446,o),
(311,483,o),
(311,524,cs),
(311,600,o),
(250,662,o),
(173,662,cs),
(64,662,ls),
(45,662,o),
(34,652,o),
(34,632,cs),
(34,319,ls),
(34,300,o),
(50,285,o),
(69,285,cs)
);
},
{
closed = 1;
nodes = (
(103,536,l),
(158,455,l),
(151,455,o),
(143,455,o),
(136,455,c),
(103,455,l)
);
},
{
closed = 1;
nodes = (
(173,593,ls),
(219,593,o),
(242,570,o),
(242,524,cs),
(242,503,o),
(237,487,o),
(227,475,c),
(147,593,l)
);
}
);
width = 351;
},
{
anchors = (
{
name = _middle;
pos = (185,472.929);
}
);
associatedMasterId = "12AF635E-66FE-4C90-B49C-8787585F2B73";
layerId = "3B5F2A21-9AC0-43BD-916B-7DC2040966BF";
name = Bold;
shapes = (
{
pos = (0,285);
ref = R;
scale = (0.571,0.571);
}
);
width = 324;
},
{
anchors = (
{
name = _middle;
pos = (188,472.929);
}
);
associatedMasterId = "12AF635E-66FE-4C90-B49C-8787585F2B73";
layerId = "1DB3F64C-B148-42AA-8299-ED68ABA9E6AC";
name = Black;
shapes = (
{
pos = (0,285);
ref = R;
scale = (0.571,0.571);
}
);
width = 324;
}
);
},
